<svg width="17" height="17" viewBox="0 0 17 17" fill="none" xmlns="http://www.w3.org/2000/svg">
<circle cx="11.5" cy="11.5" r="5.5" fill="#F14A4A"/>
<path d="M14.7351 13.8193H1V14.735H14.7351V13.8193Z" stroke="#261C2C" stroke-width="0.5" stroke-linejoin="round"/>
<path d="M10.1567 3.28918H5.57831V13.8194H10.1567V3.28918Z" stroke="#261C2C" stroke-width="0.5" stroke-linejoin="round"/>
<path d="M5.57831 3.28918L7.86749 1L10.1567 3.28918" stroke="#261C2C" stroke-width="0.5" stroke-linejoin="round"/>
<path d="M5.57827 6.95178H1.91559V13.8193" stroke="#261C2C" stroke-width="0.5" stroke-linejoin="round"/>
<path d="M4.66276 7.86743H2.83142V11.988H4.66276V7.86743Z" stroke="#261C2C" stroke-width="0.5" stroke-linejoin="round"/>
<path d="M1.91559 12.9037H5.57827" stroke="#261C2C" stroke-width="0.5" stroke-linejoin="round"/>
<path d="M2.83142 9.24097H4.66276" stroke="#261C2C" stroke-width="0.5" stroke-linejoin="round"/>
<path d="M2.83142 10.6145H4.66276" stroke="#261C2C" stroke-width="0.5" stroke-linejoin="round"/>
<path d="M3.74701 7.86743V11.988" stroke="#261C2C" stroke-width="0.5" stroke-linejoin="round"/>
<path d="M10.1567 6.95178H13.8194V13.8193" stroke="#261C2C" stroke-width="0.5" stroke-linejoin="round"/>
<path d="M11.0723 11.988H12.9037V7.86752H11.0723V11.988Z" stroke="#261C2C" stroke-width="0.5" stroke-linejoin="round"/>
<path d="M13.8194 12.9037H10.1567" stroke="#261C2C" stroke-width="0.5" stroke-linejoin="round"/>
<path d="M12.9037 9.24097H11.0723" stroke="#261C2C" stroke-width="0.5" stroke-linejoin="round"/>
<path d="M12.9037 10.6145H11.0723" stroke="#261C2C" stroke-width="0.5" stroke-linejoin="round"/>
<path d="M11.988 7.86743V11.988" stroke="#261C2C" stroke-width="0.5" stroke-linejoin="round"/>
<path d="M7.86759 6.95185C8.62615 6.95185 9.24109 6.33691 9.24109 5.57834C9.24109 4.81977 8.62615 4.20483 7.86759 4.20483C7.10902 4.20483 6.49408 4.81977 6.49408 5.57834C6.49408 6.33691 7.10902 6.95185 7.86759 6.95185Z" stroke="#261C2C" stroke-width="0.5" stroke-linejoin="round"/>
<path d="M6.49408 13.8194V12.4459C6.49408 12.0816 6.63879 11.7323 6.89637 11.4747C7.15395 11.2171 7.50331 11.0724 7.86759 11.0724V11.0724C8.23186 11.0724 8.58122 11.2171 8.8388 11.4747C9.09639 11.7323 9.24109 12.0816 9.24109 12.4459V13.8194" stroke="#261C2C" stroke-width="0.5" stroke-linejoin="round"/>
<path d="M9.01214 9.24097H6.72296V10.1566H9.01214V9.24097Z" stroke="#261C2C" stroke-width="0.5" stroke-linejoin="round"/>
<path d="M8.32538 12.4459V12.9038" stroke="#261C2C" stroke-width="0.5" stroke-linejoin="round"/>
<path d="M7.86749 4.8916V5.57836L8.32533 6.03619" stroke="#261C2C" stroke-width="0.5" stroke-linejoin="round"/>
<path d="M11.988 6.95185V4.20483H13.8194V5.57834H11.988" stroke="#261C2C" stroke-width="0.5" stroke-linejoin="round"/>
<path d="M3.74693 6.95185V4.20483H1.91559V5.57834H3.74693" stroke="#261C2C" stroke-width="0.5" stroke-linejoin="round"/>
</svg>
