<svg width="15" height="16" viewBox="0 0 15 16" fill="none" xmlns="http://www.w3.org/2000/svg">
<circle cx="9.5" cy="10.5" r="5.5" fill="#F14A4A"/>
<path fill-rule="evenodd" clip-rule="evenodd" d="M0 12.3983C0 12.2697 0.10421 12.1655 0.232759 12.1655H13.2672C13.3958 12.1655 13.5 12.2697 13.5 12.3983V13.2673C13.5 13.3958 13.3958 13.5 13.2672 13.5H0.232759C0.10421 13.5 0 13.3958 0 13.2673V12.3983ZM0.465517 12.631V13.0345H13.0345V12.631H0.465517Z" fill="#261C2C"/>
<path fill-rule="evenodd" clip-rule="evenodd" d="M3.5069 12.1656V9.35693H3.04138V12.3983C3.04138 12.5269 3.14559 12.6311 3.27414 12.6311H4.57759C4.70614 12.6311 4.81035 12.5269 4.81035 12.3983V9.35693H4.34483V12.1656H3.5069Z" fill="#261C2C"/>
<path fill-rule="evenodd" clip-rule="evenodd" d="M3.92586 2.63788C3.81475 2.63788 3.70818 2.68202 3.62961 2.76059C3.55104 2.83916 3.5069 2.94573 3.5069 3.05685V3.70857H3.04138V3.05685C3.04138 2.82227 3.13457 2.59729 3.30044 2.43142C3.46631 2.26555 3.69129 2.17236 3.92586 2.17236C4.16044 2.17236 4.38542 2.26555 4.55129 2.43142C4.71716 2.59729 4.81035 2.82227 4.81035 3.05685V3.70857H4.34483V3.05685C4.34483 2.94573 4.30069 2.83916 4.22212 2.76059C4.14355 2.68202 4.03698 2.63788 3.92586 2.63788Z" fill="#261C2C"/>
<path fill-rule="evenodd" clip-rule="evenodd" d="M1.73792 3.70859C1.73792 3.58004 1.84212 3.47583 1.97067 3.47583H6.96723C7.02896 3.47583 7.08816 3.50035 7.13181 3.544L7.78353 4.19573C7.87443 4.28663 7.87443 4.434 7.78353 4.5249L7.13181 5.17662C7.08816 5.22027 7.02896 5.2448 6.96723 5.2448H1.97067C1.84212 5.2448 1.73792 5.14059 1.73792 5.01204V3.70859ZM2.20343 3.94135V4.77928H6.87081L7.28978 4.36031L6.87081 3.94135H2.20343Z" fill="#261C2C"/>
<path fill-rule="evenodd" clip-rule="evenodd" d="M1.73792 5.88095C1.73792 5.7524 1.84212 5.64819 1.97067 5.64819H6.96723C7.02896 5.64819 7.08816 5.67272 7.13181 5.71637L7.78353 6.36809C7.87443 6.45899 7.87443 6.60636 7.78353 6.69726L7.13181 7.34899C7.08816 7.39264 7.02896 7.41716 6.96723 7.41716H1.97067C1.84212 7.41716 1.73792 7.31295 1.73792 7.1844V5.88095ZM2.20343 6.11371V6.95164H6.87081L7.28978 6.53268L6.87081 6.11371H2.20343Z" fill="#261C2C"/>
<path fill-rule="evenodd" clip-rule="evenodd" d="M0.719897 7.88897C0.763548 7.84532 0.822751 7.8208 0.884483 7.8208H5.88103C6.00958 7.8208 6.11379 7.92501 6.11379 8.05356V9.35701C6.11379 9.48556 6.00958 9.58977 5.88103 9.58977H0.884483C0.822751 9.58977 0.763548 9.56524 0.719897 9.52159L0.0681734 8.86987C-0.0227245 8.77897 -0.0227245 8.6316 0.0681734 8.5407L0.719897 7.88897ZM0.980895 8.28632L0.561929 8.70528L0.980894 9.12425H5.64828V8.28632H0.980895Z" fill="#261C2C"/>
<path fill-rule="evenodd" clip-rule="evenodd" d="M3.04138 5.88105V5.01208H3.5069V5.88105H3.04138Z" fill="#261C2C"/>
<path fill-rule="evenodd" clip-rule="evenodd" d="M4.34485 5.88105V5.01208H4.81037V5.88105H4.34485Z" fill="#261C2C"/>
<path fill-rule="evenodd" clip-rule="evenodd" d="M3.04138 8.05354V7.18457H3.5069V8.05354H3.04138Z" fill="#261C2C"/>
<path fill-rule="evenodd" clip-rule="evenodd" d="M4.34485 8.05354V7.18457H4.81037V8.05354H4.34485Z" fill="#261C2C"/>
<path fill-rule="evenodd" clip-rule="evenodd" d="M9.89999 0.877686H10.1009C10.6513 0.8801 11.1785 1.09978 11.5679 1.48893C11.957 1.87824 12.1767 2.40553 12.1792 2.95597L12.1792 2.957L12.1792 2.97737C12.1834 3.35089 12.0871 3.71868 11.9003 4.04223L11.8985 4.04543L10.2083 6.86956C10.1663 6.93979 10.0905 6.98279 10.0086 6.98279C9.92676 6.98279 9.85092 6.93979 9.80889 6.86956L8.11904 4.04591C7.92534 3.72396 7.82215 3.35537 7.82068 2.97963L7.82068 2.95597C7.82309 2.40553 8.04277 1.8783 8.43192 1.489C8.82123 1.09985 9.34852 0.880103 9.89897 0.877688L9.89999 0.877686Z" fill="#261C2C"/>
<path fill-rule="evenodd" clip-rule="evenodd" d="M6.51721 0.232759C6.51721 0.10421 6.62142 0 6.74997 0H13.2672C13.3958 0 13.5 0.10421 13.5 0.232759V7.61897C13.5 7.74751 13.3958 7.85172 13.2672 7.85172H7.40169V7.38621H13.0345V0.465517H6.98273V3.70862H6.51721V0.232759Z" fill="#261C2C"/>
<path fill-rule="evenodd" clip-rule="evenodd" d="M10.0087 2.20343C9.53732 2.20343 9.15521 2.58553 9.15521 3.05688C9.15521 3.52823 9.53732 3.91033 10.0087 3.91033C10.48 3.91033 10.8621 3.52823 10.8621 3.05688C10.8621 2.58553 10.48 2.20343 10.0087 2.20343ZM8.6897 3.05688C8.6897 2.32844 9.28022 1.73792 10.0087 1.73792C10.7371 1.73792 11.3276 2.32844 11.3276 3.05688C11.3276 3.78532 10.7371 4.37585 10.0087 4.37585C9.28022 4.37585 8.6897 3.78532 8.6897 3.05688Z" fill="#EEEEEE"/>
<path fill-rule="evenodd" clip-rule="evenodd" d="M6.79824 10.0686C7.00726 9.99033 7.23511 9.97742 7.45163 10.0316C7.59104 10.0664 7.72152 10.128 7.83617 10.2121C7.95083 10.128 8.0813 10.0664 8.22071 10.0316C8.43723 9.97742 8.66509 9.99033 8.87411 10.0686C9.08313 10.1468 9.26347 10.2867 9.39124 10.4697C9.47825 10.5943 9.53809 10.7349 9.56787 10.8824C9.78152 10.9241 9.97974 11.0286 10.1359 11.1847C10.3424 11.3912 10.4584 11.6712 10.4586 11.9631C10.4596 12.1577 10.4079 12.349 10.309 12.5166L9.90807 12.2799C9.96434 12.1846 9.99372 12.0758 9.99307 11.9651L9.99307 11.9638C9.99307 11.795 9.92604 11.6332 9.80673 11.5139C9.68742 11.3946 9.52559 11.3276 9.35686 11.3276C9.2289 11.3276 9.12493 11.2243 9.12411 11.0963C9.12328 10.9674 9.08333 10.8418 9.00955 10.7362C8.93577 10.6305 8.83163 10.5497 8.71093 10.5045C8.59023 10.4594 8.45865 10.4519 8.33361 10.4832C8.20858 10.5144 8.09599 10.5829 8.01075 10.6796C7.96656 10.7297 7.90298 10.7584 7.83617 10.7584C7.76937 10.7584 7.70578 10.7297 7.6616 10.6796C7.57636 10.5829 7.46376 10.5144 7.33873 10.4832C7.2137 10.4519 7.08212 10.4594 6.96142 10.5045C6.84071 10.5497 6.73658 10.6305 6.6628 10.7362C6.58901 10.8418 6.54906 10.9674 6.54824 11.0963C6.54742 11.2243 6.44345 11.3276 6.31548 11.3276C6.14675 11.3276 5.98493 11.3946 5.86562 11.5139C5.74631 11.6332 5.67928 11.795 5.67928 11.9638V11.9651H5.67927C5.67863 12.0758 5.708 12.1846 5.76427 12.2799L5.36338 12.5166C5.26445 12.349 5.21275 12.1577 5.21376 11.9631C5.21394 11.6711 5.32999 11.3912 5.53645 11.1847C5.69261 11.0286 5.89083 10.9241 6.10448 10.8824C6.13425 10.7349 6.19409 10.5943 6.28111 10.4697C6.40888 10.2867 6.58921 10.1468 6.79824 10.0686ZM5.21376 11.9631C5.21376 11.9629 5.21376 11.9626 5.21376 11.9624L5.44651 11.9638H5.21376C5.21376 11.9635 5.21376 11.9633 5.21376 11.9631ZM10.4586 11.9631C10.4586 11.9633 10.4586 11.9636 10.4586 11.9638H10.2258L10.4586 11.9624C10.4586 11.9627 10.4586 11.9629 10.4586 11.9631Z" fill="#261C2C"/>
<path fill-rule="evenodd" clip-rule="evenodd" d="M10.8276 10.0316C11.0442 9.97742 11.272 9.99033 11.481 10.0686C11.6901 10.1468 11.8704 10.2867 11.9982 10.4697C12.0852 10.5943 12.145 10.7349 12.1748 10.8824C12.3885 10.9241 12.5867 11.0286 12.7428 11.1847C12.9493 11.3912 13.0653 11.6712 13.0655 11.9631C13.0665 12.1577 13.0148 12.349 12.9159 12.5166L12.515 12.2799C12.5713 12.1846 12.6006 12.0758 12.6 11.9651L12.6 11.9638C12.6 11.795 12.533 11.6332 12.4137 11.5139C12.2943 11.3946 12.1325 11.3276 11.9638 11.3276C11.8358 11.3276 11.7319 11.2243 11.731 11.0963C11.7302 10.9674 11.6903 10.8418 11.6165 10.7362C11.5427 10.6305 11.4386 10.5497 11.3179 10.5045C11.1972 10.4594 11.0656 10.4519 10.9405 10.4832C10.8155 10.5144 10.7029 10.5829 10.6177 10.6796C10.5735 10.7297 10.5099 10.7584 10.4431 10.7584C10.3763 10.7584 10.3127 10.7297 10.2685 10.6796C10.2088 10.6119 10.1354 10.5577 10.0531 10.5205C9.97087 10.4834 9.88164 10.4642 9.79138 10.4642C9.70112 10.4642 9.61189 10.4834 9.52962 10.5205C9.44735 10.5577 9.37393 10.6119 9.31423 10.6796L8.96509 10.3717C9.06848 10.2544 9.19563 10.1606 9.33809 10.0962C9.48055 10.0319 9.63507 9.99868 9.79138 9.99868C9.94769 9.99868 10.1022 10.0319 10.2447 10.0962C10.3149 10.1279 10.3813 10.1668 10.4431 10.2121C10.5578 10.128 10.6882 10.0664 10.8276 10.0316ZM13.0655 11.9631C13.0655 11.9633 13.0655 11.9636 13.0655 11.9638H12.8328L13.0655 11.9624C13.0655 11.9627 13.0655 11.9629 13.0655 11.9631Z" fill="#261C2C"/>
</svg>
