<svg width="24" height="25" viewBox="0 0 24 25" fill="none" xmlns="http://www.w3.org/2000/svg">
<path d="M13.7655 24.9424C19.4178 24.9424 24 20.3602 24 14.7079C24 9.05549 19.4178 4.47333 13.7655 4.47333C8.11307 4.47333 3.53091 9.05549 3.53091 14.7079C3.53091 20.3602 8.11307 24.9424 13.7655 24.9424Z" fill="#FFD66B"/>
<path d="M16.2218 0.993591C13.1002 0.993591 10.5928 3.50105 10.5928 6.62259C10.5928 9.74412 13.1002 12.2516 16.2218 12.2516C19.3433 12.2516 21.8508 9.74412 21.8508 6.62259C21.8508 3.50105 19.2921 0.993591 16.2218 0.993591ZM16.2218 11.484C13.5608 11.484 11.3604 9.28357 11.3604 6.62259C11.3604 3.96161 13.5608 1.76118 16.2218 1.76118C18.8827 1.76118 21.0832 3.96161 21.0832 6.62259C21.0832 9.28357 18.8827 11.484 16.2218 11.484Z" fill="#384A66"/>
<path d="M19.0362 7.85076L18.3198 7.44138C18.4222 7.18552 18.4733 6.92966 18.4733 6.62262C18.4733 6.36676 18.4222 6.05972 18.3198 5.80386L19.0362 5.39447L19.2409 5.80386L19.9062 5.39447L19.0874 3.91047L18.4222 4.31985L18.678 4.7804L17.9616 5.18978C17.6034 4.7804 17.1429 4.47337 16.58 4.37102V3.55226H17.0405V2.78467H15.3518V3.55226H15.8124V4.37102C15.2495 4.47337 14.7889 4.7804 14.4307 5.18978L13.7143 4.7804L13.919 4.37102L13.2537 3.96164L12.435 5.44565L13.1002 5.85503L13.3049 5.44565L14.0213 5.85503C13.919 6.11089 13.8678 6.36676 13.8678 6.67379C13.8678 6.92966 13.919 7.23669 14.0213 7.49256L13.3561 7.85076L13.1514 7.44138L12.4861 7.85076L13.3049 9.33477L13.9701 8.92539L13.7655 8.51601L14.4819 8.10663C14.8401 8.51601 15.3006 8.82304 15.8635 8.92539V9.74415H15.403V10.5117H17.0917V9.74415H16.6311V8.87422C17.194 8.77187 17.6546 8.46484 18.0128 8.05545L18.7292 8.46484L18.5245 8.87422L19.1898 9.2836L20.0085 7.79959L19.3433 7.39021L19.0362 7.85076ZM16.2217 8.1578C15.403 8.1578 14.6866 7.49256 14.6866 6.62262C14.6866 5.75268 15.3518 5.08744 16.2217 5.08744C17.0405 5.08744 17.7569 5.75268 17.7569 6.62262C17.7569 7.49256 17.0405 8.1578 16.2217 8.1578Z" fill="#384A66"/>
<path d="M9.9275 22.9467L10.1322 18.2388L17.1429 21.0533L21.5949 17.3689C21.7484 17.2665 21.7996 17.113 21.7484 16.9083C21.6972 16.7036 21.5949 16.6013 21.4414 16.5501L19.1898 15.629L16.1706 17.2665C15.71 17.0107 14.5842 16.3454 13.2026 15.5778L15.6077 13.3774L12.7932 12.2004L8.49467 12.968C7.16418 12.2516 6.03838 11.6887 5.47548 11.4328C2.09808 10.0512 0.153518 12.3028 0.153518 12.3539L0 12.5075L0.0511727 12.7121C0.0511727 12.7633 0.5629 14.2985 2.91684 15.2708L4.86141 16.0895L6.60128 21.6162L9.9275 22.9467ZM12.742 13.0192L14.226 13.6333L12.4861 15.2196C11.565 14.7079 10.5416 14.145 9.56929 13.5821L12.742 13.0192ZM0.921108 12.7121C1.17697 12.5075 1.6887 12.0981 2.50746 11.8934C2.66098 12.2516 2.96802 12.8657 3.68443 13.275L4.09382 12.6098C3.68443 12.3539 3.42857 12.0469 3.32623 11.791C3.88912 11.791 4.5032 11.8934 5.21961 12.2004C7.113 12.968 15.9147 18.0341 15.9659 18.0853L16.1706 18.1876L19.2409 16.5501L20.7249 17.0618L16.9893 20.1834L3.27505 14.5544C1.73987 13.8891 1.1258 13.0704 0.921108 12.7121ZM9.41578 17.8806L9.26226 21.8209L7.3177 21.0533L5.88486 16.4478L9.41578 17.8806Z" fill="#384A66"/>
</svg>
