<svg width="14" height="11" viewBox="0 0 14 11" fill="none" xmlns="http://www.w3.org/2000/svg">
<path fill-rule="evenodd" clip-rule="evenodd" d="M1.8 1.2C1.47137 1.2 1.2 1.47137 1.2 1.8V9C1.2 9.32863 1.47137 9.6 1.8 9.6H11.4C11.7286 9.6 12 9.32863 12 9V1.8C12 1.47137 11.7286 1.2 11.4 1.2H1.8ZM0 1.8C0 0.808629 0.808629 0 1.8 0H11.4C12.3914 0 13.2 0.808629 13.2 1.8V9C13.2 9.99137 12.3914 10.8 11.4 10.8H1.8C0.808629 10.8 0 9.99137 0 9V1.8Z" fill="#2F2E41"/>
<path fill-rule="evenodd" clip-rule="evenodd" d="M0.108512 1.45593C0.298541 1.18446 0.672659 1.11843 0.944129 1.30846L6.60005 5.26761L12.256 1.30846C12.5274 1.11843 12.9016 1.18446 13.0916 1.45593C13.2816 1.72739 13.2156 2.10151 12.9441 2.29154L6.94413 6.49154C6.73754 6.63616 6.46257 6.63616 6.25597 6.49154L0.255974 2.29154C-0.0154954 2.10151 -0.0815164 1.72739 0.108512 1.45593Z" fill="#2F2E41"/>
</svg>
