<svg width="22" height="27" viewBox="0 0 22 27" fill="none" xmlns="http://www.w3.org/2000/svg">
<path d="M20.7983 13.9455C18.6915 13.4774 17.22 11.6431 17.22 9.48487V6.53228C17.22 2.93038 14.2896 0 10.6877 0C7.08578 0 4.1554 2.93038 4.1554 6.53228V9.48487C4.1554 11.6431 2.68389 13.4774 0.577018 13.9455L0 14.074L0.523018 14.9885C1.27205 16.2998 2.50709 17.2413 3.9259 17.6411L8.51025 16.1129V14.8065H8.79244C7.5892 14.2234 6.69384 13.1042 6.42036 11.7581H6.33282C5.37084 11.7581 4.59088 10.9781 4.59088 10.0162C4.59088 9.05417 5.37084 8.27422 6.33282 8.27422V7.40325H7.20379C8.5747 7.40325 9.86504 6.75786 10.6877 5.66131C11.5103 6.75786 12.8006 7.40325 14.1716 7.40325H15.0425V8.27422C16.0045 8.27422 16.7845 9.05417 16.7845 10.0162C16.7845 10.9781 16.0045 11.7581 15.0425 11.7581H14.955C14.6815 13.1042 13.7862 14.2234 12.5829 14.8065H12.8651V16.1129L17.4495 17.6411C18.8683 17.2413 20.1033 16.2998 20.8523 14.9885L21.3754 14.074L20.7983 13.9455Z" fill="#F14A4A"/>
<path d="M17.7486 17.2817L13.3006 15.7989V14.8966C14.263 14.2673 14.9833 13.3014 15.299 12.1674C16.3777 12.0389 17.2199 11.1288 17.2199 10.0161C17.2199 8.96485 16.4705 8.08517 15.478 7.88267V6.53223H14.607V6.96771H14.1715C12.9444 6.96771 11.7725 6.38155 11.0361 5.39997L10.6877 4.9353L10.3393 5.39997C9.60287 6.38155 8.43098 6.96771 7.20379 6.96771H6.7683V6.53223H5.89733V7.88267C4.90486 8.08517 4.15539 8.96441 4.15539 10.0161C4.15539 11.1288 4.99762 12.0389 6.07632 12.1674C6.39161 13.3018 7.11234 14.2673 8.07476 14.8966V15.7989L3.62671 17.2813C2.37992 17.6972 1.54248 18.8595 1.54248 20.1738V27H5.46185H6.33282H19.8329V20.1738C19.8329 18.8595 18.9954 17.6972 17.7486 17.2817ZM16.349 10.0161C16.349 10.5896 15.9749 11.073 15.4597 11.2481C15.4689 11.1283 15.478 11.009 15.478 10.8871V8.78978C15.9836 8.97007 16.349 9.44911 16.349 10.0161ZM5.02636 10.0161C5.02636 9.44911 5.39173 8.97007 5.89733 8.78978V10.8871C5.89733 11.009 5.90648 11.1283 5.91562 11.2481C5.40044 11.073 5.02636 10.5896 5.02636 10.0161ZM6.7683 10.8871V7.83868H7.20379C8.52244 7.83868 9.78926 7.28474 10.6877 6.33539C11.5861 7.28474 12.8529 7.83868 14.1715 7.83868H14.607V10.8871C14.607 13.048 12.8485 14.8064 10.6877 14.8064C8.52679 14.8064 6.7683 13.048 6.7683 10.8871ZM10.6877 15.6774C11.3026 15.6774 11.8887 15.5568 12.4296 15.3447V16.0284C12.3351 16.2357 11.9105 16.9839 10.6877 16.9839C9.47484 16.9839 9.04502 16.2422 8.94573 16.0275V15.3447C9.4866 15.5568 10.0728 15.6774 10.6877 15.6774ZM8.29381 16.6442C8.59298 17.1197 9.28236 17.8548 10.6877 17.8548C12.093 17.8548 12.7824 17.1197 13.0815 16.6442L13.6381 16.8297L12.9343 19.2928L10.6877 20.4164L8.441 19.2928L7.73726 16.8297L8.29381 16.6442ZM2.41345 26.1291V20.1738C2.41345 19.2349 3.01181 18.4049 3.90237 18.1079L4.68451 17.847L5.41525 20.7695L5.08907 21.0957C4.48679 21.6976 4.15539 22.4984 4.15539 23.3498C4.15539 24.3719 4.64139 25.3238 5.46185 25.9231V26.1291H2.41345ZM6.05803 25.2772C5.41177 24.8466 5.02636 24.1258 5.02636 23.3498C5.02636 22.731 5.26718 22.1492 5.70485 21.7115L6.37941 21.0369L5.5128 17.5709L6.9094 17.1054L7.70808 19.9007L10.6877 21.3901L13.6668 19.9007L14.4655 17.1054L15.7619 17.5374L14.9959 20.601L15.6705 21.2756C16.1082 21.7137 16.349 22.2955 16.349 22.9143C16.349 23.6908 15.9636 24.4115 15.3173 24.8418L15.0425 25.0251V26.1291H6.33282V25.4606L6.05803 25.2772ZM18.9619 26.1291H15.9135V25.4876C16.7339 24.8884 17.2199 23.9364 17.2199 22.9143C17.2199 22.0629 16.8885 21.2625 16.2863 20.6602L15.9601 20.3341L16.5902 17.8135L17.473 18.1079C18.3635 18.4049 18.9619 19.2349 18.9619 20.1738V26.1291Z" fill="#261C2C"/>
<path d="M8.51031 9.58044C8.75083 9.58044 8.9458 9.38547 8.9458 9.14496C8.9458 8.90445 8.75083 8.70947 8.51031 8.70947C8.2698 8.70947 8.07483 8.90445 8.07483 9.14496C8.07483 9.38547 8.2698 9.58044 8.51031 9.58044Z" fill="#261C2C"/>
<path d="M12.8651 9.58044C13.1056 9.58044 13.3005 9.38547 13.3005 9.14496C13.3005 8.90445 13.1056 8.70947 12.8651 8.70947C12.6245 8.70947 12.4296 8.90445 12.4296 9.14496C12.4296 9.38547 12.6245 9.58044 12.8651 9.58044Z" fill="#261C2C"/>
<path d="M12.4297 11.7581H11.5587C11.5587 12.2384 11.1681 12.629 10.6877 12.629C10.2074 12.629 9.81677 12.2384 9.81677 11.7581H8.9458C8.9458 12.7187 9.72706 13.5 10.6877 13.5C11.6484 13.5 12.4297 12.7187 12.4297 11.7581Z" fill="#261C2C"/>
<path d="M10.6876 19.597C9.96727 19.597 9.3811 19.0109 9.3811 18.2906C9.3811 17.5703 9.96727 16.9841 10.6876 16.9841C11.4079 16.9841 11.994 17.5703 11.994 18.2906C11.994 19.0109 11.4079 19.597 10.6876 19.597Z" fill="#F14A4A"/>
</svg>
