<svg width="18" height="17" viewBox="0 0 18 17" fill="none" xmlns="http://www.w3.org/2000/svg">
<path fill-rule="evenodd" clip-rule="evenodd" d="M14.7582 0.0739653C14.498 -0.0783004 14.1653 0.0120649 14.0151 0.275789L12.3513 3.1976C11.2178 2.66703 10.0445 2.39575 8.85674 2.39575C5.66539 2.39575 2.57816 4.35543 0.0886325 8.03944L0.0787588 8.05392L0.0701229 8.06643C-0.0128019 8.18516 -0.0149187 8.32477 0.0697081 8.44213C1.90676 11.1708 4.07148 12.958 6.364 13.7091L5.03864 16.035C4.8884 16.2987 4.97755 16.6359 5.23774 16.7882L5.47331 16.926C5.7335 17.0783 6.0662 16.988 6.21644 16.7242L15.1929 0.965038C15.3431 0.701313 15.254 0.364094 14.9937 0.211822L14.7582 0.0739653ZM11.6296 4.46464C10.7071 4.05847 9.77556 3.86049 8.85674 3.86049C6.53794 3.86049 4.13751 5.12156 2.00566 7.8081C1.801 8.06603 1.801 8.442 2.00566 8.69992C3.60368 10.7138 5.35258 11.927 7.10493 12.4084L8.02123 10.7996C6.9745 10.4657 6.10895 9.53449 6.10895 8.25547C6.10895 6.63762 7.34898 5.32595 8.87837 5.32595C9.58434 5.32595 10.2286 5.60543 10.7178 6.06546L11.6296 4.46464ZM9.96161 7.39317C9.72606 7.02801 9.3388 6.79069 8.87837 6.79069C8.11303 6.79069 7.48709 7.44546 7.48709 8.25439C7.48709 8.789 8.06046 9.41372 8.78072 9.46628L9.96161 7.39317Z" fill="#8A858D"/>
<path d="M9.31433 14.0996C12.3361 13.9219 15.2428 11.9866 17.6097 8.49295C17.6593 8.41978 17.687 8.3441 17.687 8.25407C17.687 8.16825 17.6632 8.09658 17.616 8.02681C16.7063 6.6819 15.7167 5.56749 14.6713 4.69485L13.9511 5.9594C14.5513 6.47627 15.1391 7.09147 15.7078 7.80812C15.9124 8.06605 15.9124 8.44202 15.7078 8.69994C13.9929 10.8611 12.1044 12.1001 10.2242 12.5022L9.31433 14.0996Z" fill="#8A858D"/>
</svg>
