<svg width="306" height="243" viewBox="0 0 306 243" fill="none" xmlns="http://www.w3.org/2000/svg">
<path opacity="0.1" d="M20.8238 88.1878H47.3182V124.259H22.761C22.6984 124.631 22.6357 125.002 22.5652 125.375H47.3182V154.46C47.2765 154.46 47.2347 154.428 47.1955 154.413C46.4993 154.136 45.8031 153.843 45.1069 153.534C44.9581 153.466 44.8119 153.396 44.6604 153.33C43.9642 153.002 43.268 152.654 42.5718 152.287C42.329 152.16 42.0862 152.027 41.8486 151.891C37.9835 149.737 34.4706 147.006 31.4315 143.792C31.3401 143.706 31.2566 143.612 31.1704 143.531C30.7475 143.072 30.3324 142.608 29.9303 142.134C29.7789 141.959 29.6327 141.781 29.4838 141.612C29.0087 141.033 28.5492 140.433 28.1053 139.831C28.0375 139.74 27.9748 139.651 27.9095 139.57C26.0914 137.057 24.5836 134.335 23.4189 131.461C23.3824 131.375 23.3485 131.281 23.3145 131.2C22.9542 130.287 22.6279 129.362 22.3459 128.418C22.2258 128.024 22.1083 127.635 22.0091 127.226C21.9726 127.109 21.9438 126.989 21.9125 126.871C20.4452 121.095 20.2755 115.093 20.2755 109.119C20.2755 108.423 20.2755 107.728 20.2755 107.033C20.2964 104.594 20.3251 102.157 20.3617 99.7237C20.3756 99.0979 20.3887 98.4695 20.4009 97.8384C20.4374 96.2409 20.4896 94.6398 20.5575 93.0353C20.5732 92.592 20.5941 92.1461 20.6176 91.7054C20.628 91.4498 20.6411 91.1943 20.6567 90.9388C20.7037 90.0157 20.7594 89.0987 20.8238 88.1878Z" fill="#6C63FF"/>
<path d="M47.3182 48.0257H32.7839C35.1476 44.3347 37.729 40.7873 40.5145 37.4024C42.6762 34.7531 44.9528 32.1716 47.3182 29.6839V48.0257Z" fill="#9DDFD3"/>
<path d="M47.3182 49.1365V87.0717H20.9073C20.9073 86.9622 20.923 86.8501 20.9335 86.7405C20.957 86.4407 20.9805 86.1434 21.0066 85.8435C21.0327 85.4941 21.0666 85.1447 21.1005 84.8005C21.1345 84.4563 21.1684 84.0391 21.2102 83.661C21.252 83.2829 21.2859 82.8996 21.3277 82.5215C21.3695 82.1434 21.4112 81.7653 21.4582 81.3898C21.5052 81.0143 21.547 80.6336 21.5992 80.2581C21.6384 79.9478 21.6775 79.6349 21.7219 79.322C21.782 78.8813 21.8446 78.4406 21.9099 78.0025C21.9099 77.9347 21.9308 77.8695 21.9412 77.8044C22.4184 74.5978 23.0668 71.4189 23.8837 68.2814C24.7415 64.9907 25.8365 61.7663 27.1602 58.6334C28.5668 55.3508 30.2143 52.1765 32.0894 49.1365H47.3182Z" fill="#9DDFD3"/>
<path d="M53.6469 88.1878V124.259H110.239V88.1878H53.6469ZM53.6469 125.375V156.353C53.9706 156.418 54.2891 156.483 54.6102 156.538C55.041 156.621 55.4744 156.697 55.9156 156.762L56.1767 156.799C56.349 156.827 56.524 156.851 56.6989 156.872C57.1349 156.934 57.5709 156.981 58.0043 157.023C58.2079 157.044 58.4194 157.059 58.6257 157.078L59.1295 157.114C59.4037 157.135 59.6752 157.151 59.9467 157.161C60.1138 157.161 60.2809 157.174 60.4506 157.179C60.6203 157.185 60.7117 157.179 60.8474 157.179H61.3409C61.5654 157.179 61.7899 157.179 62.0119 157.179H62.299C62.5236 157.179 62.7481 157.179 62.97 157.158H62.9831C63.1397 157.158 63.2938 157.158 63.4504 157.14C63.4948 157.143 63.5392 157.143 63.5836 157.14C63.7141 157.14 63.8446 157.14 63.97 157.125C63.9995 157.122 64.0292 157.122 64.0587 157.125C64.3485 157.106 64.6409 157.083 64.936 157.057C65.231 157.031 65.5103 156.999 65.8054 156.968L66.398 156.895C68.8198 156.556 71.2146 156.048 73.5647 155.372C78.8463 153.902 84.0079 151.844 89.2869 150.34C96.1063 148.397 103.646 147.44 110.236 149.805V125.375H53.6469ZM110.239 48.0257V0.00439552C104.043 -0.0636812 97.865 0.659261 91.8533 2.15565C77.5226 5.75152 64.654 13.5508 53.6469 23.5118V48.0231H56.4952V49.1366H53.6469V87.0717H110.239V49.1366H68.1472V48.0205L110.239 48.0257ZM182.944 31.8039C179.399 31.6788 175.874 30.5601 172.684 28.8261C166.59 25.517 161.718 20.4009 156.277 16.088C144.973 7.09964 130.953 1.67325 116.57 0.327736V48.0257H197.351L197.552 47.8145L182.944 31.8039ZM190.304 30.5001L198.108 39.0556V28.2498C195.481 28.5809 193.194 29.3502 190.304 30.4897V30.5001ZM198.108 164.045V125.375H181.466C181.425 125.21 181.378 125.043 181.326 124.877C181.375 125.043 181.419 125.21 181.464 125.375H116.57V153.338C117.186 153.795 117.794 154.277 118.397 154.762C119.048 155.294 119.695 155.832 120.337 156.376L120.985 156.911C121.295 157.171 121.611 157.432 121.925 157.68C122.553 158.186 123.186 158.686 123.823 159.182C124.141 159.432 124.461 159.678 124.783 159.92C129.883 163.812 135.262 167.326 140.876 170.431C142.135 171.132 143.406 171.808 144.686 172.468C145.537 172.906 146.394 173.335 147.257 173.756C148.552 174.387 149.858 174.995 151.173 175.581C163.305 181.02 176.133 184.751 189.291 186.669C192.212 187.098 195.145 187.437 198.092 187.685V164.04H198.353L198.108 164.045ZM116.57 49.1366V87.0717H198.108V49.1366H116.57ZM116.57 88.1826V124.259H198.108V88.1878L116.57 88.1826ZM204.436 28.1976V40.2708L214.394 29.3528C211.094 28.8087 207.775 28.4236 204.436 28.1976ZM204.436 88.1878V124.259H283.739V88.1878H204.436ZM283.46 166.906L283.739 125.375H204.436V188.105C209.544 188.317 214.66 188.256 219.762 187.92H219.85C222.287 187.764 224.713 187.541 227.127 187.253H227.182C240.065 185.755 252.661 182.394 264.576 177.276L283.46 166.906ZM299.039 94.1122C298.738 93.4169 298.429 92.7215 298.112 92.0261C297.522 90.7223 296.9 89.4551 296.258 88.1904H290.071V124.259H305.712C305.699 114.042 303.109 103.612 299.039 94.1122ZM290.071 125.375V161.099C294.475 156.882 298.201 152.055 300.879 146.538C304.104 139.891 305.579 132.699 305.702 125.372L290.071 125.375ZM290.071 77.6766V87.0639H295.679C293.979 83.8369 292.107 80.7033 290.071 77.6766ZM236.288 35.2772C235.876 35.1182 235.46 34.9591 235.045 34.8079C230.668 33.1922 226.195 31.8493 221.652 30.787L206.41 47.4912L206.112 47.8119L206.308 48.0231H260.556C253 42.8304 244.854 38.5518 236.288 35.2772ZM262.148 49.1366H205.549L204.436 50.1509V87.0717H214.188H283.739V69.1837C277.45 61.5876 270.191 54.8478 262.148 49.1366Z" fill="#9DDFD3"/>
<path d="M47.3182 68.2737V87.0717H20.9073C20.9073 86.9622 20.923 86.8501 20.9335 86.7406C20.957 86.4407 20.9805 86.1434 21.0066 85.8436C21.0327 85.4941 21.0666 85.1447 21.1005 84.8005C21.1345 84.4563 21.1684 84.0391 21.2102 83.661C21.252 83.2829 21.2859 82.8996 21.3277 82.5215C21.3695 82.1434 21.4112 81.7653 21.4582 81.3898C21.5052 81.0143 21.547 80.6336 21.5992 80.2581C21.6384 79.9478 21.6775 79.6349 21.7219 79.322C21.782 78.8813 21.8446 78.4406 21.9099 78.0026C21.9099 77.9348 21.9308 77.8696 21.9412 77.8044C22.4184 74.5978 23.0668 71.4189 23.8837 68.2815L47.3182 68.2737Z" fill="#9DDFD3"/>
<path d="M20.8238 88.1878H47.3182V124.259H22.761C22.6984 124.631 22.6357 125.002 22.5652 125.375H47.3182V154.46C47.2765 154.46 47.2347 154.428 47.1955 154.413C46.4993 154.136 45.8031 153.843 45.1069 153.534C44.9581 153.466 44.8119 153.396 44.6604 153.33C43.9642 153.002 43.268 152.654 42.5718 152.287C42.329 152.16 42.0862 152.027 41.8486 151.891C37.9835 149.737 34.4706 147.006 31.4315 143.792C31.3401 143.706 31.2566 143.612 31.1704 143.531C30.7475 143.072 30.3324 142.608 29.9303 142.134C29.7789 141.959 29.6327 141.781 29.4838 141.612C29.0087 141.033 28.5492 140.433 28.1053 139.831C28.0375 139.74 27.9748 139.651 27.9095 139.57C26.0914 137.057 24.5836 134.335 23.4189 131.461C23.3824 131.375 23.3485 131.281 23.3145 131.2C22.9542 130.287 22.6279 129.362 22.3459 128.418C22.2258 128.024 22.1083 127.635 22.0091 127.226C21.9726 127.109 21.9438 126.989 21.9125 126.871C20.4452 121.095 20.2755 115.093 20.2755 109.119C20.2755 108.423 20.2755 107.728 20.2755 107.033C20.2964 104.594 20.3251 102.157 20.3617 99.7237C20.3756 99.0979 20.3887 98.4695 20.4009 97.8384C20.4374 96.2409 20.4896 94.6398 20.5575 93.0353C20.5732 92.592 20.5941 92.1461 20.6176 91.7054C20.628 91.4498 20.6411 91.1943 20.6567 90.9388C20.7037 90.0157 20.7594 89.0987 20.8238 88.1878Z" fill="#9DDFD3"/>
<path opacity="0.1" d="M73.5673 54.5708V87.0717H53.6442V54.5708H56.4848V43.5667H68.1446V54.5708H73.5673Z" fill="#6C63FF"/>
<path opacity="0.1" d="M73.5646 88.1852H53.6442V124.256H73.5646V88.1852Z" fill="#6C63FF"/>
<path opacity="0.1" d="M53.6469 125.375H73.5673V155.362C71.2175 156.038 68.8225 156.546 66.4006 156.882C66.2022 156.911 66.0064 156.934 65.808 156.955C65.5156 156.989 65.2257 157.02 64.9359 157.046L64.0613 157.117H63.9726L63.5862 157.138H63.453C63.2964 157.138 63.1423 157.156 62.9857 157.158H62.9726C62.7481 157.158 62.5262 157.174 62.3017 157.179H62.0145C61.7925 157.179 61.5706 157.179 61.3435 157.179H60.8527H60.4532C60.2835 157.179 60.1164 157.179 59.9467 157.158C59.6787 157.148 59.4071 157.132 59.1321 157.112L58.6283 157.075C58.4194 157.059 58.2105 157.038 58.0043 157.018C57.5657 156.979 57.1305 156.93 56.6989 156.869L56.1767 156.796L55.9156 156.759C55.4796 156.694 55.0462 156.621 54.6102 156.538C54.2865 156.48 53.968 156.415 53.6469 156.347V125.375Z" fill="#6C63FF"/>
<path opacity="0.1" d="M198.105 50.7324H181.678V87.0691H198.105V50.7324Z" fill="#6C63FF"/>
<path opacity="0.1" d="M198.108 88.1852V124.259H116.57V108.699H160V117.878H181.678V88.1852H198.108Z" fill="#6C63FF"/>
<path opacity="0.1" d="M198.366 164.053C198.28 164.053 198.194 164.053 198.105 164.037V187.701C195.162 187.459 192.229 187.121 189.307 186.687C176.144 184.77 163.311 181.041 151.173 175.605C147.67 174.026 144.237 172.306 140.876 170.444C135.263 167.337 129.886 163.824 124.786 159.933C123.501 158.952 122.236 157.95 120.99 156.926C120.126 156.212 119.269 155.482 118.397 154.775C117.797 154.288 117.188 153.805 116.57 153.346V125.375H181.464C181.417 125.208 181.375 125.043 181.328 124.877C181.378 125.043 181.425 125.208 181.466 125.375H198.108V164.035C198.194 164.037 198.28 164.045 198.366 164.053Z" fill="#6C63FF"/>
<path opacity="0.1" d="M240.951 48.0257H230.247V44.7037H235.043V34.8079C235.459 34.9608 235.873 35.1173 236.285 35.2772V44.7037H240.948L240.951 48.0257Z" fill="#6C63FF"/>
<path opacity="0.1" d="M266.743 87.0717H214.188C214.193 87.0729 214.198 87.0729 214.203 87.0717H214.18H204.436V50.735H207.199V77.5931H219.819V61.6869H230.249V49.1365H240.954V61.6947H251.379V77.601H266.746L266.743 87.0717Z" fill="#6C63FF"/>
<path opacity="0.1" d="M204.436 88.1878V124.259H266.746V88.1878H204.436ZM283.651 166.715L283.739 138.162H266.746V125.385H204.436V188.105C209.544 188.317 214.66 188.256 219.762 187.92H219.85C222.287 187.764 224.713 187.541 227.127 187.253H227.182C240.065 185.755 252.661 182.394 264.576 177.276" fill="#6C63FF"/>
<path opacity="0.1" d="M291.167 125.375H305.701C305.576 132.699 304.104 139.894 300.879 146.538C298.201 152.058 294.475 156.885 290.071 161.101V138.154H291.167V125.375Z" fill="#6C63FF"/>
<path opacity="0.1" d="M305.712 124.259H291.167V94.1122H299.039C303.109 103.612 305.699 114.042 305.712 124.259Z" fill="#6C63FF"/>
<path opacity="0.1" d="M198.108 60.8342H189.307V72.2267H198.108V60.8342Z" fill="#6C63FF"/>
<path opacity="0.1" d="M198.108 84.4485H189.307V87.0717H198.108V84.4485Z" fill="#6C63FF"/>
<path opacity="0.1" d="M198.108 88.1852H189.307V95.8384H198.108V88.1852Z" fill="#6C63FF"/>
<path opacity="0.1" d="M198.108 108.063H189.307V119.455H198.108V108.063Z" fill="#6C63FF"/>
<path opacity="0.1" d="M198.108 131.677H189.307V143.07H198.108V131.677Z" fill="#6C63FF"/>
<path opacity="0.1" d="M198.108 164.035C198.194 164.035 198.28 164.035 198.369 164.053C198.283 164.053 198.196 164.053 198.108 164.037V166.684H189.307V155.291H198.108V164.035Z" fill="#6C63FF"/>
<path opacity="0.1" d="M198.108 178.903V187.701C195.163 187.459 192.229 187.121 189.307 186.687V178.903H198.108Z" fill="#6C63FF"/>
<path opacity="0.1" d="M154.288 123.422H116.57V124.259H154.288V123.422Z" fill="#6C63FF"/>
<path opacity="0.1" d="M154.288 125.372H116.57V128.579H154.288V125.372Z" fill="#6C63FF"/>
<path opacity="0.1" d="M154.288 139.093H116.57V144.251H154.288V139.093Z" fill="#6C63FF"/>
<path opacity="0.1" d="M154.288 154.765V159.922H124.786C123.501 158.946 122.236 157.942 120.99 156.913C120.123 156.201 119.267 155.471 118.397 154.765H154.288Z" fill="#6C63FF"/>
<path opacity="0.1" d="M154.288 170.434V175.605H151.173C147.67 174.026 144.237 172.306 140.876 170.444L154.288 170.434Z" fill="#6C63FF"/>
<path opacity="0.1" d="M227.187 91.6819H219.762V99.0979H227.187V91.6819Z" fill="#6C63FF"/>
<path opacity="0.1" d="M66.4189 57.1288H58.9937V64.5448H66.4189V57.1288Z" fill="#6C63FF"/>
<path opacity="0.1" d="M66.4189 74.3545H58.9937V81.7705H66.4189V74.3545Z" fill="#6C63FF"/>
<path opacity="0.1" d="M66.4189 91.5802H58.9937V98.9962H66.4189V91.5802Z" fill="#6C63FF"/>
<path opacity="0.1" d="M66.4189 108.803H58.9937V116.219H66.4189V108.803Z" fill="#6C63FF"/>
<path opacity="0.1" d="M66.4189 126.029H58.9937V133.445H66.4189V126.029Z" fill="#6C63FF"/>
<path opacity="0.1" d="M66.4189 143.255H58.9937V150.671H66.4189V143.255Z" fill="#6C63FF"/>
<path opacity="0.1" d="M255.532 91.6819H248.107V99.0979H255.532V91.6819Z" fill="#6C63FF"/>
<path opacity="0.1" d="M227.187 109.974H219.762V117.39H227.187V109.974Z" fill="#6C63FF"/>
<path opacity="0.1" d="M255.532 109.974H248.107V117.39H255.532V109.974Z" fill="#6C63FF"/>
<path opacity="0.1" d="M227.187 128.264H219.762V135.68H227.187V128.264Z" fill="#6C63FF"/>
<path opacity="0.1" d="M255.532 128.264H248.107V135.68H255.532V128.264Z" fill="#6C63FF"/>
<path opacity="0.1" d="M227.187 146.556H219.762V153.972H227.187V146.556Z" fill="#6C63FF"/>
<path opacity="0.1" d="M255.532 146.556H248.107V153.972H255.532V146.556Z" fill="#6C63FF"/>
<path opacity="0.1" d="M227.187 164.848H219.762V172.264H227.187V164.848Z" fill="#6C63FF"/>
<path opacity="0.1" d="M255.532 164.848H248.107V172.264H255.532V164.848Z" fill="#6C63FF"/>
<path opacity="0.1" d="M219.762 187.92V183.138H227.184V187.24L219.762 187.92Z" fill="#6C63FF"/>
<path opacity="0.1" d="M21.9099 77.7965V82.0391H47.3182V77.7965H21.9099ZM24.4398 81.7731H22.3511V78.0651H24.4398V81.7731ZM26.9696 81.7731H24.881V78.0651H26.9696V81.7731ZM29.4943 81.7731H27.4057V78.0651H29.4943V81.7731ZM32.0242 81.7731H29.9355V78.0651H32.0242V81.7731ZM34.5514 81.7731H32.4628V78.0651H34.5514V81.7731ZM37.0813 81.7731H34.9926V78.0651H37.0813V81.7731ZM39.6112 81.7731H37.5225V78.0651H39.6112V81.7731ZM42.1384 81.7731H40.0498V78.0651H42.1384V81.7731ZM44.6657 81.7731H42.577V78.0651H44.6657V81.7731ZM47.1955 81.7731H45.1069V78.0651H47.1955V81.7731Z" fill="#6C63FF"/>
<path opacity="0.1" d="M21.9099 90.1461V94.3886H47.3182V90.1461H21.9099ZM24.4398 94.1226H22.3511V90.4146H24.4398V94.1226ZM26.9696 94.1226H24.881V90.4146H26.9696V94.1226ZM29.4943 94.1226H27.4057V90.4146H29.4943V94.1226ZM32.0242 94.1226H29.9355V90.4146H32.0242V94.1226ZM34.5514 94.1226H32.4628V90.4146H34.5514V94.1226ZM37.0813 94.1226H34.9926V90.4146H37.0813V94.1226ZM39.6112 94.1226H37.5225V90.4146H39.6112V94.1226ZM42.1384 94.1226H40.0498V90.4146H42.1384V94.1226ZM44.6657 94.1226H42.577V90.4146H44.6657V94.1226ZM47.1955 94.1226H45.1069V90.4146H47.1955V94.1226Z" fill="#6C63FF"/>
<path opacity="0.1" d="M21.9099 102.498V106.738H47.3182V102.498H21.9099ZM24.4398 106.47H22.3511V102.762H24.4398V106.47ZM26.9696 106.47H24.881V102.762H26.9696V106.47ZM29.4943 106.47H27.4057V102.762H29.4943V106.47ZM32.0242 106.47H29.9355V102.762H32.0242V106.47ZM34.5514 106.47H32.4628V102.762H34.5514V106.47ZM37.0813 106.47H34.9926V102.762H37.0813V106.47ZM39.6112 106.47H37.5225V102.762H39.6112V106.47ZM42.1384 106.47H40.0498V102.762H42.1384V106.47ZM44.6657 106.47H42.577V102.762H44.6657V106.47ZM47.1955 106.47H45.1069V102.762H47.1955V106.47Z" fill="#6C63FF"/>
<path opacity="0.1" d="M21.9099 114.848V119.088H47.3182V114.848H21.9099ZM24.4398 118.822H22.3511V115.109H24.4398V118.822ZM26.9696 118.822H24.881V115.109H26.9696V118.822ZM29.4943 118.822H27.4057V115.109H29.4943V118.822ZM32.0242 118.822H29.9355V115.109H32.0242V118.822ZM34.5514 118.822H32.4628V115.109H34.5514V118.822ZM37.0813 118.822H34.9926V115.109H37.0813V118.822ZM39.6112 118.822H37.5225V115.109H39.6112V118.822ZM42.1384 118.822H40.0498V115.109H42.1384V118.822ZM44.6657 118.822H42.577V115.109H44.6657V118.822ZM47.1955 118.822H45.1069V115.109H47.1955V118.822Z" fill="#6C63FF"/>
<path opacity="0.1" d="M22.0326 127.192C22.1318 127.594 22.2493 127.99 22.3694 128.384V127.461H24.4581V131.166H23.338C23.3694 131.255 23.4033 131.346 23.4398 131.427H47.3287V127.192H22.0326ZM26.9931 131.166H24.9045V127.461H26.9931V131.166ZM29.5178 131.166H27.4292V127.461H29.5178V131.166ZM32.0477 131.166H29.959V127.461H32.0477V131.166ZM34.5749 131.166H32.4863V127.461H34.5749V131.166ZM37.1048 131.166H35.0161V127.461H37.1048V131.166ZM39.6347 131.166H37.546V127.461H39.6347V131.166ZM42.1619 131.166H40.0733V127.461H42.1619V131.166ZM44.6892 131.166H42.6005V127.461H44.6892V131.166ZM47.219 131.166H45.1304V127.461H47.219V131.166Z" fill="#6C63FF"/>
<path opacity="0.1" d="M27.9174 139.542C27.9852 139.625 28.0479 139.719 28.1132 139.802H29.4943V141.583L29.9407 142.105V139.792H32.0294V143.531H31.1704C31.254 143.617 31.3349 143.708 31.4315 143.792H47.313V139.542H27.9174ZM34.5645 143.531H32.4758V139.808H34.5645V143.531ZM37.0943 143.531H35.0057V139.808H37.0943V143.531ZM39.6242 143.531H37.5356V139.808H39.6242V143.531ZM42.1514 143.531H40.0628V139.808H42.1514V143.531ZM44.6787 143.531H42.5901V139.808H44.6787V143.531ZM47.2086 143.531H45.1199V139.808H47.2086V143.531Z" fill="#6C63FF"/>
<path opacity="0.1" d="M41.8564 151.891C42.0966 152.027 42.3394 152.152 42.5823 152.285V152.154H44.6709V153.331C44.8223 153.396 44.9659 153.466 45.1147 153.534V152.154H47.2034V154.413C47.2431 154.431 47.2841 154.445 47.3261 154.457V151.891H41.8564Z" fill="#6C63FF"/>
<path opacity="0.1" d="M198.105 164.035H198.366H198.105ZM181.326 124.876C181.375 125.043 181.419 125.21 181.464 125.375C181.425 125.21 181.378 125.043 181.326 124.876ZM56.4952 48.0257V49.1365H68.1577V48.0205L56.4952 48.0257ZM198.108 164.035H198.369H198.108ZM181.326 124.876C181.375 125.043 181.419 125.21 181.464 125.375C181.425 125.21 181.378 125.043 181.326 124.876ZM198.105 164.035H198.366H198.105ZM181.326 124.876C181.375 125.043 181.419 125.21 181.464 125.375C181.425 125.21 181.378 125.043 181.326 124.876Z" fill="#6C63FF"/>
<path opacity="0.1" d="M230.474 225C244.524 225 255.913 223.173 255.913 220.919C255.913 218.665 244.524 216.838 230.474 216.838C216.424 216.838 205.034 218.665 205.034 220.919C205.034 223.173 216.424 225 230.474 225Z" fill="#6C63FF"/>
<path opacity="0.1" d="M115.74 220.919C129.789 220.919 141.179 219.092 141.179 216.838C141.179 214.584 129.789 212.757 115.74 212.757C101.69 212.757 90.2999 214.584 90.2999 216.838C90.2999 219.092 101.69 220.919 115.74 220.919Z" fill="#6C63FF"/>
<path d="M145.027 108.931C145.021 108.905 145.008 108.882 144.988 108.863C144.599 108.48 139.639 101.473 139.639 101.473C139.639 101.473 139.378 100.691 138.955 99.6742C139.09 99.4989 139.192 99.2999 139.255 99.0875C139.278 98.9975 139.294 98.906 139.305 98.8137C139.305 98.785 139.325 98.7615 139.333 98.7329C139.424 98.3792 139.415 98.0074 139.307 97.6585C139.278 97.748 139.242 97.8352 139.2 97.9193C139.102 97.6155 138.971 97.3235 138.809 97.0483C138.151 95.9167 137.211 94.9623 136.519 93.8593C135.471 92.1455 135.055 90.1205 135.341 88.133C135.341 88.2347 135.341 88.339 135.341 88.4407C135.368 88.0465 135.42 87.6545 135.498 87.2673C135.607 86.8265 135.753 86.3956 135.934 85.9791C136.555 84.558 137.561 83.3194 138.172 81.8931C138.377 81.4119 138.532 80.9113 138.636 80.3989C138.852 79.5431 138.93 78.6586 138.869 77.7783C138.869 77.9869 138.835 78.1955 138.803 78.4015C138.737 76.285 137.882 74.2695 136.404 72.7509C134.271 70.61 131.209 69.7782 128.279 69.3401C127.048 69.1967 125.873 68.7485 124.859 68.0363C123.734 67.3088 122.28 67.1341 120.964 67.2932C119.451 67.4565 118.046 68.1504 116.998 69.2515C115.606 70.7795 115.003 72.9438 113.379 74.232C112.395 75.0142 111.147 75.3793 110.001 75.9112C108.855 76.4432 107.771 77.215 107.403 78.3572C107.403 78.3572 107.403 78.3415 107.403 78.3337V78.3989L107.388 78.4406C107.006 79.7913 107.743 81.1655 108.126 82.5137C108.526 83.9087 108.552 85.382 108.573 86.824C108.602 88.5867 108.628 90.3521 108.599 92.1174C108.586 92.811 108.562 93.5125 108.51 94.2035C107.892 94.3901 107.292 94.6309 106.717 94.9232C106.132 95.3039 103.944 97.6637 103.944 97.6637L99.6648 113.992L99.7222 114.058L99.6648 114.279L99.8815 114.23C100.487 114.882 102.296 116.738 104.249 117.896L104.432 121.098C104.432 121.098 104.651 124.311 107.609 125.638C107.677 126.751 107.889 131.273 106.91 133.064C106.232 134.373 105.913 135.838 105.986 137.309C105.986 137.309 106.328 140.027 105.939 141.456C105.711 142.411 105.694 143.403 105.889 144.366V144.366C105.889 144.366 105.889 144.681 105.889 145.224C105.889 148.115 105.923 157.383 105.889 158.431C105.839 159.67 105.889 177.988 105.889 177.988C105.889 177.988 105.646 187.143 104.868 189.623C104.09 192.103 104.286 200.314 104.286 200.314C104.286 200.314 103.798 210.095 105.523 212.025C105.523 212.111 105.508 212.199 105.505 212.285C105.505 212.325 105.505 212.369 105.505 212.408C105.484 213.151 105.628 213.941 106.268 214.184C107.573 214.684 109.299 216.186 109.625 216.617C109.951 217.047 111.849 218.119 114.324 217.832C115.875 217.658 117.435 217.586 118.995 217.618V217.618C118.995 217.618 119.972 217.441 119.656 216.228C119.452 215.472 118.69 214.309 118.147 213.545C118.246 213.571 118.342 213.592 118.434 213.61L118.528 213.628H118.601C118.641 213.631 118.681 213.631 118.721 213.628H118.773C118.822 213.632 118.871 213.632 118.919 213.628V213.628C119.575 213.566 122.018 214.703 122.454 215.454C122.89 216.205 124.428 216.776 125.587 216.919C126.277 217.003 128.015 216.862 129.475 216.674C130.21 216.598 130.938 216.466 131.652 216.278C131.997 216.147 132.07 215.73 131.971 215.261C131.854 214.665 131.535 214.127 131.068 213.738C130.645 213.438 130.086 212.648 129.673 212.001L129.564 211.826C130.292 211.133 131.608 208.864 132.007 208.395C132.493 207.824 131.224 186.94 131.224 186.94V176.47L133.169 166.561L134.529 161.318L135.696 153.401C135.696 153.401 137.738 144.154 137.109 143.247C137.109 143.229 136.587 133.708 136.038 131.422C135.801 130.402 135.861 128.107 136.002 125.875C136.149 125.729 136.252 125.544 136.298 125.342C136.344 125.14 136.332 124.929 136.263 124.733C136.224 124.599 136.173 124.469 136.112 124.345C136.112 124.305 136.112 124.264 136.112 124.225C137.239 123.706 138.418 123.306 139.628 123.03C141.573 122.65 141.088 121.648 141.088 121.648C141.088 121.648 141.526 120.79 141.816 120.266C142.106 119.742 141.866 115.116 141.816 114.736C141.798 114.582 141.678 113.732 141.539 112.767C142.163 112.324 142.975 111.773 143.86 111.252C145.544 110.256 145.166 109.205 145.027 108.931ZM119.65 175.041C119.65 175.041 118.191 178.76 118.776 179.711C119.361 180.663 118.679 184.197 118.679 184.197L118.191 189.44C118.191 189.44 116.831 199.167 117.316 201.454C117.698 203.248 117.839 208.606 117.883 210.841C117.85 210.854 117.817 210.87 117.786 210.888L117.721 210.922C117.946 210.043 117.852 208.265 116.737 204.687L116.643 189.91C116.643 189.91 116.471 172.84 117.82 170.932C119.17 169.023 119.648 165.782 119.648 165.782C119.648 165.782 119.355 170.457 119.165 171.696C118.974 172.934 119.65 175.041 119.65 175.041ZM116.933 211.772C116.92 211.803 116.904 211.834 116.893 211.863L116.82 211.769C116.858 211.773 116.895 211.774 116.933 211.772V211.772Z" fill="url(#paint0_linear_53:274)"/>
<path d="M131.817 217.628C131.062 217.918 126.971 218.411 125.828 218.272C124.684 218.134 123.17 217.555 122.739 216.799C122.308 216.043 119.893 214.901 119.246 214.974C118.98 214.982 118.716 214.945 118.463 214.864C118.016 214.729 117.58 214.562 117.157 214.364C117.098 214.035 117.108 213.698 117.186 213.373C117.201 213.307 117.22 213.243 117.243 213.18C117.396 212.752 117.711 212.402 118.121 212.205L118.215 212.16C118.396 212.082 118.585 212.024 118.779 211.988C120.831 211.594 129.297 212.385 129.297 212.385C129.297 212.385 129.535 212.81 129.861 213.336C130.269 213.988 130.822 214.784 131.24 215.083C131.703 215.478 132.017 216.019 132.13 216.617C132.229 217.078 132.156 217.501 131.817 217.628Z" fill="#3F3D56"/>
<path opacity="0.1" d="M131.817 217.628C131.062 217.918 126.974 218.411 125.83 218.272C124.687 218.134 123.172 217.553 122.739 216.799C122.306 216.046 119.896 214.901 119.248 214.974C118.601 215.047 117.16 214.364 117.16 214.364C117.16 214.364 116.935 213.321 117.588 212.609L118.893 213.534C118.893 213.534 122.387 214.617 123.034 215.621C123.682 216.624 124.862 217.185 126.567 217.287C127.841 217.37 130.767 216.875 132.138 216.627C132.229 217.078 132.159 217.501 131.817 217.628Z" fill="black"/>
<path d="M119.319 218.958C117.779 218.928 116.239 219.001 114.708 219.175C112.257 219.462 110.385 218.392 110.058 217.952C109.732 217.511 108.043 216.022 106.745 215.501C106.111 215.255 105.962 214.458 105.991 213.712C105.991 213.673 105.991 213.628 105.991 213.589C106.015 213.117 106.085 212.648 106.2 212.189L116.358 211.973L117.238 213.164L117.374 213.347L117.909 214.074C117.909 214.074 118.152 214.392 118.47 214.857C119.008 215.639 119.76 216.794 119.961 217.558C120.282 218.781 119.319 218.958 119.319 218.958Z" fill="#3F3D56"/>
<path opacity="0.1" d="M119.319 218.958C117.779 218.928 116.239 219.001 114.708 219.175C112.259 219.462 110.385 218.392 110.061 217.952C109.737 217.511 108.043 216.009 106.745 215.506C106.111 215.261 105.962 214.463 105.991 213.717C106.717 213.886 108.241 214.319 108.839 215.073C109.622 216.079 111.024 217.772 113.016 217.879C114.625 217.965 118.541 217.678 119.977 217.563C120.285 218.781 119.319 218.958 119.319 218.958Z" fill="black"/>
<path opacity="0.1" d="M118.11 212.194C117.993 213.065 117.63 213.3 117.369 213.352C117.305 213.364 117.239 213.364 117.175 213.352C117.141 213.349 117.107 213.344 117.074 213.336C117.074 213.336 107.951 215.349 106.108 213.72C106.061 213.678 106.018 213.632 105.978 213.584C106.002 213.112 106.072 212.643 106.187 212.184L116.345 211.967L117.225 213.159C117.377 212.731 117.693 212.381 118.102 212.184L118.11 212.194Z" fill="black"/>
<path opacity="0.1" d="M129.859 213.326C129.655 213.55 129.485 213.678 129.378 213.634C128.898 213.441 124.961 212.77 123.71 213.347C122.46 213.923 118.228 213.441 118.228 213.441C118.228 213.441 118.228 212.94 118.204 212.137C118.385 212.059 118.574 212.001 118.768 211.965C120.82 211.571 129.287 212.361 129.287 212.361C129.287 212.361 129.535 212.799 129.859 213.326Z" fill="black"/>
<path d="M135.817 154.342L134.663 162.306L133.321 167.584L131.399 177.56V188.121C131.399 188.121 132.647 209.133 132.167 209.706C131.686 210.28 129.861 213.547 129.381 213.357C128.901 213.167 124.964 212.494 123.713 213.068C122.462 213.641 118.23 213.164 118.23 213.164C118.23 213.164 118.134 205.01 117.653 202.708C117.173 200.405 118.517 190.619 118.517 190.619L118.998 185.344C118.998 185.344 119.671 181.792 119.094 180.833C118.517 179.873 119.959 176.139 119.959 176.139C119.959 176.139 119.288 174.024 119.481 172.778C119.674 171.531 119.959 166.83 119.959 166.83C119.959 166.83 119.481 170.095 118.147 172.011C116.813 173.928 116.982 191.104 116.982 191.104L117.076 205.967C119.481 213.837 117.076 213.068 117.076 213.068C117.076 213.068 107.954 215.083 106.111 213.451C104.268 211.819 104.795 201.545 104.795 201.545C104.795 201.545 104.604 193.294 105.372 190.801C106.14 188.309 106.382 179.096 106.382 179.096C106.382 179.096 106.333 160.673 106.382 159.43C106.419 158.387 106.382 149.049 106.382 146.131C106.382 145.589 106.382 145.268 106.382 145.268L107.484 142.535L120.538 140.903H126.783C126.783 140.903 136.182 143.109 137.153 144.061C137.174 144.076 137.192 144.096 137.206 144.118C137.835 145.038 135.817 154.342 135.817 154.342Z" fill="#F14A4A"/>
<path opacity="0.1" d="M119.966 196.173C119.966 196.173 122.838 203.081 124.193 203.56C125.548 204.04 119.966 196.173 119.966 196.173Z" fill="black"/>
<path opacity="0.1" d="M121.029 206.343C121.029 206.343 130.726 206.823 130.629 207.879C130.532 208.935 121.029 206.343 121.029 206.343Z" fill="black"/>
<path opacity="0.1" d="M108.056 203.581C108.44 203.944 115.452 204.624 114.875 205.287C114.298 205.949 108.633 207.237 108.633 207.237L108.056 203.581Z" fill="black"/>
<path opacity="0.1" d="M106.905 191.665C106.905 191.951 108.346 200.875 108.732 201.258C109.119 201.641 112.285 202.025 112.285 202.025L106.905 191.665Z" fill="black"/>
<path d="M117.361 69.6974C115.985 71.2332 115.39 73.4106 113.787 74.7091C112.813 75.4914 111.581 75.8643 110.447 76.3962C109.314 76.9282 108.192 77.7392 107.855 78.9439C107.479 80.2998 108.205 81.6844 108.586 83.0404C108.98 84.4433 109.004 85.9087 109.027 87.3768C109.053 89.1526 109.082 90.9283 109.051 92.7041C109.004 95.4707 108.774 98.3652 107.304 100.709C112.612 102.396 118.256 102.626 123.823 102.842C124.892 102.919 125.967 102.892 127.031 102.762C127.954 102.578 128.866 102.347 129.765 102.071C131.542 101.601 133.373 101.367 135.211 101.374C136.012 101.374 136.83 101.424 137.602 101.215C138.375 101.007 139.119 100.472 139.328 99.7002C139.514 99.0066 139.242 98.2687 138.887 97.6455C138.239 96.5086 137.32 95.5594 136.626 94.4381C135.917 93.2538 135.496 91.9197 135.398 90.5433C135.3 89.1669 135.526 87.7866 136.059 86.5137C136.676 85.0821 137.668 83.8357 138.273 82.4015C138.894 80.8617 139.059 79.1764 138.749 77.5457C138.439 75.915 137.667 74.4074 136.524 73.202C134.417 71.0481 131.394 70.2137 128.501 69.7704C127.283 69.6267 126.121 69.1782 125.123 68.4666C124.013 67.7365 122.575 67.5591 121.274 67.7208C119.775 67.8887 118.385 68.5903 117.361 69.6974Z" fill="#3F3D56"/>
<g opacity="0.1">
<path opacity="0.1" d="M136.14 85.0091C135.608 86.2656 135.38 87.6298 135.475 88.9909C135.533 88.0176 135.758 87.0615 136.14 86.1643C136.754 84.7327 137.746 83.4863 138.352 82.0521C138.847 80.8545 139.055 79.558 138.96 78.2659C138.906 79.1716 138.701 80.0618 138.352 80.8995C137.746 82.3337 136.754 83.5775 136.14 85.0091Z" fill="black"/>
<path opacity="0.1" d="M109.106 87.0227C109.122 88.0449 109.137 89.0697 109.14 90.0918C109.14 88.6837 109.127 87.2782 109.106 85.8728C109.085 84.4151 109.059 82.9392 108.665 81.5337C108.404 80.6419 108.017 79.7371 107.881 78.8375C107.649 80.1152 108.31 81.4112 108.665 82.6863C109.059 84.0787 109.085 85.5651 109.106 87.0227Z" fill="black"/>
<path opacity="0.1" d="M137.691 99.7237C136.908 99.9349 136.104 99.888 135.302 99.8828C133.466 99.8711 131.635 100.101 129.859 100.566C128.96 100.842 128.047 101.071 127.125 101.254C126.06 101.386 124.985 101.414 123.914 101.338C118.536 101.127 113.082 100.9 107.931 99.3639C107.778 99.7048 107.603 100.036 107.408 100.355C112.716 102.039 118.361 102.271 123.924 102.488C124.995 102.564 126.07 102.536 127.136 102.404C128.055 102.223 128.964 101.994 129.859 101.719C131.632 101.252 133.458 101.019 135.292 101.028C136.093 101.028 136.908 101.077 137.681 100.866C138.453 100.655 139.198 100.125 139.406 99.3534C139.494 98.996 139.485 98.6215 139.38 98.2687C139.148 98.9988 138.43 99.5073 137.691 99.7237Z" fill="black"/>
</g>
<path d="M129.958 96.6337C129.765 97.0666 128.95 100.806 128.757 101.189C128.564 101.572 127.509 107.708 127.412 108.052C127.316 108.397 120.46 106.613 120.46 106.613L116.332 103.158L112.09 98.9414C112.09 98.9414 111.964 95.137 115.089 93.9166C115.302 93.8333 115.52 93.7654 115.742 93.7132C119.533 92.8032 119.152 81.2907 119.152 81.2907L126.932 84.6467C126.932 84.6467 125.491 91.3638 125.54 92.6598C125.554 93.0952 125.896 93.3664 126.342 93.5307C127.032 93.7268 127.751 93.8044 128.467 93.7602C128.467 93.7602 130.151 96.2035 129.958 96.6337Z" fill="#FBBEBE"/>
<path d="M143.887 109.249L144.991 109.539C144.991 109.539 145.808 110.78 143.887 111.935C142.666 112.675 141.495 113.493 140.38 114.384L134.702 116.11L133.608 112.681L138.892 108.676L143.887 109.249Z" fill="#F14A4A"/>
<path opacity="0.1" d="M143.887 109.249L144.991 109.539C144.991 109.539 145.808 110.78 143.887 111.935C142.666 112.675 141.495 113.493 140.38 114.384L134.702 116.11L133.608 112.681L138.892 108.676L143.887 109.249Z" fill="black"/>
<path d="M102.445 112.561L100.237 114.72C100.237 114.72 104.221 119.325 107.286 119.612C110.351 119.899 112.327 116.11 112.327 116.11L109.675 111.938L102.445 112.561Z" fill="#F14A4A"/>
<path opacity="0.1" d="M102.445 112.561L100.237 114.72C100.237 114.72 104.221 119.325 107.286 119.612C110.351 119.899 112.327 116.11 112.327 116.11L109.675 111.938L102.445 112.561Z" fill="black"/>
<path opacity="0.1" d="M123.426 88.8136C127.669 88.8136 131.109 85.3778 131.109 81.1395C131.109 76.9012 127.669 73.4653 123.426 73.4653C119.182 73.4653 115.742 76.9012 115.742 81.1395C115.742 85.3778 119.182 88.8136 123.426 88.8136Z" fill="black"/>
<path d="M123.426 88.2373C127.669 88.2373 131.109 84.8015 131.109 80.5632C131.109 76.3249 127.669 72.8891 123.426 72.8891C119.182 72.8891 115.742 76.3249 115.742 80.5632C115.742 84.8015 119.182 88.2373 123.426 88.2373Z" fill="#FBBEBE"/>
<path opacity="0.1" d="M137.211 144.989C135.461 145.189 133.738 145.574 132.07 146.139C129.198 147.093 106.693 146.154 106.38 146.139C106.38 145.596 106.38 145.276 106.38 145.276L107.482 142.543L120.536 140.911H126.781C126.781 140.911 136.18 143.117 137.151 144.068C137.19 144.642 137.211 144.989 137.211 144.989Z" fill="black"/>
<path opacity="0.1" d="M129.958 96.6337C129.765 97.0666 128.95 100.806 128.757 101.189C128.564 101.572 127.509 107.708 127.412 108.052C127.316 108.397 120.46 106.613 120.46 106.613L116.332 103.158L112.09 98.9414C112.09 98.9414 111.964 95.137 115.089 93.9166L122.849 102.827L126.342 93.5307C127.032 93.7268 127.751 93.8044 128.467 93.7602C128.467 93.7602 130.151 96.2035 129.958 96.6337Z" fill="black"/>
<path d="M122.849 103.114L114.907 93.987C114.442 93.6906 113.91 93.5143 113.36 93.4738C112.81 93.4332 112.259 93.5299 111.755 93.755C109.977 94.5242 107.769 95.1474 107.192 95.5307C106.615 95.914 104.453 98.2869 104.453 98.2869L110.891 115.108L108.056 126.188C108.056 126.188 108.489 131.849 107.385 133.912C106.713 135.231 106.397 136.702 106.471 138.18C106.471 138.18 106.808 140.916 106.424 142.353C106.2 143.313 106.183 144.311 106.375 145.278C106.375 145.278 129.19 146.238 132.07 145.278C133.737 144.712 135.461 144.327 137.211 144.128C137.211 144.128 136.689 134.532 136.166 132.23C135.644 129.927 136.6 121.15 136.6 121.15L135.976 111.747L139.72 102.099C139.72 102.099 137.691 95.914 135.576 95.2908C135.576 95.2908 131.736 94.3782 130.919 93.9479C130.102 93.5177 127.7 93.1317 127.7 93.1317L126.439 93.5542L122.849 103.114Z" fill="#F14A4A"/>
<path opacity="0.1" d="M133.93 111.43L117.217 110.295C116.794 110.266 116.428 110.585 116.399 111.008L114.605 137.362C114.576 137.784 114.896 138.15 115.319 138.179L132.031 139.314C132.454 139.342 132.82 139.023 132.849 138.601L134.643 112.247C134.672 111.824 134.353 111.459 133.93 111.43Z" fill="black"/>
<path d="M134.505 110.857L117.793 109.722C117.37 109.694 117.004 110.013 116.975 110.435L115.181 136.789C115.152 137.212 115.471 137.577 115.894 137.606L132.607 138.741C133.03 138.77 133.396 138.451 133.425 138.028L135.219 111.674C135.248 111.252 134.928 110.886 134.505 110.857Z" fill="#3F3D56"/>
<path d="M133.954 112.923L118.059 111.844L116.426 135.836L132.32 136.915L133.954 112.923Z" fill="white"/>
<path opacity="0.1" d="M132.528 119.047L119.545 118.139L119.292 121.753L132.275 122.661L132.528 119.047Z" fill="black"/>
<path opacity="0.1" d="M132.059 133.409L129.998 133.269L129.87 135.153L131.93 135.293L132.059 133.409Z" fill="black"/>
<path opacity="0.1" d="M130.026 128.863L119.479 128.147L119.351 130.031L129.898 130.747L130.026 128.863Z" fill="black"/>
<path d="M131.986 112.026L121.005 111.28L120.807 114.176L131.789 114.922L131.986 112.026Z" fill="#3F3D56"/>
<path opacity="0.1" d="M131.986 112.026L121.005 111.28L120.807 114.176L131.789 114.922L131.986 112.026Z" fill="black"/>
<path opacity="0.1" d="M123.81 144.459C123.81 144.459 123.713 158.66 119.966 166.814C119.966 166.814 124.483 156.068 124.483 155.638C124.483 155.208 126.979 150.697 126.311 149.354C125.642 148.011 123.81 144.459 123.81 144.459Z" fill="black"/>
<path opacity="0.1" d="M124.013 78.644C123.87 77.3871 124.178 76.1201 124.883 75.069C124.799 76.1225 125.097 77.1711 125.723 78.0232C126.349 78.8753 127.261 79.4742 128.292 79.7105C128.204 79.6342 128.141 79.5331 128.112 79.4205C128.083 79.3078 128.088 79.1889 128.128 79.0795C128.663 79.6844 129.073 80.4015 129.679 80.9335C130.284 81.4654 131.193 81.7835 131.906 81.4054C132.874 80.8839 132.885 79.5097 132.634 78.4406C132.096 76.1638 130.993 74.059 129.425 72.3206C129.034 71.7951 128.527 71.3672 127.942 71.0704C127.358 70.7737 126.713 70.6161 126.057 70.61C124.574 70.4953 123.034 70.6257 121.705 71.2906C120.957 71.6982 120.257 72.187 119.617 72.7482L115.961 75.7261C115.61 75.9792 115.309 76.2958 115.074 76.6596C114.917 76.9638 114.823 77.2963 114.797 77.6375C114.704 78.6127 114.884 79.5947 115.319 80.4731C115.753 81.3515 116.424 82.0915 117.256 82.6101C117.239 81.8393 117.451 81.0807 117.866 80.4307C118.281 79.7806 118.881 79.2685 119.588 78.9595C119.699 79.052 119.788 79.1671 119.851 79.2971C119.913 79.4271 119.948 79.5689 119.951 79.7131L120.721 78.3415C120.835 78.0919 121.016 77.8783 121.243 77.7235C121.718 77.4628 122.311 77.7705 122.716 78.1381C123.12 78.5058 123.515 78.9647 124.058 79.0221L124.078 76.9804" fill="black"/>
<path d="M124.013 78.3572C123.869 77.0994 124.177 75.8315 124.883 74.7795C124.648 76.8656 126.222 79.0195 128.295 79.4211C128.207 79.3454 128.144 79.2447 128.114 79.1325C128.085 79.0202 128.091 78.9017 128.13 78.7926C128.666 79.3976 129.075 80.1121 129.681 80.6466C130.287 81.1812 131.195 81.4967 131.908 81.116C132.877 80.5945 132.887 79.2203 132.637 78.1538C132.099 75.8769 130.995 73.7722 129.428 72.0338C128.942 71.4417 128.329 70.9659 127.634 70.6413C127.132 70.4556 126.603 70.3483 126.068 70.3232C124.585 70.2084 123.045 70.3362 121.716 71.0012C120.968 71.4105 120.268 71.9002 119.627 72.4614L115.972 75.4393C115.62 75.6917 115.318 76.0084 115.084 76.3728C114.927 76.6768 114.833 77.0094 114.807 77.3506C114.714 78.3255 114.895 79.307 115.329 80.185C115.764 81.0629 116.435 81.8025 117.267 82.3207C117.25 81.55 117.462 80.7917 117.878 80.1418C118.293 79.4919 118.891 78.9797 119.598 78.6701C119.709 78.7629 119.798 78.8781 119.861 79.008C119.923 79.1379 119.957 79.2796 119.961 79.4237L120.729 78.0573C120.843 77.8073 121.023 77.5934 121.251 77.4393C121.726 77.1785 122.319 77.4862 122.723 77.8539C123.128 78.2216 123.522 78.6779 124.065 78.7379L124.086 76.6935" fill="#3F3D56"/>
<path d="M127.653 126.762C126.982 126.423 115.886 128.152 115.886 128.152C115.886 128.152 114.058 127.63 109.641 126.905C105.223 126.18 104.941 121.867 104.941 121.867L104.458 113.234L105.949 111.93L112.335 116.102C112.335 116.102 112.434 118.212 112.335 118.592C112.272 118.853 112.105 119.163 112.121 119.374C112.126 119.432 112.149 119.486 112.188 119.528C112.227 119.571 112.278 119.599 112.335 119.609C112.768 119.719 118.674 120.673 118.674 120.673C118.674 120.673 132.362 119.737 135.775 124.342C136.045 124.68 136.25 125.066 136.378 125.479C137.224 128.626 128.261 127.062 127.653 126.762Z" fill="#FBBEBE"/>
<path opacity="0.1" d="M136.386 125.497C135.864 125.729 135.54 125.896 135.54 125.896C135.54 125.896 130.642 125.753 127.89 124.757C125.138 123.76 121.794 123.938 121.794 123.938C121.794 123.938 110.327 121.966 112.105 119.393C112.11 119.45 112.134 119.504 112.172 119.546C112.211 119.589 112.263 119.617 112.319 119.627C112.753 119.737 118.658 120.691 118.658 120.691C118.658 120.691 132.347 119.755 135.759 124.36C136.038 124.696 136.25 125.082 136.386 125.497V125.497Z" fill="black"/>
<path d="M141.148 110.305C141.148 110.305 141.821 115.054 141.868 115.44C141.915 115.826 142.158 120.475 141.868 121.004C141.579 121.534 141.148 122.394 141.148 122.394C141.148 122.394 141.628 123.401 139.707 123.787C137.785 124.172 135.529 125.32 135.529 125.32C135.529 125.32 130.629 125.176 127.893 124.17C125.157 123.163 121.794 123.354 121.794 123.354C121.794 123.354 107.239 120.858 113.484 117.813C119.729 114.767 124.146 118.892 124.146 118.892L131.109 118.462C131.109 118.462 133.704 116.876 134.425 117.022C134.934 117.087 135.451 117.004 135.913 116.783L135.963 111.745L141.148 110.305Z" fill="#FBBEBE"/>
<path opacity="0.1" d="M105.839 98.6494L104.445 98.5764L100.221 115.004C100.221 115.004 104.782 113.852 106.748 115.004C108.714 116.157 112.319 116.394 112.319 116.394L110.975 103.299L105.839 98.6494Z" fill="black"/>
<path d="M105.839 98.3599L104.445 98.2869L100.221 114.715C100.221 114.715 104.782 113.562 106.748 114.715C108.714 115.867 112.319 116.105 112.319 116.105L110.975 103.009L105.839 98.3599Z" fill="#F14A4A"/>
<path opacity="0.1" d="M137.788 101.958L139.707 102.391C139.707 102.391 144.607 109.432 144.991 109.826C145.375 110.219 143.163 111.651 142.252 111.651C141.341 111.651 136.874 112.172 135.576 113.377C134.279 114.582 134.819 108.519 134.819 108.381C134.819 108.243 136.43 104.417 136.43 104.417L137.788 101.958Z" fill="black"/>
<path d="M137.788 101.672L139.707 102.102C139.707 102.102 144.607 109.155 144.991 109.539C145.375 109.922 143.163 111.364 142.252 111.364C141.341 111.364 136.874 111.886 135.576 113.09C134.279 114.295 134.819 108.232 134.819 108.094C134.819 107.956 136.441 104.118 136.441 104.118L137.788 101.672Z" fill="#F14A4A"/>
<g opacity="0.1">
<path opacity="0.1" d="M124.869 74.803C124.858 74.6031 124.863 74.4025 124.883 74.2033C124.485 74.799 124.212 75.4685 124.078 76.172V76.777C124.078 76.777 124.078 76.7639 124.078 76.7561V76.8995C124.078 77.322 124.078 77.747 124.065 78.1694H124.029V78.365C124.029 78.2972 124.029 78.232 124.016 78.1642C123.494 78.0808 123.12 77.6427 122.731 77.2933C122.342 76.9439 121.734 76.6101 121.259 76.8787C121.031 77.0328 120.85 77.2466 120.737 77.4967L119.961 78.863C119.958 78.7193 119.924 78.5779 119.861 78.4484C119.798 78.3188 119.709 78.2042 119.598 78.1121C118.891 78.4211 118.292 78.9332 117.877 79.5832C117.461 80.2332 117.249 80.9919 117.267 81.7627C116.554 81.3163 115.957 80.7067 115.526 79.9844C115.095 79.2622 114.843 78.4478 114.789 77.6088C114.744 78.5457 114.949 79.4777 115.385 80.3087C115.821 81.1397 116.47 81.8397 117.267 82.3363C117.25 81.5657 117.462 80.8073 117.878 80.1574C118.293 79.5075 118.891 78.9953 119.598 78.6857C119.709 78.7786 119.798 78.8937 119.861 79.0236C119.923 79.1535 119.957 79.2952 119.961 79.4393L120.729 78.0729C120.843 77.8229 121.023 77.6091 121.251 77.4549C121.726 77.1942 122.319 77.5019 122.723 77.8695C123.128 78.2372 123.522 78.6935 124.065 78.7535C124.065 78.086 124.072 77.4202 124.086 76.7561C124.214 76.0594 124.481 75.3954 124.869 74.803V74.803Z" fill="black"/>
<path opacity="0.1" d="M123.987 77.4289C124 77.2515 124.021 77.0742 124.047 76.9073L124.076 76.1877C123.997 76.5964 123.968 77.0131 123.987 77.4289Z" fill="black"/>
<path opacity="0.1" d="M131.908 80.5397C131.195 80.9204 130.287 80.6023 129.681 80.0704C129.076 79.5384 128.666 78.8213 128.13 78.2164C128.091 78.3258 128.085 78.4447 128.115 78.5573C128.144 78.67 128.207 78.7711 128.295 78.8474C128.243 78.8474 128.193 78.8213 128.143 78.8083C128.666 79.408 129.081 80.1121 129.681 80.6336C130.282 81.1551 131.195 81.4837 131.908 81.103C132.621 80.7223 132.825 79.8305 132.762 78.9621C132.715 79.6453 132.47 80.2372 131.908 80.5397Z" fill="black"/>
<path opacity="0.1" d="M128.128 78.8031C127.255 78.5654 126.475 78.0669 125.894 77.3743C125.312 76.6818 124.957 75.8283 124.875 74.9282C124.726 76.9751 126.271 79.0273 128.295 79.4211C128.209 79.3463 128.147 79.2476 128.117 79.1375C128.087 79.0274 128.091 78.911 128.128 78.8031V78.8031Z" fill="black"/>
</g>
<path d="M253.509 121.421C253.509 121.421 252.48 121.278 252.48 119.784C252.48 118.29 251.744 115.492 251.744 115.492C251.744 115.492 251.107 110.623 250.227 109.852C249.347 109.08 248.217 104.548 248.217 104.548C248.217 104.548 248.024 102.089 247.629 101.559C247.235 101.03 246.703 99.7342 245.917 97.8854C245.131 96.0366 241.862 94.7693 241.862 94.7693C241.862 94.7693 235.938 91.3377 234.259 90.2191C234.106 90.1264 233.962 90.018 233.831 89.8957C233.539 89.515 232.265 89.5072 232.265 89.5072C232.132 88.665 232.004 87.7001 231.962 86.8266C231.962 86.7327 231.962 86.6389 231.962 86.545C233.834 85.4398 235.244 83.6974 235.933 81.6375C235.964 81.5384 235.99 81.4367 236.019 81.335C236.134 81.2997 236.239 81.2406 236.329 81.1615C236.419 81.0824 236.492 80.9851 236.541 80.8761C236.69 80.5397 236.695 80.1486 236.883 79.8331C237.103 79.4628 237.52 79.2646 237.849 78.9882C238.68 78.2815 238.894 77.0951 238.854 76.0182C238.828 75.142 238.687 74.2606 238.742 73.3923C238.742 73.3193 238.742 73.2463 238.758 73.1733C238.774 73.0455 238.792 72.9125 238.815 72.7874C238.943 72.1407 239.223 71.5305 239.379 70.889C239.536 70.2476 239.552 69.5253 239.186 68.9725C238.651 68.1615 237.536 67.9998 236.557 67.9294C235.447 67.8356 234.468 67.9555 233.745 67.035C233.413 66.5543 233.039 66.104 232.628 65.6895C232.482 65.5539 231.061 64.6856 231.061 64.6308C229.672 63.9855 228.095 63.8642 226.623 64.2892C225.884 64.5031 225.192 64.8525 224.443 65.0272C222.835 65.4079 220.981 64.9959 219.613 65.9164C218.851 66.4379 218.394 67.2697 217.965 68.0755C217.617 68.7395 217.264 69.4044 216.905 70.0703C216.326 71.1628 215.741 72.2737 215.498 73.4836C215.447 73.7479 215.415 74.0154 215.402 74.2841V74.2841C215.402 74.3806 215.402 74.4771 215.402 74.5736C215.402 74.6153 215.402 74.657 215.402 74.6987C215.402 74.7874 215.402 74.876 215.417 74.9595C215.433 75.0429 215.417 75.0664 215.436 75.1211C215.454 75.1759 215.459 75.2985 215.475 75.3819C215.49 75.4653 215.522 75.614 215.553 75.7261C215.553 75.7757 215.584 75.8226 215.6 75.8721C215.616 75.9217 215.658 76.0468 215.691 76.1329C215.725 76.2189 215.728 76.2242 215.749 76.2685C215.788 76.3597 215.835 76.4484 215.882 76.5292C215.903 76.5631 215.919 76.597 215.939 76.6309C216.011 76.753 216.091 76.8698 216.18 76.9804C216.736 77.6766 217.561 78.1199 218.169 78.7718C218.169 78.7978 218.169 78.8239 218.169 78.85C218.169 78.9204 218.169 78.9908 218.169 79.0638C218.206 80.5178 218.599 81.9407 219.312 83.2087C220.026 84.4766 221.039 85.5512 222.263 86.339C222.263 86.4381 222.276 86.5398 222.281 86.6415C222.332 87.4146 222.322 88.1906 222.252 88.9622C222.146 88.8374 222.013 88.738 221.863 88.6713C221.713 88.6045 221.55 88.572 221.386 88.5763C221.273 88.5707 221.161 88.5804 221.051 88.605L221.028 88.5867V88.6102C220.454 88.751 219.746 89.3481 219.07 91.0457C219.07 91.0457 217.013 93.3612 215.446 93.2647C213.88 93.1683 209.914 95.6768 209.914 95.6768C209.914 95.6768 206.045 98.1826 205.214 100.738C204.75 102.187 204.193 103.605 203.546 104.983L198.75 114.819L197.87 122.642C197.87 122.642 198.358 126.113 198.262 126.644C198.165 127.176 200.269 131.948 200.269 131.948C200.269 131.948 207.222 144.147 210.063 144.772L210.266 144.632C210.388 144.693 210.517 144.74 210.65 144.772L211.235 144.363C211.271 144.821 211.255 145.282 211.188 145.737C210.799 146.945 211.337 154.804 212.021 156.345C212.705 157.886 212.462 178.095 212.462 178.095L212.365 179.876C212.365 179.876 212.365 179.933 212.389 180.032L212.365 180.455L212.436 180.491C212.509 181.058 212.485 181.633 212.365 182.191C212.12 182.974 212.021 185.182 212.021 185.182C212.021 185.182 210.063 197.667 210.992 200.176C211.921 202.684 212.707 205.433 212.707 205.433C212.707 205.433 213.686 208.562 212.754 209.083C211.822 209.605 209.183 210.531 209.721 211.832C210.217 213.036 212.099 216.265 212.378 216.737L212.355 216.997L211.971 221.151C212.033 221.7 212.182 222.235 212.412 222.737C212.833 223.644 213.647 224.58 215.203 224.479C215.464 224.46 215.765 224.432 216.06 224.392C218.903 224.009 222.401 222.742 222.401 222.742C222.22 222.627 222.054 222.49 221.908 222.332V222.332C221.768 222.197 221.657 222.035 221.582 221.856C221.507 221.676 221.47 221.484 221.472 221.289C221.514 220.531 220.096 216.93 219.741 216.04L219.66 215.842C219.66 215.842 222.892 212.465 222.354 209.477C222.354 209.477 218.777 207.391 219.955 206.244C221.132 205.096 223.237 201.811 223.237 201.811C223.237 201.811 223.333 189.516 223.237 187.683C223.136 186.408 223.196 185.125 223.417 183.865C223.456 183.678 223.503 183.492 223.553 183.307C225.182 183.553 226.828 183.678 228.477 183.68C229.079 183.68 229.688 183.668 230.304 183.644C230.304 183.818 230.312 184.005 230.328 184.207C230.463 187.253 230.717 192.596 230.923 194.58C231.215 197.422 232.831 205.091 232.831 205.091C232.831 205.091 229.748 207.065 233.369 211.939C233.369 211.939 233.369 213.701 233.129 213.96C232.872 214.796 232.666 215.646 232.51 216.507C232.359 217.422 232.296 218.353 232.542 218.833C233.129 219.986 236.654 219.892 236.654 219.892C236.682 219.885 236.711 219.881 236.74 219.879C237.405 219.808 238.078 219.871 238.718 220.064C239.359 220.257 239.955 220.575 240.471 221C241.81 222.074 246.891 221.605 249.645 221.261C250.723 221.123 251.444 221 251.444 221C251.478 220.878 251.491 220.751 251.48 220.624V220.624C251.452 219.949 250.922 218.468 247.329 217.146C247.329 217.146 243.951 214.877 243.998 212.901H243.922H243.533C243.778 212.893 243.951 212.893 243.951 212.893C243.951 212.893 242.627 208.072 243.168 207.678C243.708 207.284 242.089 201.941 242.089 201.941C242.089 201.941 241.162 192.971 241.11 192.345C241.114 191.806 241.196 191.27 241.356 190.755L241.11 185.834C241.11 185.834 241.063 184.199 241.11 183.667C241.105 183.205 241.068 182.745 241.001 182.288C240.977 182.105 240.954 181.915 240.927 181.727C242.194 181.406 243.016 181.112 243.016 181.112L242.87 163.993C243.946 161.907 244.144 157.328 244.139 154.084C244.139 151.998 244.045 150.454 244.045 150.454L245.515 148.058C245.515 148.058 245.854 145.19 245.316 144.561C245.079 144.277 245.186 143.982 245.381 143.74C245.485 143.655 245.594 143.579 245.708 143.51C245.695 143.492 245.684 143.473 245.674 143.453C245.777 143.367 245.886 143.29 246 143.221C246 143.221 245.478 142.413 245.945 142.071C246.384 142.368 246.776 142.605 247.073 142.775C247.052 142.965 247.031 143.075 247.031 143.075L247.157 142.814C247.444 142.976 247.619 143.075 247.619 143.075C247.619 143.075 249.922 138.493 249.872 137.821C249.822 137.148 251.439 134.3 251.439 134.3C251.439 134.3 251.634 132.804 252.517 132.178C253.399 131.552 253.201 127.017 253.201 127.017C253.201 127.017 253.446 124.655 254.034 123.693C254.621 122.73 253.509 121.421 253.509 121.421ZM209.449 119.411L209.493 120.504C209.232 120.084 209.044 119.784 209.044 119.784L209.449 119.411Z" fill="url(#paint1_linear_53:274)"/>
<path d="M247.755 141.093L247.191 143.492C247.191 143.492 242.674 141.184 241.862 138.264C241.05 135.343 243.222 134.23 243.222 134.23L247.434 136.008L247.755 141.093Z" fill="white"/>
<path opacity="0.1" d="M247.755 141.093L247.191 143.492C247.191 143.492 242.674 141.184 241.862 138.264C241.05 135.343 243.222 134.23 243.222 134.23L247.434 136.008L247.755 141.093Z" fill="black"/>
<path d="M222.406 222.739C222.406 222.739 218.229 224.273 215.357 224.465C213.833 224.567 213.031 223.634 212.619 222.734C212.394 222.238 212.248 221.71 212.185 221.169L212.564 217.036L212.762 214.838L218.864 213.253L219.728 215.894L219.809 216.093C220.153 216.976 221.548 220.559 221.506 221.308C221.502 221.501 221.538 221.693 221.612 221.873C221.685 222.052 221.793 222.215 221.931 222.351C222.073 222.5 222.232 222.63 222.406 222.739V222.739Z" fill="#3F3D56"/>
<path d="M250.927 220.638C250.938 220.764 250.925 220.891 250.89 221.013C250.89 221.013 241.956 222.499 240.129 221.013C239.615 220.579 239.016 220.256 238.371 220.067C237.725 219.877 237.047 219.823 236.379 219.91C236.379 219.91 232.923 220.004 232.346 218.867C232.106 218.39 232.168 217.464 232.317 216.554C232.469 215.698 232.671 214.852 232.923 214.019L233.061 213.91L233.884 213.25L243.512 212.966H243.585C243.538 214.932 246.851 217.188 246.851 217.188C250.379 218.491 250.898 219.965 250.927 220.638Z" fill="#3F3D56"/>
<path opacity="0.1" d="M250.929 220.638C250.939 220.764 250.925 220.891 250.89 221.013C250.89 221.013 241.956 222.499 240.131 221.013C239.617 220.578 239.018 220.256 238.372 220.066C237.726 219.876 237.047 219.823 236.379 219.91C236.379 219.91 232.92 220.004 232.343 218.867C232.106 218.39 232.166 217.464 232.314 216.551C233.646 216.684 235.748 217.016 236.573 217.808C237.821 219.008 239.935 220.207 241.23 220.304C242.254 220.366 248.34 220.559 250.929 220.638Z" fill="black"/>
<path opacity="0.1" d="M222.406 222.739C222.406 222.739 218.229 224.273 215.357 224.465C213.833 224.567 213.031 223.634 212.619 222.734C213.684 223.091 215.159 223.464 215.934 223.123C216.853 222.713 220.112 222.452 221.939 222.34C222.077 222.493 222.234 222.627 222.406 222.739V222.739Z" fill="black"/>
<path d="M228.604 99.1683C225.158 97.8306 220.725 93.4108 221.832 91.3455C222.077 90.824 222.223 90.2617 222.263 89.6871C222.334 88.9068 222.345 88.1222 222.294 87.3403C222.216 86.0589 222.062 84.7832 221.832 83.5202C221.832 83.5202 232.591 83.7627 231.965 85.3455C231.782 85.8122 231.751 86.618 231.803 87.5176C231.855 88.4172 231.983 89.442 232.119 90.3051C232.304 91.4864 232.495 92.3912 232.495 92.3912C232.495 92.3912 231.834 93.3117 231.45 93.3612C231.066 93.4108 233.549 101.085 228.604 99.1683Z" fill="#CF6F80"/>
<path opacity="0.1" d="M219.798 216.079L219.717 216.168C216.501 212.283 212.611 217.128 212.611 217.128L212.553 217.023L212.752 214.825L218.853 213.24L219.717 215.881L219.798 216.079Z" fill="black"/>
<path opacity="0.1" d="M243.59 213.24C243.59 213.24 241.241 213.193 239.988 214.298C238.734 215.404 232.677 214.536 232.938 214.298C233.015 214.178 233.061 214.041 233.074 213.899L233.897 213.24L243.525 212.956C243.562 213.138 243.59 213.24 243.59 213.24Z" fill="black"/>
<path d="M223.801 182.728C223.626 183.161 223.493 183.609 223.404 184.066C223.186 185.319 223.126 186.595 223.224 187.863C223.32 189.688 223.224 201.92 223.224 201.92C223.224 201.92 221.158 205.182 220.005 206.332C218.851 207.482 222.354 209.547 222.354 209.547C222.876 212.523 219.712 215.881 219.712 215.881C216.496 211.996 212.605 216.838 212.605 216.838C212.605 216.838 210.491 213.188 209.963 211.884C209.436 210.58 212.029 209.68 212.94 209.148C213.851 208.617 212.893 205.498 212.893 205.498C212.893 205.498 212.125 202.762 211.211 200.267C210.298 197.772 212.219 185.352 212.219 185.352C212.219 185.352 212.318 183.143 212.556 182.374C212.674 181.819 212.698 181.247 212.626 180.684C212.611 180.494 212.592 180.337 212.579 180.228C212.566 180.118 212.556 180.071 212.556 180.071L212.592 180.009L213.898 177.578C213.898 177.578 224.427 181.198 223.801 182.728Z" fill="#F14A4A"/>
<path d="M243.59 212.953C243.59 212.953 241.241 212.903 239.988 213.996C238.734 215.089 232.677 214.236 232.938 213.996C233.2 213.756 233.176 211.983 233.176 211.983C229.623 207.135 232.654 205.169 232.654 205.169C232.654 205.169 231.069 197.542 230.782 194.713C230.581 192.739 230.333 187.412 230.2 184.395C230.142 183.091 230.108 182.191 230.108 182.191L232.985 181.62L233.359 181.547L240.361 180.142C240.361 180.142 240.554 181.446 240.685 182.512C240.751 182.967 240.786 183.426 240.792 183.886C240.747 184.408 240.792 186.043 240.792 186.043L241.032 190.935C240.877 191.448 240.796 191.981 240.792 192.517C240.841 193.143 241.752 202.064 241.752 202.064C241.752 202.064 243.337 207.388 242.797 207.772C242.256 208.155 243.59 212.953 243.59 212.953Z" fill="#F14A4A"/>
<path opacity="0.1" d="M231.965 85.3533C231.782 85.8201 231.75 86.6258 231.803 87.5254C230.362 88.3922 228.705 88.8353 227.023 88.804C225.341 88.7726 223.702 88.268 222.294 87.3481C222.216 86.0667 222.062 84.7911 221.832 83.528C221.832 83.528 232.591 83.7705 231.965 85.3533Z" fill="black"/>
<path d="M236.118 79.5958C236.147 81.9616 235.233 84.2419 233.578 85.9349C231.923 87.6278 229.663 88.5949 227.294 88.6232C224.925 88.6516 222.642 87.7389 220.947 86.0861C219.252 84.4332 218.284 82.1755 218.255 79.8096C218.255 79.7366 218.255 79.6688 218.255 79.5958C218.255 77.2292 219.197 74.9596 220.872 73.2861C222.547 71.6127 224.82 70.6726 227.189 70.6726C229.559 70.6726 231.831 71.6127 233.507 73.2861C235.182 74.9596 236.124 77.2292 236.124 79.5958H236.118Z" fill="#CF6F80"/>
<path opacity="0.1" d="M228.604 99.1683C225.158 97.8306 220.725 93.4107 221.832 91.3455C222.077 90.824 222.223 90.2617 222.263 89.6871L226.981 93.562L229.899 95.9531L232.119 90.3129C232.304 91.4942 232.495 92.399 232.495 92.399C232.495 92.399 231.834 93.3195 231.45 93.369C231.066 93.4186 233.549 101.085 228.604 99.1683Z" fill="black"/>
<path d="M240.805 116.292L236.865 182.395L231.727 182.731L218.42 144.402L220.602 98.8971L221.064 89.283L226.981 94.1357L229.899 96.5268L232.184 90.7197L236.432 94.4173L240.805 116.292Z" fill="#F14A4A"/>
<path opacity="0.1" d="M223.801 182.728C223.626 183.161 223.493 183.609 223.404 184.066C219.661 183.491 216.027 182.358 212.621 180.705L212.551 180.668L212.574 180.249V180.03L213.88 177.599C213.88 177.599 224.427 181.198 223.801 182.728Z" fill="black"/>
<path opacity="0.1" d="M233.072 184.077C232.116 184.24 231.152 184.35 230.184 184.408C230.127 183.104 230.093 182.204 230.093 182.204L232.985 181.62L233.072 184.077Z" fill="black"/>
<path opacity="0.1" d="M240.695 182.512C238.839 182.994 235.97 183.537 233.406 183.198L233.369 181.547L240.371 180.142C240.371 180.142 240.557 181.435 240.695 182.512Z" fill="black"/>
<path opacity="0.1" d="M233.359 183.5C222.654 185.326 212.851 180.092 212.851 180.092L212.945 178.319C212.945 178.319 213.188 158.217 212.514 156.676C211.841 155.135 211.316 147.33 211.697 146.139C212.078 144.947 210.305 126.955 210.305 126.955L210.018 119.653L199.499 115.385L204.199 105.599C204.833 104.227 205.379 102.816 205.833 101.374C206.65 98.8319 210.444 96.3365 210.444 96.3365C210.444 96.3365 214.334 93.8436 215.872 93.9375C217.409 94.0314 219.425 91.7315 219.425 91.7315C220.913 87.9427 222.26 89.6454 222.26 89.6454C222.26 89.8279 222.26 89.6454 222.187 90.206C221.665 94.3651 230.63 107.507 230.758 107.742L231.623 128.514L232.487 154.801L233.359 183.5Z" fill="black"/>
<path d="M233.072 183.5C222.367 185.326 212.561 180.092 212.561 180.092L212.658 178.319C212.658 178.319 212.898 158.217 212.224 156.676C211.551 155.135 211.026 147.323 211.41 146.12C211.794 144.918 210.01 126.944 210.01 126.944L209.721 119.643L199.204 115.374L203.904 105.588C204.537 104.217 205.083 102.807 205.538 101.366C206.355 98.8319 210.162 96.3339 210.162 96.3339C210.162 96.3339 214.052 93.841 215.587 93.9349C217.122 94.0288 219.148 91.7315 219.148 91.7315C220.639 87.9427 222.281 89.6454 222.281 89.6454C222.281 89.8279 222.124 89.9062 222.208 90.206C223.357 94.24 230.364 107.507 230.492 107.742L231.356 128.514L232.202 154.814L233.072 183.5Z" fill="white"/>
<path opacity="0.1" d="M230.187 108.329C229.035 107.849 222.936 100.895 222.936 100.895V99.3117C222.715 98.7902 221.393 99.1083 220.326 99.4734L220.785 89.8592L221.307 90.2921C222.448 94.3234 230.061 108.097 230.187 108.329Z" fill="black"/>
<path d="M230.476 107.755C229.322 107.273 223.224 100.321 223.224 100.321V98.7355C223.002 98.2139 221.683 98.5321 220.613 98.8971L221.064 89.2934L221.587 89.7236C222.738 93.7498 230.348 107.52 230.476 107.755Z" fill="white"/>
<path opacity="0.1" d="M212.851 142.436C212.995 142.436 220.294 141.669 220.294 141.669C220.294 141.669 224.714 150.353 224.425 152.462C224.135 154.572 223.61 156.444 221.832 156.113C220.054 155.782 212.263 156.374 212.263 156.374L212.851 142.436Z" fill="black"/>
<path d="M212.561 141.86C212.707 141.86 220.007 141.093 220.007 141.093C220.007 141.093 224.425 149.789 224.137 151.875C223.85 153.962 223.32 155.857 221.545 155.526C219.77 155.195 211.974 155.787 211.974 155.787L212.561 141.86Z" fill="white"/>
<path d="M218.062 137.794C218.062 137.794 224.761 141.393 224.905 142.488C225.049 143.583 221.495 142.008 220.728 141.815C220.222 141.695 219.708 141.615 219.19 141.576L214.07 141.714L218.062 137.794Z" fill="#CF6F80"/>
<path opacity="0.1" d="M228.315 108.777C228.704 108.777 229.02 108.462 229.02 108.073C229.02 107.684 228.704 107.369 228.315 107.369C227.925 107.369 227.61 107.684 227.61 108.073C227.61 108.462 227.925 108.777 228.315 108.777Z" fill="black"/>
<path d="M228.315 108.49C228.704 108.49 229.02 108.175 229.02 107.786C229.02 107.398 228.704 107.082 228.315 107.082C227.925 107.082 227.61 107.398 227.61 107.786C227.61 108.175 227.925 108.49 228.315 108.49Z" fill="#3F3D56"/>
<path opacity="0.1" d="M229.612 139.255C230.002 139.255 230.317 138.94 230.317 138.551C230.317 138.162 230.002 137.847 229.612 137.847C229.223 137.847 228.907 138.162 228.907 138.551C228.907 138.94 229.223 139.255 229.612 139.255Z" fill="black"/>
<path d="M229.612 138.965C230.002 138.965 230.317 138.65 230.317 138.261C230.317 137.872 230.002 137.557 229.612 137.557C229.223 137.557 228.907 137.872 228.907 138.261C228.907 138.65 229.223 138.965 229.612 138.965Z" fill="#3F3D56"/>
<path opacity="0.1" d="M229.02 124.016C229.409 124.016 229.725 123.701 229.725 123.312C229.725 122.923 229.409 122.608 229.02 122.608C228.63 122.608 228.315 122.923 228.315 123.312C228.315 123.701 228.63 124.016 229.02 124.016Z" fill="black"/>
<path d="M229.02 123.729C229.409 123.729 229.725 123.414 229.725 123.025C229.725 122.636 229.409 122.321 229.02 122.321C228.63 122.321 228.315 122.636 228.315 123.025C228.315 123.414 228.63 123.729 229.02 123.729Z" fill="#3F3D56"/>
<path d="M245.269 141.429C245.269 141.429 245.75 142.149 245.269 142.472C244.789 142.796 245.316 143.625 245.316 143.625C245.316 143.625 244.118 144.324 244.645 144.958C245.173 145.591 244.838 148.436 244.838 148.436L243.397 150.832C243.397 150.832 243.483 152.368 243.489 154.444C243.489 157.683 243.298 162.235 242.243 164.311L242.384 181.341C242.384 181.341 237.338 183.185 233.113 182.622L232.487 155.294C232.487 155.294 233.401 139.797 233.737 136.824C233.934 135.281 234.015 133.725 233.977 132.17C233.977 132.17 233.834 127.518 233.351 125.361C233.351 125.361 232.829 116.005 232.777 113.416C232.753 112.178 232.818 108.563 232.891 105.127C232.972 101.369 233.064 97.8254 233.064 97.8254L232.111 90.2921C232.111 90.2921 233.064 90.1982 233.351 90.5789C233.48 90.6989 233.619 90.8063 233.769 90.8996C235.416 92.0105 241.228 95.4264 241.228 95.4264C241.228 95.4264 244.444 96.7041 245.214 98.5346C245.985 100.365 246.52 101.664 246.893 102.185C247.266 102.707 247.47 105.158 247.47 105.158C247.47 105.158 248.577 109.669 249.441 110.433C250.305 111.197 250.927 116.047 250.927 116.047L243.29 122.045C243.29 122.045 242.619 132.021 242.476 132.407C242.332 132.793 245.269 141.429 245.269 141.429Z" fill="white"/>
<path d="M245.559 141.429C245.559 141.429 246.037 142.149 245.559 142.473C245.081 142.796 245.603 143.625 245.603 143.625C245.603 143.625 244.405 144.324 244.932 144.958C245.46 145.591 245.126 148.436 245.126 148.436L243.69 150.832C243.69 150.832 243.776 152.368 243.784 154.444C243.784 157.683 243.593 162.235 242.538 164.311L242.682 181.341C242.682 181.341 237.635 183.185 233.411 182.622L232.787 155.294C232.787 155.294 233.698 139.797 234.038 136.824C234.235 135.281 234.314 133.725 234.275 132.17C234.275 132.17 234.132 127.518 233.651 125.362C233.651 125.362 233.129 116.006 233.074 113.416C233.051 112.178 233.116 108.563 233.189 105.127C233.27 101.369 233.361 97.8254 233.361 97.8254L232.103 90.1904C232.103 90.1904 233.361 90.1904 233.651 90.5789C233.779 90.7004 233.919 90.8079 234.069 90.8997V90.8997C235.714 92.0105 241.525 95.4264 241.525 95.4264C241.525 95.4264 244.734 96.7042 245.517 98.5347C246.301 100.365 246.823 101.664 247.196 102.185C247.569 102.707 247.773 105.158 247.773 105.158C247.773 105.158 248.88 109.669 249.744 110.433C250.608 111.197 251.232 116.047 251.232 116.047L243.596 122.045C243.596 122.045 242.925 132.021 242.779 132.407C242.632 132.793 245.559 141.429 245.559 141.429Z" fill="white"/>
<path opacity="0.1" d="M236.413 100.039L237.105 102.047L233.474 105.698C233.555 101.94 233.646 98.3965 233.646 98.3965L232.388 90.7641C232.388 90.7641 233.646 90.7641 233.936 91.1526C234.063 91.274 234.203 91.3815 234.353 91.4733V91.4733L237.439 100.363L236.413 100.039Z" fill="black"/>
<path d="M236.118 99.463L236.81 101.468L233.181 105.119C233.26 101.361 233.354 97.8176 233.354 97.8176L232.093 90.1826C232.093 90.1826 233.354 90.1826 233.641 90.5711C233.769 90.6918 233.909 90.7993 234.058 90.8918V90.8918L237.163 99.7889L236.118 99.463Z" fill="white"/>
<path opacity="0.1" d="M236.118 79.5958C236.119 80.5353 235.971 81.4691 235.68 82.3624C235.631 82.3706 235.58 82.3689 235.532 82.3572C235.483 82.3456 235.438 82.3243 235.398 82.2946C235.327 79.9478 234.173 77.7418 232.75 75.8669C232.35 75.3014 231.866 74.8002 231.314 74.3806C230.756 73.9621 230.062 73.766 229.367 73.8304C228.584 73.9373 227.892 74.4693 227.101 74.5371C226.056 74.6231 225.122 73.9008 224.085 73.8669C223.664 73.8704 223.248 73.9639 222.866 74.1411C222.483 74.3183 222.143 74.5751 221.869 74.8943C221.324 75.5363 220.919 76.2851 220.681 77.0925C220.27 78.3176 220.047 79.5975 220.018 80.8891C220.004 81.6193 219.934 82.5345 219.255 82.8005C219.307 82.2639 219.246 81.7225 219.076 81.2108C218.907 80.699 218.632 80.228 218.271 79.8279L218.255 79.8096C218.255 79.7366 218.255 79.6688 218.255 79.5958C218.255 77.2292 219.197 74.9596 220.872 73.2861C222.547 71.6127 224.82 70.6726 227.189 70.6726C229.559 70.6726 231.831 71.6127 233.507 73.2861C235.182 74.9596 236.124 77.2292 236.124 79.5958H236.118Z" fill="black"/>
<path d="M230.897 65.4288C229.54 64.7914 227.997 64.6708 226.558 65.0898C225.834 65.3036 225.153 65.6504 224.419 65.8251C222.853 66.2032 221.025 65.7938 219.681 66.7091C218.934 67.2306 218.485 68.0546 218.067 68.8577L217.023 70.8421C216.454 71.9295 215.879 73.0351 215.642 74.232C215.404 75.4288 215.548 76.7691 216.308 77.734C216.858 78.4328 217.678 78.8735 218.279 79.5332C218.64 79.9354 218.913 80.4078 219.082 80.9208C219.251 81.4338 219.312 81.9761 219.26 82.5137C219.939 82.2529 220.007 81.3324 220.023 80.6023C220.052 79.3107 220.276 78.0309 220.686 76.8056C220.924 75.9982 221.329 75.2495 221.874 74.6075C222.148 74.2879 222.488 74.0307 222.871 73.8531C223.253 73.6754 223.669 73.5814 224.09 73.5775C225.135 73.614 226.072 74.3363 227.106 74.2476C227.889 74.1824 228.584 73.6505 229.372 73.5436C230.067 73.4779 230.762 73.6741 231.32 74.0938C231.872 74.5121 232.355 75.0135 232.753 75.5801C234.179 77.4575 235.335 79.6531 235.403 82.0078C235.698 82.2216 236.124 81.94 236.27 81.6062C236.416 81.2724 236.421 80.8813 236.607 80.5632C236.821 80.1955 237.231 79.9973 237.552 79.7209C238.366 79.0195 238.57 77.8383 238.539 76.7665C238.507 75.6948 238.298 74.6075 238.502 73.554C238.625 72.9099 238.901 72.3024 239.053 71.6635C239.204 71.0246 239.223 70.3075 238.865 69.7573C238.343 68.9516 237.244 68.7899 236.285 68.7143C235.197 68.6204 234.223 68.7404 233.528 67.8251C233.202 67.3481 232.835 66.8997 232.432 66.4848C232.288 66.3466 230.897 65.4861 230.897 65.4288Z" fill="#512E4E"/>
<path opacity="0.1" d="M202.512 120.418L199.786 115.382L198.922 123.153C198.922 123.153 199.403 126.605 199.306 127.135C199.209 127.664 201.275 132.41 201.275 132.41C201.275 132.41 208.097 144.548 210.882 145.171L220.281 138.454L217.785 135.289C217.785 135.289 216.921 134.952 216.704 135.289C216.704 135.289 212.068 127.325 211.59 126.751C211.112 126.178 211.203 125.023 211.203 125.023C211.203 125.023 210.483 124.256 210.723 123.536C210.963 122.817 209.345 120.324 209.345 120.324L210.833 118.934L202.512 120.418Z" fill="black"/>
<path d="M199.93 114.806L199.209 115.382L198.345 123.153C198.345 123.153 198.826 126.605 198.729 127.135C198.632 127.664 200.7 132.41 200.7 132.41C200.7 132.41 207.52 144.548 210.305 145.171L219.72 138.454L217.221 135.289C217.221 135.289 216.357 134.952 216.14 135.289C216.14 135.289 211.506 127.325 211.026 126.751C210.546 126.178 210.642 125.023 210.642 125.023C210.642 125.023 209.922 124.256 210.162 123.536C210.402 122.817 208.768 120.324 208.768 120.324L210.256 118.934L199.93 114.806Z" fill="white"/>
<path opacity="0.1" d="M244.645 145.257C245.167 145.891 244.838 148.739 244.838 148.739L243.397 151.119C243.397 151.119 243.483 152.658 243.489 154.733L241.066 155.49C240.847 155.558 240.614 155.573 240.388 155.533C240.162 155.493 239.948 155.4 239.765 155.262C239.582 155.123 239.435 154.942 239.336 154.735C239.237 154.528 239.189 154.3 239.196 154.071L239.617 140.616L245.269 142.772C244.789 143.106 245.316 143.925 245.316 143.925C245.316 143.925 244.118 144.624 244.645 145.257Z" fill="black"/>
<path d="M244.932 144.971C245.455 145.602 245.126 148.449 245.126 148.449L243.69 150.832C243.69 150.832 243.776 152.368 243.784 154.444L241.316 155.213C241.102 155.28 240.875 155.295 240.654 155.257C240.433 155.218 240.224 155.127 240.045 154.992C239.866 154.856 239.722 154.68 239.626 154.478C239.529 154.275 239.482 154.053 239.489 153.829L239.909 140.326L245.559 142.488C245.076 142.822 245.603 143.641 245.603 143.641C245.603 143.641 244.405 144.337 244.932 144.971Z" fill="white"/>
<path d="M246.807 138.551C246.807 138.551 246.423 140.999 245.462 141.143C244.502 141.286 244.071 145.104 243.113 144.971C242.155 144.838 242.789 141.419 242.823 140.757C242.857 140.094 241.779 137.351 242.583 136.728C243.387 136.105 245.945 136.728 245.945 136.728L246.807 138.551Z" fill="#CF6F80"/>
<path opacity="0.1" d="M248.838 119.698L250.648 116.047C250.648 116.047 251.371 118.83 251.371 120.316C251.371 121.802 252.378 121.948 252.378 121.948C252.378 121.948 253.483 123.252 252.901 124.204C252.318 125.156 252.086 127.513 252.086 127.513C252.086 127.513 252.277 132.021 251.412 132.645C250.548 133.268 250.355 134.757 250.355 134.757C250.355 134.757 248.77 137.586 248.82 138.259C248.87 138.931 246.611 143.487 246.611 143.487C246.611 143.487 247.716 137.826 241.28 135.38C241.28 135.38 241.23 133.461 241.711 132.934C242.191 132.407 242.94 132.152 242.47 129.502C242 126.853 242.335 123.659 242.335 123.02C242.335 122.381 243.776 118.399 243.776 118.399L248.838 119.698Z" fill="black"/>
<path d="M249.642 115.526L251.224 116.047C251.224 116.047 251.948 118.83 251.948 120.316C251.948 121.802 252.955 121.948 252.955 121.948C252.955 121.948 254.06 123.252 253.478 124.204C252.895 125.156 252.66 127.513 252.66 127.513C252.66 127.513 252.854 132.021 251.989 132.645C251.125 133.268 250.945 134.757 250.945 134.757C250.945 134.757 249.36 137.586 249.41 138.259C249.46 138.931 247.199 143.487 247.199 143.487C247.199 143.487 248.303 137.826 241.867 135.38C241.867 135.38 241.82 133.461 242.301 132.934C242.781 132.407 243.53 132.152 243.06 129.502C242.591 126.853 242.925 123.659 242.925 123.02C242.925 122.381 244.366 118.399 244.366 118.399L249.642 115.526Z" fill="white"/>
<path opacity="0.1" d="M214.689 210.147C214.689 210.147 217.211 208.564 218.866 209.714C220.521 210.864 214.689 210.147 214.689 210.147Z" fill="black"/>
<path opacity="0.1" d="M234.291 205.253C234.291 205.253 236.523 204.966 238.398 206.982C240.272 208.997 234.291 205.253 234.291 205.253Z" fill="black"/>
<g opacity="0.1">
<path opacity="0.1" d="M237.552 79.1473C237.231 79.4263 236.818 79.6218 236.604 79.9895C236.421 80.305 236.416 80.6962 236.27 81.0325C236.124 81.3689 235.698 81.6479 235.4 81.4341C235.333 79.0873 234.176 76.8839 232.753 75.0064C232.355 74.4406 231.872 73.94 231.32 73.5227C230.761 73.1022 230.066 72.905 229.369 72.9699C228.586 73.0768 227.897 73.6087 227.106 73.6765C226.062 73.7626 225.124 73.0403 224.088 73.0064C223.667 73.0096 223.251 73.1029 222.869 73.2802C222.487 73.4574 222.148 73.7144 221.874 74.0338C221.329 74.6758 220.924 75.4246 220.686 76.232C220.276 77.4572 220.052 78.737 220.023 80.0286C220.007 80.7561 219.939 81.6636 219.266 81.9348C219.281 82.1283 219.281 82.3227 219.266 82.5163C219.947 82.2555 220.015 81.335 220.031 80.6049C220.06 79.3133 220.283 78.0335 220.694 76.8082C220.932 76.0008 221.337 75.2521 221.882 74.6101C222.156 74.2907 222.495 74.0336 222.877 73.856C223.259 73.6783 223.674 73.5842 224.096 73.5801C225.14 73.6166 226.08 74.3389 227.114 74.2502C227.897 74.185 228.591 73.6531 229.377 73.5462C230.073 73.4806 230.769 73.6768 231.328 74.0964C231.88 74.5147 232.363 75.0161 232.761 75.5827C234.184 77.4601 235.34 79.6557 235.408 82.0104C235.706 82.2242 236.131 81.9426 236.278 81.6088C236.424 81.275 236.429 80.8839 236.612 80.5658C236.826 80.1981 237.238 79.9999 237.56 79.7235C238.374 79.0221 238.578 77.8409 238.546 76.7691C238.546 76.7352 238.546 76.7039 238.546 76.67C238.494 77.6036 238.246 78.5501 237.552 79.1473Z" fill="black"/>
<path opacity="0.1" d="M218.276 78.9647C217.678 78.305 216.858 77.8617 216.308 77.1629C215.842 76.546 215.577 75.8016 215.548 75.0299C215.466 75.9949 215.736 76.957 216.308 77.7392C216.858 78.438 217.678 78.8787 218.276 79.5384C218.854 80.1833 219.201 81.0014 219.263 81.8644C219.302 81.3396 219.235 80.8123 219.066 80.3141C218.896 79.8158 218.627 79.3569 218.276 78.9647Z" fill="black"/>
<path opacity="0.1" d="M239.053 71.0898C238.899 71.7287 238.625 72.3362 238.499 72.9803C238.424 73.4158 238.397 73.8583 238.419 74.2998C238.427 74.0504 238.454 73.802 238.499 73.5566C238.625 72.9125 238.899 72.3049 239.053 71.6661C239.141 71.3135 239.171 70.9487 239.139 70.5865C239.122 70.7561 239.093 70.9243 239.053 71.0898V71.0898Z" fill="black"/>
</g>
<path opacity="0.1" d="M35.5252 218.744C49.5751 218.744 60.9649 216.917 60.9649 214.664C60.9649 212.41 49.5751 210.583 35.5252 210.583C21.4753 210.583 10.0856 212.41 10.0856 214.664C10.0856 216.917 21.4753 218.744 35.5252 218.744Z" fill="#6C63FF"/>
<path d="M36.345 136.485H34.7081V173.297H36.345V136.485Z" fill="#535461"/>
<path d="M46.6342 173.187L46.5298 174.846L46.3862 177.193L46.3261 178.168L46.1799 180.515L46.1173 181.49L45.9737 183.837L44.321 210.452C44.2506 211.597 43.7454 212.673 42.9085 213.459C42.0716 214.244 40.9661 214.682 39.8174 214.682H31.2357C30.0838 214.682 28.9754 214.242 28.1379 213.453C27.3004 212.663 26.7974 211.583 26.732 210.434L25.0794 183.818L24.9358 181.472L24.8758 180.496L24.727 178.15L24.6669 177.174L24.5233 174.827L24.4189 173.169C24.4008 172.851 24.4477 172.533 24.5567 172.234C24.6657 171.934 24.8345 171.661 25.0528 171.429C25.2712 171.197 25.5345 171.011 25.8268 170.884C26.119 170.757 26.4342 170.691 26.7529 170.689H44.3027C44.6229 170.691 44.9394 170.758 45.2327 170.887C45.5259 171.015 45.7898 171.202 46.0081 171.436C46.2265 171.67 46.3946 171.946 46.5023 172.247C46.6099 172.548 46.6548 172.868 46.6342 173.187V173.187Z" fill="#3F3D56"/>
<path d="M46.5298 174.843L46.3836 177.185H24.6669L24.5207 174.843H46.5298Z" fill="#9D9CB5"/>
<path d="M46.3235 178.16L46.1799 180.502H24.8732L24.727 178.16H46.3235Z" fill="#9D9CB5"/>
<path d="M46.1173 181.479L45.9737 183.818H25.0794L24.9332 181.479H46.1173Z" fill="#9D9CB5"/>
<path d="M22.0326 150.285C31.5673 157.174 35.5383 167.949 35.5383 167.949C35.5383 167.949 24.0508 167.555 14.5135 160.666C4.97625 153.776 1 143.01 1 143.01C1 143.01 12.4875 143.396 22.0326 150.285Z" fill="#FFD66B"/>
<path d="M1 143.01C1 143.01 12.9235 149.62 16.7484 155.093C20.5732 160.567 35.5279 167.954 35.5279 167.954" stroke="#535461" stroke-width="2" stroke-miterlimit="10"/>
<path d="M28.1758 136.407C33.3661 140.154 35.5279 146.019 35.5279 146.019C35.5279 146.019 29.2619 145.805 24.0847 142.058C18.9075 138.311 16.7327 132.444 16.7327 132.444C16.7327 132.444 22.9882 132.658 28.1758 136.407Z" fill="#FFD66B"/>
<path d="M16.7327 132.444C16.7327 132.444 23.2232 136.042 25.3066 139.02C27.39 141.998 35.5279 146.019 35.5279 146.019" stroke="#535461" stroke-width="2" stroke-miterlimit="10"/>
<path d="M43.0679 145.722C37.1074 152.264 35.8464 160.814 35.8464 160.814C35.8464 160.814 44.2505 158.754 50.2058 152.209C56.161 145.664 57.4273 137.117 57.4273 137.117C57.4273 137.117 49.0283 139.179 43.0679 145.722Z" fill="#FFD66B"/>
<path d="M57.4325 137.119C57.4325 137.119 49.668 143.826 47.6942 148.447C45.7204 153.067 35.8464 160.814 35.8464 160.814" stroke="#535461" stroke-width="2" stroke-miterlimit="10"/>
<path d="M128.093 87.4739C124.903 88.7068 121.593 88.5716 118.177 87.2282C119.222 85.5443 117.756 84.1689 117.029 82.4248L129.909 82.3619C128.888 83.836 127.391 85.5705 128.093 87.4739Z" fill="white"/>
<path d="M116.168 81.4197L116.037 81.5681L117.277 82.6524L117.407 82.5039L116.168 81.4197Z" fill="white"/>
<path d="M130.104 83.8943L127.802 87.3139L127.966 87.424L130.268 84.0044L130.104 83.8943Z" fill="white"/>
<path d="M116.346 83.5533L116.176 83.6551L118.306 87.1848L118.475 87.0831L116.346 83.5533Z" fill="white"/>
<path d="M129.545 82.8442L129.408 82.7013L129.625 82.4959L130.922 81.0584L131.068 81.1903L129.766 82.6332L129.545 82.8442Z" fill="white"/>
<path d="M232.632 88.0818C229.243 89.3916 225.726 89.2479 222.098 87.8208C223.208 86.0318 221.651 84.5706 220.878 82.7178L234.561 82.6509C233.476 84.217 231.887 86.0597 232.632 88.0818Z" fill="white"/>
<path d="M219.963 81.65L219.825 81.8077L221.142 82.9596L221.28 82.8019L219.963 81.65Z" fill="white"/>
<path d="M234.769 84.279L232.323 87.9119L232.498 88.0288L234.943 84.3959L234.769 84.279Z" fill="white"/>
<path d="M220.152 83.9167L219.972 84.0248L222.234 87.7747L222.414 87.6666L220.152 83.9167Z" fill="white"/>
<path d="M234.174 83.1633L234.029 83.0115L234.259 82.7933L235.637 81.2662L235.793 81.4063L234.409 82.9391L234.174 83.1633Z" fill="white"/>
<path d="M199.175 240.409C199.175 240.409 199.369 236.335 203.358 236.808Z" fill="#3F3D56"/>
<path d="M198.048 236.532C199.15 236.532 200.044 235.639 200.044 234.537C200.044 233.436 199.15 232.543 198.048 232.543C196.945 232.543 196.051 233.436 196.051 234.537C196.051 235.639 196.945 236.532 198.048 236.532Z" fill="#FFD66B"/>
<path d="M198.286 237.896H197.723V241.838H198.286V237.896Z" fill="#3F3D56"/>
<path d="M271.865 241.253C271.865 241.253 272.059 237.18 276.048 237.653Z" fill="#3F3D56"/>
<path d="M270.738 237.377C271.84 237.377 272.734 236.484 272.734 235.382C272.734 234.28 271.84 233.387 270.738 233.387C269.635 233.387 268.742 234.28 268.742 235.382C268.742 236.484 269.635 237.377 270.738 237.377Z" fill="#FFD66B"/>
<path d="M270.977 238.741H270.413V242.682H270.977V238.741Z" fill="#3F3D56"/>
<path d="M152.123 234.215C152.123 234.215 152.318 230.141 156.306 230.615Z" fill="#3F3D56"/>
<path d="M150.996 230.338C152.099 230.338 152.992 229.445 152.992 228.344C152.992 227.242 152.099 226.349 150.996 226.349C149.894 226.349 149 227.242 149 228.344C149 229.445 149.894 230.338 150.996 230.338Z" fill="#FFD66B"/>
<path d="M151.235 231.703H150.671V235.644H151.235V231.703Z" fill="#3F3D56"/>
<path d="M182.833 228.866C182.833 228.866 183.028 224.792 187.017 225.266Z" fill="#3F3D56"/>
<path d="M181.706 224.989C182.809 224.989 183.703 224.096 183.703 222.995C183.703 221.893 182.809 221 181.706 221C180.604 221 179.71 221.893 179.71 222.995C179.71 224.096 180.604 224.989 181.706 224.989Z" fill="#FFD66B"/>
<path d="M181.945 226.354H181.382V230.295H181.945V226.354Z" fill="#3F3D56"/>
<path d="M259.75 236.467C259.75 236.467 259.944 232.394 263.933 232.867Z" fill="#3F3D56"/>
<path d="M258.623 232.591C259.725 232.591 260.619 231.698 260.619 230.596C260.619 229.494 259.725 228.601 258.623 228.601C257.52 228.601 256.627 229.494 256.627 230.596C256.627 231.698 257.52 232.591 258.623 232.591Z" fill="#FFD66B"/>
<path d="M258.861 233.955H258.298V237.896H258.861V233.955Z" fill="#3F3D56"/>
<defs>
<linearGradient id="paint0_linear_53:274" x1="122.413" y1="217.879" x2="122.413" y2="67.2514" gradientUnits="userSpaceOnUse">
<stop stop-color="#808080" stop-opacity="0.25"/>
<stop offset="0.54" stop-color="#808080" stop-opacity="0.12"/>
<stop offset="1" stop-color="#808080" stop-opacity="0.1"/>
</linearGradient>
<linearGradient id="paint1_linear_53:274" x1="49679" y1="141162" x2="49679" y2="42433.1" gradientUnits="userSpaceOnUse">
<stop stop-color="#808080" stop-opacity="0.25"/>
<stop offset="0.54" stop-color="#808080" stop-opacity="0.12"/>
<stop offset="1" stop-color="#808080" stop-opacity="0.1"/>
</linearGradient>
</defs>
</svg>
