<svg width="55" height="87" viewBox="0 0 55 87" fill="none" xmlns="http://www.w3.org/2000/svg">
<circle cx="27.5" cy="27.5" r="27.5" fill="white" fill-opacity="0.2"/>
<path d="M35.8791 30.0658L19.2239 30.2278C18.4411 26.3808 15.8108 16.2871 18.1796 13.5339C18.2875 12.4977 18.7917 11.543 19.5872 10.8685C20.3826 10.194 21.4081 9.85171 22.45 9.91289C25.0314 5.87946 29.3312 6.48506 32.2373 9.00411C35.1621 10.0114 36.2647 11.801 35.8791 14.2296C38.0451 16.1221 38.4447 18.4245 37.4724 21.0455L35.8791 30.0658Z" fill="#2F2E41"/>
<path d="M34.2758 40.307L22.2595 38.6463L19.8563 35.1403C23.1668 32.9484 24.3383 29.8869 22.8141 25.7294L31.133 25.5449C30.7433 29.2471 31.9698 32.1137 35.3849 33.8486L34.2758 40.307Z" fill="#FFB9B9"/>
<path d="M27.4357 28.6819C32.0302 28.6819 35.7547 24.9642 35.7547 20.3782C35.7547 15.7922 32.0302 12.0745 27.4357 12.0745C22.8413 12.0745 19.1168 15.7922 19.1168 20.3782C19.1168 24.9642 22.8413 28.6819 27.4357 28.6819Z" fill="#FFB9B9"/>
<path d="M43.8888 86.2541L10.2433 86.6232C15.2365 67.6496 18.2233 50.0248 13.0163 37.9082L21.3352 33.8486C25.3464 38.0247 29.8136 37.5942 34.6455 33.4796L42.5947 35.5093C41.2332 51.3984 41.8435 68.4157 43.8888 86.2541Z" fill="#F14A4A"/>
<path d="M1 66.6943L21.8898 74.998L26.5602 76.3691C26.7691 76.4305 26.9883 76.449 27.2046 76.4237C27.4208 76.3983 27.6297 76.3296 27.8187 76.2216C28.0077 76.1136 28.1729 75.9686 28.3043 75.7953C28.4357 75.622 28.5307 75.424 28.5835 75.2131C28.6761 74.8434 28.6345 74.4529 28.4662 74.1108C28.2978 73.7688 28.0135 73.4973 27.6637 73.3445L22.8141 71.861L8.20975 63.3728L11.26 55.3459L4.88217 51.9322L1 66.6943Z" fill="#FFB9B9"/>
<path d="M1.18488 51.5631C5.15937 53.1108 8.32055 55.7522 10.7979 59.3132L18.5622 48.0571L13.0163 37.9081L1.18488 51.5631Z" fill="#F14A4A"/>
<path d="M36.8116 19.0324C33.4352 18.164 30.1156 18.0448 26.8887 19.1463C24.8331 20.14 22.3645 20.0485 19.6192 19.2297V10.9451L34.4403 11.3396L36.8116 19.0324Z" fill="#2F2E41"/>
<path d="M21.8205 57.0194C21.1672 57.0201 20.541 57.2795 20.0791 57.7405C19.6171 58.2016 19.3573 58.8267 19.3566 59.4788L20.3291 79.7996C20.3299 80.4516 20.5897 81.0768 21.0516 81.5378C21.5135 81.9989 22.1398 82.2582 22.793 82.259H33.9121C34.5653 82.2582 35.1916 81.9989 35.6535 81.5378C36.1154 81.0768 36.3752 80.4516 36.376 79.7996L37.3485 59.4788C37.3478 58.8267 37.0879 58.2016 36.626 57.7405C36.1641 57.2795 35.5379 57.0201 34.8846 57.0194H21.8205Z" fill="#3F3D56"/>
<path d="M53.3686 65.1591L35.1603 72.3961L33.7866 72.9421C33.7428 72.9591 33.699 72.9737 33.6528 72.9882L29.0503 74.34C28.4619 74.5123 27.6474 73.7212 27.1709 73.1751C26.935 72.912 26.8013 72.5731 26.7942 72.22C26.787 71.867 26.9069 71.523 27.132 71.2506C27.1956 71.1774 27.2656 71.11 27.3411 71.0492C27.5185 70.9114 27.7273 70.8196 27.9489 70.7822L32.5466 69.8794C32.7115 69.8471 32.87 69.7881 33.0158 69.7047L35.1603 68.4573L46.2934 61.9872C46.603 61.8076 46.8387 61.5241 46.9585 61.1872C47.0782 60.8503 47.0743 60.4819 46.9474 60.1476L44.8224 54.5537C44.6921 54.2114 44.691 53.8335 44.8195 53.4905C44.9479 53.1475 45.197 52.8629 45.5202 52.6898L49.0408 50.8066C49.2419 50.6988 49.465 50.638 49.6931 50.6287C49.9213 50.6194 50.1485 50.662 50.3578 50.7531C50.5671 50.8442 50.7529 50.9816 50.9013 51.1548C51.0497 51.328 51.1567 51.5325 51.2144 51.7531L54.2706 63.3729C54.3645 63.7293 54.3247 64.1076 54.1585 64.4366C53.9924 64.7656 53.7114 65.0226 53.3686 65.1591Z" fill="#FFB9B9"/>
<path d="M54.4261 49.5333C50.4516 51.0811 47.2905 53.7225 44.8131 57.2835L37.0488 46.0273L42.5947 35.5093L54.4261 49.5333Z" fill="#F14A4A"/>
<path d="M32.9721 27.7689C29.3328 29.2799 25.5168 29.2186 21.5448 27.7689C22.7006 25.7997 20.973 24.2575 20.086 22.2697L34.9172 21.8297C33.783 23.5566 32.1094 25.5969 32.9721 27.7689Z" fill="white"/>
<path d="M34.7601 22.1583L34.588 21.9867L34.8311 21.744L36.2836 20.052L36.4684 20.2097L35.0095 21.9086L34.7601 22.1583Z" fill="white"/>
<path d="M19.0698 21.1298L18.914 21.3163L20.3728 22.5297L20.5285 22.3432L19.0698 21.1298Z" fill="white"/>
<path d="M35.1791 23.585L32.6256 27.589L32.8308 27.7193L35.3843 23.7154L35.1791 23.585Z" fill="white"/>
<path d="M19.3376 23.5848L19.1324 23.7151L21.6853 27.7194L21.8905 27.5891L19.3376 23.5848Z" fill="white"/>
<path d="M35.6465 68.114V72.5107L34.1131 73.1202C34.0643 73.1392 34.0155 73.1554 33.9639 73.1717L28.8264 74.6805C28.1696 74.8729 27.2604 73.9898 26.7285 73.3802C26.4651 73.0865 26.3159 72.7083 26.308 72.3142C26.3 71.9201 26.4338 71.5361 26.6851 71.232C26.756 71.1503 26.8342 71.0751 26.9185 71.0072C27.1165 70.8534 27.3496 70.751 27.597 70.7092L32.729 69.7015C32.9131 69.6654 33.0901 69.5995 33.2528 69.5064L35.6465 68.114Z" fill="white"/>
<path d="M37.8687 52.4316H36.9901C36.9901 40.0277 34.4315 31.3836 31.9381 31.3836L31.7184 30.5066C33.9545 30.5066 35.3801 34.1042 36.1823 37.1223C37.2698 41.2139 37.8687 46.6508 37.8687 52.4316Z" fill="#3F3D56"/>
<path d="M17.6606 49.3622H16.782C16.782 38.0021 19.3584 30.9451 23.152 30.9451L22.9323 31.8221C20.3083 31.8221 17.6606 37.2457 17.6606 49.3622Z" fill="#3F3D56"/>
<path d="M37.4294 54.8434C38.6425 54.8434 39.6259 53.8618 39.6259 52.6509C39.6259 51.44 38.6425 50.4584 37.4294 50.4584C36.2163 50.4584 35.2328 51.44 35.2328 52.6509C35.2328 53.8618 36.2163 54.8434 37.4294 54.8434Z" fill="#3F3D56"/>
<path d="M14.1462 54.6242H13.2676C13.2676 51.4809 15.0412 48.9236 17.2213 48.9236V49.8006C15.5257 49.8006 14.1462 51.9645 14.1462 54.6242Z" fill="#3F3D56"/>
<path d="M21.1751 54.6242H20.2965C20.2965 51.9645 18.917 49.8006 17.2213 49.8006V48.9236C19.4015 48.9236 21.1751 51.4809 21.1751 54.6242Z" fill="#3F3D56"/>
<path d="M20.7358 55.7204C21.221 55.7204 21.6144 55.3277 21.6144 54.8434C21.6144 54.359 21.221 53.9664 20.7358 53.9664C20.2506 53.9664 19.8572 54.359 19.8572 54.8434C19.8572 55.3277 20.2506 55.7204 20.7358 55.7204Z" fill="#3F3D56"/>
<path d="M13.7069 55.7204C14.1921 55.7204 14.5855 55.3277 14.5855 54.8434C14.5855 54.359 14.1921 53.9664 13.7069 53.9664C13.2216 53.9664 12.8283 54.359 12.8283 54.8434C12.8283 55.3277 13.2216 55.7204 13.7069 55.7204Z" fill="#3F3D56"/>
</svg>
