<svg width="16" height="16" viewBox="0 0 16 16" fill="none" xmlns="http://www.w3.org/2000/svg">
<path d="M9.13334 15.7999C12.8152 15.7999 15.8 12.8151 15.8 9.13322C15.8 5.45132 12.8152 2.46655 9.13334 2.46655C5.45144 2.46655 2.46667 5.45132 2.46667 9.13322C2.46667 12.8151 5.45144 15.7999 9.13334 15.7999Z" fill="#F14A4A"/>
<path d="M5.73335 1.69995H3.33335L0.200012 6.39995V9.89995H1.53335C1.66668 10.9 2.50001 11.6666 3.53335 11.6666C4.56668 11.6666 5.43335 10.9 5.53335 9.89995H9.16668C9.30001 10.9 10.1333 11.6666 11.1667 11.6666C12.2 11.6666 13.0667 10.9 13.1667 9.89995H14.9667V0.199951H5.76668L5.73335 1.69995ZM3.60001 2.19995H5.73335V6.26662H0.900012L3.60001 2.19995ZM3.56668 11.1666C2.73335 11.1666 2.03335 10.4666 2.03335 9.63328C2.03335 8.79995 2.73335 8.09995 3.56668 8.09995C4.40001 8.09995 5.10001 8.79995 5.10001 9.63328C5.10001 10.5 4.40001 11.1666 3.56668 11.1666ZM11.2333 11.1666C10.4 11.1666 9.70001 10.4666 9.70001 9.63328C9.70001 8.79995 10.4 8.09995 11.2333 8.09995C12.0667 8.09995 12.7667 8.79995 12.7667 9.63328C12.7667 10.5 12.0667 11.1666 11.2333 11.1666ZM14.5333 0.699951V9.39995H13.2333C13.1 8.39995 12.2667 7.63328 11.2333 7.63328C10.2 7.63328 9.33335 8.39995 9.23335 9.39995H5.56668C5.43335 8.39995 4.60001 7.63328 3.56668 7.63328C2.53335 7.63328 1.66668 8.39995 1.56668 9.39995H0.700012V6.73328H6.23335V1.93328L6.26668 0.699951H14.5333Z" fill="white"/>
<path d="M10 5.3667H10.5V4.13337H11.7333V3.63337H10.5V2.3667H10V3.63337H8.76666V4.13337H10V5.3667Z" fill="white"/>
</svg>
