<svg width="20" height="27" viewBox="0 0 20 27" fill="none" xmlns="http://www.w3.org/2000/svg">
<path d="M9.5806 0C5.97871 0 3.04834 2.93037 3.04834 6.53226V10.0161H3.48382C3.48382 9.05415 4.26378 8.27419 5.22576 8.27419V6.09677C6.34103 7.21205 7.8539 7.83871 9.43123 7.83871H9.5806L9.14511 6.09677L9.9464 6.63111C11.1274 7.41847 12.5158 7.83871 13.9354 7.83871V8.27419C14.8974 8.27419 15.6774 9.05415 15.6774 10.0161H16.1129V6.53226C16.1129 2.93037 13.1825 0 9.5806 0Z" fill="#F14A4A"/>
<path d="M11.3226 19.5967L9.58068 18.2903L7.83875 19.5967L8.70971 21.3387L7.83875 26.5645H11.3226L10.4516 21.3387L11.3226 19.5967Z" fill="#F14A4A"/>
<path d="M7.40326 10.0162C7.64377 10.0162 7.83874 9.82126 7.83874 9.58075C7.83874 9.34024 7.64377 9.14526 7.40326 9.14526C7.16275 9.14526 6.96777 9.34024 6.96777 9.58075C6.96777 9.82126 7.16275 10.0162 7.40326 10.0162Z" fill="#261C2C"/>
<path d="M11.7581 10.0162C11.9986 10.0162 12.1936 9.82126 12.1936 9.58075C12.1936 9.34024 11.9986 9.14526 11.7581 9.14526C11.5176 9.14526 11.3226 9.34024 11.3226 9.58075C11.3226 9.82126 11.5176 10.0162 11.7581 10.0162Z" fill="#261C2C"/>
<path d="M9.58068 13.5C10.5414 13.5 11.3226 12.7187 11.3226 11.7581H10.4516C10.4516 12.2384 10.061 12.629 9.58068 12.629C9.10034 12.629 8.70971 12.2384 8.70971 11.7581H7.83875C7.83875 12.7187 8.62 13.5 9.58068 13.5Z" fill="#261C2C"/>
<path d="M16.8985 16.9171L12.629 15.7779V14.579C13.3741 13.9628 13.9259 13.124 14.192 12.1673C15.2707 12.0388 16.1129 11.1286 16.1129 10.016C16.1129 8.96471 15.3634 8.08504 14.371 7.88254V5.66113H13.5V7.38696C12.3172 7.31118 11.1802 6.9297 10.1881 6.2682L8.44969 5.10938L9.01974 7.38783C7.75989 7.29507 6.58713 6.7751 5.66173 5.905V5.66113H4.79076V7.88254C3.79829 8.08504 3.04882 8.96428 3.04882 10.016C3.04882 11.1286 3.89105 12.0388 4.96974 12.1673C5.23582 13.124 5.78758 13.9628 6.53269 14.579V15.7779L2.26321 16.9166C0.930629 17.272 0 18.4826 0 19.8618V26.9998H19.1613V19.8618C19.1613 18.4826 18.2307 17.272 16.8985 16.9171ZM18.2903 19.8618V23.0805H15.6948C15.775 21.2693 16.1656 19.5056 16.8554 17.8233C17.7072 18.1343 18.2903 18.9425 18.2903 19.8618ZM3.14681 17.5825L5.66129 16.9119V21.2536L9.54407 18.8267L9.58108 18.8019L9.61723 18.8267L13.5 21.2536V16.9119L16.0145 17.5825C15.2158 19.5605 14.8065 21.6447 14.8065 23.7842V26.1289H4.35484V23.7842C4.35484 21.6447 3.94548 19.5605 3.14681 17.5825ZM12.2994 16.5918L12.629 16.6797V19.6815L10.3214 18.2396L12.2994 16.5918ZM15.2419 10.016C15.2419 10.5895 14.8679 11.0729 14.3527 11.248C14.3618 11.1282 14.371 11.0089 14.371 10.8869V8.78965C14.8766 8.96994 15.2419 9.44897 15.2419 10.016ZM3.91936 10.016C3.91936 9.44897 4.28473 8.96994 4.79032 8.78965V10.8869C4.79032 11.0089 4.79947 11.1282 4.80861 11.248C4.29344 11.0729 3.91936 10.5895 3.91936 10.016ZM5.66129 10.8869V7.03378C6.74913 7.83507 8.05515 8.27404 9.43127 8.27404H10.1385L9.83976 7.08168C10.9433 7.78412 12.1979 8.18476 13.4996 8.25879V10.8869C13.4996 13.0482 11.7415 14.8063 9.58021 14.8063C7.4189 14.8063 5.66129 13.0482 5.66129 10.8869ZM9.58065 15.6773C10.365 15.6773 11.104 15.4839 11.7581 15.1486V15.9085L9.58065 17.7232L7.40323 15.9085V15.1486C8.05732 15.4839 8.79634 15.6773 9.58065 15.6773ZM6.86192 16.5918L8.83989 18.2396L6.53226 19.6815V16.6797L6.86192 16.5918ZM2.30545 17.8233C2.99526 19.5056 3.38632 21.2693 3.46602 23.0805H0.870968V19.8618C0.870968 18.9425 1.45408 18.1343 2.30545 17.8233ZM0.870968 23.9515H3.48387V26.1289H0.870968V23.9515ZM15.6774 26.1289V23.9515H18.2903V26.1289H15.6774Z" fill="#261C2C"/>
</svg>
