<svg width="26" height="27" viewBox="0 0 26 27" fill="none" xmlns="http://www.w3.org/2000/svg">
<path d="M14.7202 26.3385C8.4905 26.3385 3.44035 21.2883 3.44035 15.0586C3.44035 8.82896 8.4905 3.77881 14.7202 3.77881C20.9498 3.77881 26 8.82896 26 15.0586C26 21.2883 20.9498 26.3385 14.7202 26.3385Z" fill="#F14A4A"/>
<path d="M18.6117 11.0542C18.7809 11.3926 18.7809 11.731 18.6117 12.013C18.4425 12.295 18.1605 12.4642 17.8221 12.4642H16.4122V14.3254H13.9306C13.4794 14.3254 13.141 14.6638 13.141 15.115C13.141 15.5662 13.4794 15.961 13.9306 15.961H16.4686V16.9197C16.4686 18.2733 15.397 19.3449 14.0434 19.3449H11.5618V20.2473H13.0282V23.0672H1.46638V20.2473H2.93276V17.5965L1.52278 16.7505C0.620396 16.1866 5.72205e-06 15.1714 5.72205e-06 14.0998V8.12148C5.72205e-06 3.60954 3.66595 0 8.12148 0H18.0477V1.35358C18.0477 3.10195 16.9197 4.62473 15.3406 5.18872V6.5423L18.6117 11.0542ZM2.25597 22.1649H12.1258V21.0369H2.25597V22.1649ZM17.2017 1.35358V0.789588H8.12148C4.11714 0.789588 0.845993 4.06074 0.845993 8.06508V14.0434C0.845993 14.833 1.24079 15.5662 1.91758 15.961L3.10196 16.6941C3.89155 16.3557 7.1627 14.7202 7.1627 10.1518V9.75705H8.57267C8.57267 8.74187 8.62907 6.2603 9.70066 5.13232C10.0955 4.73753 10.5466 4.51193 11.0542 4.51193H13.987C15.7918 4.51193 17.2017 3.10195 17.2017 1.35358ZM14.0434 5.35792H11.1106C10.8286 5.35792 10.5466 5.47072 10.321 5.69631C9.41866 6.6551 9.36226 9.19306 9.41866 10.1518V10.603H7.95228C7.78309 14.8894 4.90673 16.7505 3.66595 17.3709V20.2473H10.6594V18.4989H13.987C14.8894 18.4989 15.5662 17.7657 15.5662 16.9197V16.8069H13.8742C12.9718 16.8069 12.2386 16.0738 12.2386 15.1714C12.2386 14.269 12.9718 13.5358 13.8742 13.5358H15.5098V11.6746H17.8221C17.8221 11.6746 17.8785 11.6746 17.8785 11.6182V11.5618L14.4382 6.8243V5.41432C14.3254 5.35792 14.2126 5.35792 14.0434 5.35792Z" fill="#384A66"/>
<path d="M14.1562 8.29083L14.833 8.96762L14.2126 9.58801L13.5358 8.91122L12.859 9.58801L12.2386 8.96762L12.9154 8.29083L12.2386 7.61404L12.859 6.99365L13.5358 7.67044L14.2126 6.99365L14.833 7.61404L14.1562 8.29083Z" fill="#384A66"/>
<path d="M11.2234 13.8744C10.2646 13.8744 9.47506 13.0848 9.47506 12.126C9.47506 11.28 10.6594 9.53166 10.885 9.19326L11.2234 8.68567L11.5618 9.19326C11.7874 9.53166 12.9718 11.28 12.9718 12.126C12.9718 13.0848 12.1822 13.8744 11.2234 13.8744ZM11.2234 10.2084C10.7158 10.998 10.321 11.844 10.321 12.126C10.321 12.6336 10.7158 13.0284 11.2234 13.0284C11.731 13.0284 12.1258 12.6336 12.1258 12.126C12.1258 11.7876 11.6746 10.9416 11.2234 10.2084Z" fill="#384A66"/>
<path d="M23.9696 23.9133H19.6269V21.5445L18.3861 20.3037V17.9914C18.3861 17.2018 19.0065 16.5814 19.7961 16.5814C20.4165 16.5814 20.9241 16.9762 21.1496 17.5402V16.525L19.1193 14.4946C18.8373 14.2126 18.7245 13.8742 18.7245 13.4794C18.7245 13.0846 18.8937 12.7462 19.1193 12.4643C19.6833 11.9003 20.5857 11.9003 21.1496 12.4643L23.9696 15.397V23.9133ZM23.1236 15.7354L20.4729 13.0846C20.2473 12.859 19.9089 12.859 19.6833 13.0846C19.5705 13.1974 19.5141 13.3102 19.5141 13.4794C19.5141 13.6486 19.5705 13.7614 19.6833 13.8742L21.9956 16.1866V20.0217V20.2473L21.488 20.5857L20.3601 19.4577V17.9914C20.3601 17.653 20.0781 17.4274 19.7961 17.4274C19.5141 17.4274 19.2321 17.7094 19.2321 17.9914V19.9089L20.4729 21.1497V23.0109H23.1236V15.7354Z" fill="#384A66"/>
<path d="M22.3904 8.23424L20.5857 6.42946L18.7809 8.23424L18.1605 7.61385L19.9653 5.80907L18.1605 4.0043L18.7809 3.38391L20.5857 5.18868L22.3904 3.38391L22.9544 4.0043L21.1497 5.80907L22.9544 7.61385L22.3904 8.23424Z" fill="#384A66"/>
</svg>
