<svg width="24" height="23" viewBox="0 0 24 23" fill="none" xmlns="http://www.w3.org/2000/svg">
<path d="M13.3828 22.6864C18.7487 22.6864 23.0986 18.3365 23.0986 12.9706C23.0986 7.60473 18.7487 3.25482 13.3828 3.25482C8.01691 3.25482 3.66701 7.60473 3.66701 12.9706C3.66701 18.3365 8.01691 22.6864 13.3828 22.6864Z" fill="#FFD66B"/>
<path d="M2.0639 12.6305C2.20964 15.691 4.78432 18.1685 7.89337 18.1685C11.0024 18.1685 13.6257 15.691 13.7714 12.6305C14.5487 12.4848 15.1802 11.9018 15.3745 11.1732C15.7146 11.2217 16.0061 11.2703 16.3461 11.2703C19.4552 11.2703 21.9813 8.74421 21.9813 5.63516C21.9813 2.52611 19.4552 0 16.3461 0C14.8402 0 13.48 0.582948 12.4598 1.55453C11.1482 0.534369 9.54506 0 7.89337 0C3.71558 0 0.363636 3.40053 0.363636 7.52974V9.27858V10.0558V10.6874C0.363636 11.6104 1.09232 12.4362 2.0639 12.6305ZM1.09232 10.6388V9.76437C1.18948 9.71579 1.28664 9.71579 1.33522 9.66721C1.52953 9.61863 1.67527 9.52148 1.86958 9.4729C1.91816 9.4729 1.96674 9.42432 2.01532 9.42432V11.9018C1.48095 11.7075 1.09232 11.2217 1.09232 10.6388ZM7.89337 17.4398C5.0758 17.4398 2.74401 15.1081 2.74401 12.2905V9.08426C4.39569 8.25842 5.51301 7.28684 5.9988 6.84963C7.69906 8.06411 9.73937 8.88995 12.1197 9.32716C12.4112 9.66721 12.7513 9.95869 13.0913 10.2016V12.2905C13.0427 15.1081 10.7595 17.4398 7.89337 17.4398ZM13.7714 11.8533V10.5902C14.0629 10.7359 14.3544 10.8817 14.6458 10.9303C14.5487 11.4161 14.2086 11.7561 13.7714 11.8533ZM16.3461 0.680105C19.0665 0.680105 21.2526 2.86616 21.2526 5.58658C21.2526 8.307 19.0665 10.4931 16.3461 10.4931C13.6257 10.4931 11.4396 8.307 11.4396 5.58658C11.4396 2.91474 13.6743 0.680105 16.3461 0.680105ZM7.89337 0.680105C9.35074 0.680105 10.8081 1.1659 11.974 2.04032C11.1967 3.0119 10.711 4.22637 10.711 5.58658C10.711 6.60674 11.0024 7.57832 11.4882 8.40416C9.4479 7.96695 7.65048 7.14111 6.19311 6.02379L5.90164 5.82948L5.65874 6.07237C5.65874 6.07237 4.39569 7.43258 2.20964 8.50132C1.96674 8.59848 1.72385 8.69563 1.52953 8.79279C1.43237 8.84137 1.38379 8.88995 1.33522 8.88995C1.23806 8.93853 1.18948 8.93853 1.09232 8.98711V7.52974C1.09232 3.74058 4.1528 0.680105 7.89337 0.680105Z" fill="#384A66"/>
<path d="M7.89336 12.2419C6.77604 12.2419 5.85304 13.1649 5.85304 14.2823C5.85304 15.3996 6.77604 16.3226 7.89336 16.3226C9.01067 16.3226 9.93367 15.3996 9.93367 14.2823C9.93367 13.1649 9.01067 12.2419 7.89336 12.2419ZM7.89336 15.5453C7.16467 15.5453 6.58172 14.9624 6.58172 14.2337C6.58172 13.505 7.16467 12.922 7.89336 12.922C8.62204 12.922 9.20499 13.505 9.20499 14.2337C9.20499 14.9624 8.62204 15.5453 7.89336 15.5453Z" fill="#384A66"/>
<path d="M5.27011 9.7158C5.12438 9.61864 4.88148 9.61864 4.78432 9.81295C4.68717 10.0073 4.68717 10.2016 4.88148 10.2987L5.70732 10.8817L4.88148 11.4646C4.73574 11.5618 4.68717 11.8047 4.78432 11.9504C4.8329 12.0476 4.97864 12.0962 5.0758 12.0962C5.12438 12.0962 5.22153 12.0962 5.27011 12.0476L6.9218 10.8817L5.27011 9.7158Z" fill="#384A66"/>
<path d="M11.051 9.76434C10.9539 9.61861 10.711 9.57003 10.5652 9.66719L8.91354 10.8331L10.5652 11.999C10.6138 12.0476 10.711 12.0476 10.7595 12.0476C10.8567 12.0476 11.0024 11.999 11.051 11.9018C11.1482 11.7561 11.1482 11.5132 10.9539 11.416L10.128 10.8331L10.9539 10.2501C11.1482 10.153 11.1482 9.95866 11.051 9.76434Z" fill="#384A66"/>
<path d="M8.28201 19.043H7.55333V21.5691H8.28201V19.043Z" fill="#384A66"/>
<path d="M11.5045 17.9028L10.9893 18.4181L12.7755 20.2043L13.2907 19.689L11.5045 17.9028Z" fill="#384A66"/>
<path d="M4.3144 17.9148L2.52794 19.701L3.04319 20.2163L4.82965 18.4301L4.3144 17.9148Z" fill="#384A66"/>
<path d="M18.9208 5.24654H16.7347V1.84601H16.0061V5.97522H18.9208V5.24654Z" fill="#384A66"/>
</svg>
