<svg width="16" height="18" viewBox="0 0 16 18" fill="none" xmlns="http://www.w3.org/2000/svg">
<path d="M9.49019 15.6845H6.78889C6.24863 15.6845 5.78555 16.3019 6.09427 16.8422C6.55735 17.5368 7.32915 17.9999 8.17813 17.9999C9.02711 17.9999 9.79891 17.5368 10.1848 16.8422C10.4935 16.3019 10.1076 15.6845 9.49019 15.6845Z" fill="#261C2C"/>
<path d="M15.7417 13.1377L15.433 12.7518C14.1981 11.131 13.5807 9.2015 13.5807 7.19482V6.65456C13.5807 3.87608 11.574 1.40633 8.79552 1.09761C5.55396 0.711707 2.77549 3.25865 2.77549 6.42302V7.19482C2.77549 9.2015 2.15805 11.131 0.923167 12.7518L0.614448 13.1377C0.460088 13.292 0.382908 13.6008 0.460088 13.7551C0.691627 14.4497 1.30907 14.9128 2.00369 14.9128H14.3525C15.0471 14.9128 15.6645 14.4497 15.8189 13.7551C15.8961 13.5236 15.8189 13.292 15.7417 13.1377Z" fill="#261C2C"/>
<circle cx="11.5474" cy="2.64706" r="2.64706" fill="#F14A4A"/>
</svg>
