<svg width="15" height="15" viewBox="0 0 15 15" fill="none" xmlns="http://www.w3.org/2000/svg">
<path d="M7.78807 0.00511367C7.69261 0.00170458 7.59716 0 7.5 0C7.40284 0 7.30739 0.00170458 7.21193 0.00511367C3.20284 0.156818 0 3.45511 0 7.5C0 11.5449 3.20284 14.8432 7.21193 14.9949C7.30739 14.9983 7.40284 15 7.5 15C7.59716 15 7.69261 14.9983 7.78807 14.9949C11.7972 14.8432 15 11.5449 15 7.5C15 3.45511 11.7972 0.156818 7.78807 0.00511367ZM13.5972 6.81818H10.8852C10.7301 4.53409 9.81631 2.71193 9.05455 1.56136C11.4767 2.19545 13.3176 4.27159 13.5972 6.81818ZM7.5017 1.73523C8.17159 2.60795 9.32557 4.42841 9.51818 6.81818H5.48182C5.67443 4.43864 6.83182 2.61136 7.5017 1.73523ZM9.51818 8.18182C9.32557 10.5614 8.16989 12.3886 7.4983 13.2648C6.82841 12.392 5.67443 10.5716 5.48182 8.18182H9.51818ZM5.94545 1.56136C5.18352 2.71193 4.26989 4.53409 4.11477 6.81818H1.40284C1.68239 4.27159 3.5233 2.19545 5.94545 1.56136ZM1.40284 8.18182H4.11477C4.26989 10.4642 5.18182 12.2864 5.94375 13.4369C3.52159 12.8045 1.68239 10.7284 1.40284 8.18182ZM9.05625 13.4369C9.81818 12.2864 10.7301 10.4642 10.8852 8.18182H13.5972C13.3176 10.7284 11.4784 12.8045 9.05625 13.4369Z" fill="white"/>
</svg>
