<svg width="13" height="16" viewBox="0 0 13 16" fill="none" xmlns="http://www.w3.org/2000/svg">
<path d="M12 6.5C12 10.7778 6.5 14.4444 6.5 14.4444C6.5 14.4444 1 10.7778 1 6.5C1 5.04131 1.57946 3.64236 2.61091 2.61091C3.64236 1.57946 5.04131 1 6.5 1C7.95869 1 9.35764 1.57946 10.3891 2.61091C11.4205 3.64236 12 5.04131 12 6.5Z" stroke="white" stroke-width="1.5" stroke-linecap="round" stroke-linejoin="round"/>
<path d="M6.50002 8.33341C7.51254 8.33341 8.33335 7.5126 8.33335 6.50008C8.33335 5.48756 7.51254 4.66675 6.50002 4.66675C5.4875 4.66675 4.66669 5.48756 4.66669 6.50008C4.66669 7.5126 5.4875 8.33341 6.50002 8.33341Z" stroke="white" stroke-width="1.5" stroke-linecap="round" stroke-linejoin="round"/>
</svg>
