<svg width="11" height="12" viewBox="0 0 11 12" fill="none" xmlns="http://www.w3.org/2000/svg">
<path fill-rule="evenodd" clip-rule="evenodd" d="M1.65 6.07692C1.34624 6.07692 1.1 6.318 1.1 6.61538V10.3846C1.1 10.682 1.34624 10.9231 1.65 10.9231H9.35C9.65376 10.9231 9.9 10.682 9.9 10.3846V6.61538C9.9 6.318 9.65376 6.07692 9.35 6.07692H1.65ZM0 6.61538C0 5.72323 0.73873 5 1.65 5H9.35C10.2613 5 11 5.72323 11 6.61538V10.3846C11 11.2768 10.2613 12 9.35 12H1.65C0.73873 12 0 11.2768 0 10.3846V6.61538Z" fill="#2F2E41"/>
<path fill-rule="evenodd" clip-rule="evenodd" d="M5.5 1.09091C4.88116 1.09091 4.28767 1.32078 3.85008 1.72995C3.4125 2.13912 3.16667 2.69407 3.16667 3.27273V5.45455C3.16667 5.75579 2.9055 6 2.58333 6C2.26117 6 2 5.75579 2 5.45455V3.27273C2 2.40475 2.36875 1.57232 3.02513 0.95856C3.6815 0.344804 4.57174 0 5.5 0C6.42826 0 7.3185 0.344804 7.97487 0.95856C8.63125 1.57232 9 2.40475 9 3.27273V5.45455C9 5.75579 8.73883 6 8.41667 6C8.0945 6 7.83333 5.75579 7.83333 5.45455V3.27273C7.83333 2.69407 7.5875 2.13912 7.14992 1.72995C6.71233 1.32078 6.11884 1.09091 5.5 1.09091Z" fill="#2F2E41"/>
</svg>
