<svg width="15" height="16" viewBox="0 0 15 16" fill="none" xmlns="http://www.w3.org/2000/svg">
<path d="M6.5 16C9.53757 16 12 13.5376 12 10.5C12 7.46243 9.53757 5 6.5 5C3.46243 5 1 7.46243 1 10.5C1 13.5376 3.46243 16 6.5 16Z" fill="#F14A4A"/>
<path d="M0 3.86036V6.21335H1.32355V9.70606H4.74273V6.21335H6.06629V3.86036C6.06629 2.978 5.33098 2.24269 4.44861 2.24269H4.11772C4.30155 2.0221 4.41185 1.72797 4.41185 1.39708C4.41185 0.625012 3.78683 0 3.01476 0C2.24269 0 1.65444 0.661777 1.65444 1.43385C1.65444 1.76474 1.76474 2.0221 1.94857 2.27945H1.61768C0.735308 2.24269 0 2.978 0 3.86036ZM5.51481 3.86036V5.66187H4.74273V3.78683H4.19125V5.66187V5.95599V9.19134H3.30888V6.06629H2.7574V9.15458H1.87503V5.91923V5.6251V3.75007H1.32355V5.6251H0.551481V3.86036C0.551481 3.27212 1.02943 2.79417 1.61768 2.79417H4.48538C5.03686 2.79417 5.51481 3.27212 5.51481 3.86036ZM2.20592 1.43385C2.20592 0.992665 2.57358 0.588246 3.05153 0.588246C3.52948 0.588246 3.89713 0.9559 3.89713 1.43385C3.89713 1.9118 3.52948 2.27945 3.05153 2.27945C2.57358 2.27945 2.20592 1.87503 2.20592 1.43385Z" fill="#261C2C"/>
<path d="M12.4854 8.24269H12.1545C12.3383 8.0221 12.4486 7.72797 12.4486 7.39708C12.4486 6.62501 11.8236 6 11.0515 6C10.2795 6 9.65444 6.62501 9.65444 7.39708C9.65444 7.72797 9.76474 7.98533 9.94857 8.24269H9.61768C8.73531 8.24269 8 8.978 8 9.86036V12.2133H9.32355V15.7061H12.7427V12.2133H14.0663V9.86036C14.0663 8.94123 13.3677 8.24269 12.4854 8.24269ZM10.2059 7.39708C10.2059 6.9559 10.5736 6.55148 11.0515 6.55148C11.5295 6.55148 11.8971 6.91913 11.8971 7.39708C11.8971 7.83827 11.5295 8.24269 11.0515 8.24269C10.5736 8.24269 10.2059 7.83827 10.2059 7.39708ZM13.5148 11.6251H12.7427V9.75007H12.1913V11.6251V11.9192V15.1546H11.3089V12.0663H10.7574V15.1546H9.87503V11.9192V11.6251V9.75007H9.32355V11.6251H8.55148V9.8236C8.55148 9.23535 9.02943 8.7574 9.61768 8.7574H12.4854C13.0736 8.7574 13.5516 9.23535 13.5516 9.8236V11.6251H13.5148Z" fill="#261C2C"/>
</svg>
