<svg width="26" height="27" viewBox="0 0 26 27" fill="none" xmlns="http://www.w3.org/2000/svg">
<path d="M14.5714 26.7428C8.25959 26.7428 3.14284 21.626 3.14284 15.3142C3.14284 9.00237 8.25959 3.88562 14.5714 3.88562C20.8832 3.88562 26 9.00237 26 15.3142C26 21.626 20.8832 26.7428 14.5714 26.7428Z" fill="#F14A4A"/>
<path d="M1.48573 16.9143C0.57144 16.3429 9.53674e-06 15.3143 9.53674e-06 14.2286V8.22858C9.53674e-06 3.71429 3.7143 0 8.22859 0H18.2286V1.37143C18.2286 3.14286 17.0857 4.68572 15.4857 5.2V6.57143L18.8 11.2V11.2572C18.9715 11.5429 18.9143 11.8857 18.7429 12.1714C18.5715 12.4572 18.2857 12.6286 17.9429 12.6286H16.5143V14.5143H14.0572C13.6 14.5143 13.2572 14.8572 13.2572 15.3143C13.2572 15.7714 13.6 16.1143 14.0572 16.1143H16.6286V17.0857C16.6286 18.4572 15.5429 19.5429 14.1715 19.5429H11.6572V20.4572H13.0857V23.3143H1.42858V20.4572H2.9143V17.7714L1.48573 16.9143ZM17.3715 1.42857V0.857143H8.17144C4.1143 0.857143 0.800011 4.17143 0.800011 8.22858V14.2857C0.800011 15.0857 1.20001 15.8286 1.88573 16.2286L3.08573 16.9714C3.88573 16.6286 7.20002 15.0286 7.20002 10.3429V9.88572H8.62859C8.62859 8.85715 8.68573 6.34286 9.77145 5.2C10.1714 4.8 10.6286 4.57143 11.1429 4.57143H14.1143C15.9429 4.62857 17.3715 3.2 17.3715 1.42857ZM2.28572 22.4572H12.2286V21.3143H2.28572V22.4572ZM10.7429 20.4572V18.6857H14.1143C15.0286 18.6857 15.7143 17.9429 15.7143 17.0857V16.9714H14C13.0857 16.9714 12.3429 16.2286 12.3429 15.3143C12.3429 14.4 13.0857 13.6572 14 13.6572H15.6V11.7714H18V11.7143L14.5143 6.91429V5.48572C14.3429 5.48572 14.2286 5.48572 14.0572 5.48572H11.0857C10.8 5.48572 10.5143 5.6 10.3429 5.82858C9.42859 6.8 9.37145 9.37144 9.42859 10.2857V10.7429H8.00002C7.82859 15.0857 4.9143 16.9714 3.65716 17.5429V20.4572H10.7429Z" fill="#384A66"/>
<path d="M12.9714 9.71425L12.3429 9.14282L13.0286 8.39997L12.3429 7.71425L12.9714 7.14282L13.6572 7.82854L14.3429 7.14282L14.9143 7.71425L14.2286 8.39997L14.9143 9.14282L14.3429 9.71425L13.6572 9.02854L12.9714 9.71425Z" fill="#384A66"/>
<path d="M11.3143 8.80005L11.6572 9.31433C11.8857 9.65719 13.0857 11.4286 13.0857 12.2858C13.0857 13.2572 12.2857 14.0572 11.3143 14.0572C10.3429 14.0572 9.54286 13.2572 9.54286 12.2858C9.54286 11.4286 10.7429 9.65719 10.9714 9.31433L11.3143 8.80005ZM11.3143 13.2001C11.8286 13.2001 12.2286 12.8001 12.2286 12.2858C12.2286 12.0001 11.7714 11.1429 11.3143 10.3429C10.8 11.1429 10.4 12.0001 10.4 12.2858C10.3429 12.8001 10.8 13.2001 11.3143 13.2001Z" fill="#384A66"/>
<path d="M19.3714 14.7428H24.1714V15.5999H19.3714V14.7428Z" fill="#384A66"/>
<path d="M19.2766 16.3507L22.9755 18.0178L22.6233 18.7993L18.9244 17.1322L19.2766 16.3507Z" fill="#384A66"/>
<path d="M19.5008 18.4859L20.8639 21.5695L20.0799 21.916L18.7169 18.8325L19.5008 18.4859Z" fill="#384A66"/>
</svg>
