<svg width="23" height="23" viewBox="0 0 23 23" fill="none" xmlns="http://www.w3.org/2000/svg">
<path d="M13.0063 22.7126C18.3669 22.7126 22.7125 18.367 22.7125 13.0064C22.7125 7.64579 18.3669 3.30017 13.0063 3.30017C7.64573 3.30017 3.30012 7.64579 3.30012 13.0064C3.30012 18.367 7.64573 22.7126 13.0063 22.7126Z" fill="#FFD66B"/>
<path d="M1.69859 12.6666C1.84418 15.7241 4.41632 18.1991 7.52231 18.1991C10.6283 18.1991 13.2004 15.7241 13.3946 12.6666C14.3167 12.521 15.0446 11.696 15.0446 10.6768V9.60915V8.88118V7.52231C15.0446 5.53254 14.2681 3.63983 12.8607 2.1839C11.4533 0.776497 9.56061 0 7.52231 0C3.34864 0 0 3.39717 0 7.52231V9.26943V10.0459V10.6768C0 11.6474 0.727966 12.4725 1.69859 12.6666ZM1.65006 11.8901C1.11621 11.7445 0.727966 11.2592 0.727966 10.6768V9.80327C0.825028 9.75474 0.92209 9.75474 0.970621 9.70621C1.16474 9.65768 1.31034 9.56062 1.50446 9.51208C1.55299 9.51208 1.60152 9.46355 1.65006 9.46355V11.8901ZM7.52231 17.4712C4.70751 17.4712 2.37802 15.1417 2.37802 12.3269V9.12384C2.42655 9.0753 2.47508 9.0753 2.57215 9.02677C2.66921 8.97824 2.8148 8.88118 2.91186 8.83265C3.00892 8.78412 3.05746 8.73559 3.15452 8.68706C3.25158 8.63853 3.39717 8.54146 3.49424 8.49293C3.54277 8.4444 3.63983 8.39587 3.68836 8.39587C3.78542 8.34734 3.93101 8.25028 4.02808 8.20175C4.07661 8.15321 4.12514 8.15321 4.17367 8.10468C4.27073 8.00762 4.41632 7.95909 4.51339 7.86203L4.56192 7.8135C5.09576 7.42525 5.43548 7.08553 5.67813 6.89141C5.92079 7.08553 6.16344 7.23112 6.45463 7.37672C6.50316 7.42525 6.55169 7.42525 6.60022 7.47378C6.79435 7.61937 7.037 7.71644 7.23112 7.8135C7.32819 7.86203 7.47378 7.91056 7.57084 7.95909C7.71644 8.05615 7.91056 8.10468 8.05615 8.20175C8.20175 8.25028 8.34734 8.34734 8.49293 8.39587C8.63853 8.4444 8.78412 8.49293 8.88118 8.54146C9.0753 8.58999 9.26943 8.68706 9.46355 8.73559C9.56061 8.78412 9.70621 8.83265 9.80327 8.83265C9.99739 8.88118 10.24 8.92971 10.4342 9.02677C10.5312 9.0753 10.6283 9.0753 10.7254 9.12384C10.968 9.17237 11.1621 9.2209 11.4048 9.26943C11.5019 9.26943 11.5989 9.31796 11.696 9.31796C11.9386 9.36649 12.1813 9.41502 12.3754 9.41502C12.4725 9.41502 12.521 9.46355 12.6181 9.46355V12.3269C12.6666 15.1417 10.3856 17.4712 7.52231 17.4712ZM14.3652 10.6768C14.3652 11.2592 13.9769 11.7445 13.4431 11.8901V9.51208C13.4916 9.51208 13.5887 9.51208 13.6372 9.51208C13.8313 9.51208 13.9769 9.51208 14.1711 9.56061C14.2196 9.56061 14.3167 9.56061 14.3652 9.56061V10.6768ZM7.52231 0.727966C9.31796 0.727966 11.0651 1.45593 12.3269 2.71774C13.5887 3.97955 14.3167 5.72666 14.3167 7.52231V8.83265C14.2196 8.83265 14.1225 8.83265 14.0255 8.83265C13.9284 8.83265 13.8799 8.83265 13.7828 8.83265C13.6372 8.83265 13.5402 8.83265 13.4431 8.78412V8.73559H13.1034C10.24 8.4444 7.76497 7.52231 5.82372 6.06638L5.53254 5.87226L5.28988 6.11491C5.28988 6.11491 4.02808 7.47378 1.84418 8.54146H1.79565C1.55299 8.63853 1.35887 8.73559 1.11621 8.83265C1.11621 8.88118 1.01915 8.92971 0.970621 8.92971C0.873559 8.97824 0.825028 8.97824 0.727966 9.02677V7.57084C0.727966 3.78542 3.78542 0.727966 7.52231 0.727966Z" fill="#384A66"/>
<path d="M7.52231 12.2783C6.4061 12.2783 5.48401 13.2004 5.48401 14.3166C5.48401 15.4328 6.4061 16.3549 7.52231 16.3549C8.63853 16.3549 9.56062 15.4328 9.56062 14.3166C9.56062 13.2004 8.63853 12.2783 7.52231 12.2783ZM7.52231 15.5784C6.79435 15.5784 6.21197 14.9961 6.21197 14.2681C6.21197 13.5401 6.79435 12.9578 7.52231 12.9578C8.25028 12.9578 8.83265 13.5401 8.83265 14.2681C8.83265 14.9961 8.25028 15.5784 7.52231 15.5784Z" fill="#384A66"/>
<path d="M4.90164 9.75473C4.75604 9.65767 4.51339 9.65767 4.41633 9.8518C4.31926 10.0459 4.31926 10.24 4.51339 10.3371L5.33842 10.9195L4.51339 11.5019C4.36779 11.5989 4.31926 11.8416 4.41633 11.9872C4.46486 12.0842 4.61045 12.1328 4.70751 12.1328C4.75604 12.1328 4.8531 12.1328 4.90164 12.0842L6.55169 10.9195L4.90164 9.75473Z" fill="#384A66"/>
<path d="M10.6768 9.80326C10.5797 9.65767 10.3371 9.60914 10.1915 9.7062L8.54144 10.8709L10.1915 12.0357C10.24 12.0842 10.3371 12.0842 10.3856 12.0842C10.4827 12.0842 10.6283 12.0357 10.6768 11.9386C10.7739 11.793 10.7739 11.5504 10.5797 11.4533L9.75472 10.8709L10.5797 10.2886C10.7739 10.1915 10.7739 9.99738 10.6768 9.80326Z" fill="#384A66"/>
<path d="M7.91055 19.0727H7.18259V21.5963H7.91055V19.0727Z" fill="#384A66"/>
<path d="M11.1315 17.9342L10.6167 18.449L12.4014 20.2335L12.9162 19.7187L11.1315 17.9342Z" fill="#384A66"/>
<path d="M3.94695 17.9458L2.16225 19.7303L2.67699 20.2451L4.46169 18.4607L3.94695 17.9458Z" fill="#384A66"/>
</svg>
