<svg width="29" height="25" viewBox="0 0 29 25" fill="none" xmlns="http://www.w3.org/2000/svg">
<path d="M27.2847 23.4774C25.8888 17.6397 20.6856 13.198 14.3403 13.198C7.99504 13.198 2.7919 17.6397 1.39594 23.4774H27.2847Z" fill="#F14A4A"/>
<path d="M20.4319 7.10686C20.4319 10.5333 17.6399 13.1983 14.3404 13.1983C10.9139 13.1983 8.2489 10.4064 8.2489 7.10686C8.2489 3.6804 11.0408 1.01538 14.3404 1.01538C17.6399 1.01538 20.4319 3.6804 20.4319 7.10686Z" fill="#FFBEA0"/>
<path d="M28.1731 23.2238C27.0309 18.1475 23.2238 14.2135 18.4013 12.8175C20.178 11.5484 21.3202 9.39103 21.3202 7.10672C21.3202 3.17264 18.1475 0 14.2135 0C10.2794 0 7.10673 3.17264 7.10673 7.10672C7.10673 9.51794 8.24888 11.5484 10.0256 12.8175C5.20314 14.2135 1.39597 18.1475 0.253813 23.2238L0 24.3659H28.3L28.1731 23.2238ZM9.13722 7.10672C9.13722 4.3148 11.4215 1.90359 14.3404 1.90359C17.2592 1.90359 19.5435 4.18789 19.5435 7.10672C19.5435 10.0256 17.2592 12.3099 14.3404 12.3099C11.4215 12.3099 9.13722 9.89865 9.13722 7.10672ZM2.66502 22.5892C4.3148 17.6399 9.01031 14.2135 14.3404 14.2135C19.6704 14.2135 24.3659 17.6399 26.0157 22.5892H2.66502Z" fill="#261C2C"/>
</svg>
