<svg width="15" height="15" viewBox="0 0 15 15" fill="none" xmlns="http://www.w3.org/2000/svg">
<path d="M0 5.09434V9.51651H1.69565V15H5.80435V9.51651H7.5V5.09434C7.5 3.92689 6.65217 3.00708 5.57609 3.00708H4.92391C5.21739 2.68868 5.41304 2.22877 5.41304 1.76887C5.41304 0.778302 4.66304 0 3.78261 0C2.86957 0 2.15217 0.813679 2.15217 1.76887C2.08696 2.22877 2.28261 2.68868 2.57609 3.00708H1.92391C0.880435 3.00708 0 3.96226 0 5.09434ZM6.97826 5.09434V8.98585H5.77174V5.625H5.28261V8.98585V9.26887V14.5047H3.94565V9.48113H3.45652V14.4693H2.18478V9.26887V8.98585V5.625H1.69565V8.98585H0.48913V5.09434C0.48913 4.24528 1.1413 3.53774 1.92391 3.53774H5.54348C6.3587 3.53774 6.97826 4.24528 6.97826 5.09434ZM2.57609 1.76887C2.57609 1.06132 3.09783 0.53066 3.71739 0.53066C4.36957 0.53066 4.8587 1.0967 4.8587 1.76887C4.8587 2.47642 4.33696 3.00708 3.71739 3.00708C3.09783 3.00708 2.57609 2.44104 2.57609 1.76887Z" fill="#261C2C"/>
<path d="M8.90625 4.02218L8.4375 4.30444L9.19471 5.5746L9.66346 5.29234L9.41106 4.86895L10.1683 4.44556C10.4928 4.83367 10.9255 5.11593 11.4663 5.18649V6.03327H10.9976V6.5625H12.4399V6.03327H11.9712V5.18649C12.476 5.11593 12.9447 4.83367 13.2692 4.44556L14.0264 4.86895L13.774 5.29234L14.2428 5.5746L15 4.30444L14.4952 4.02218L14.2428 4.44556L13.5216 4.02218C13.6298 3.81048 13.6659 3.56351 13.6659 3.28125C13.6659 2.99899 13.6298 2.7873 13.5216 2.54032L14.2788 2.11694L14.5313 2.54032L14.9639 2.29335L14.2067 1.02319L13.738 1.30544L13.9904 1.72883L13.2332 2.15222C12.9087 1.76411 12.476 1.48185 11.9351 1.41129V0.529234H12.4399V0H10.9255V0.529234H11.3942V1.37601C10.8894 1.44657 10.4207 1.72883 10.0962 2.11694L9.33894 1.69355L9.59135 1.27016L9.19471 1.02319L8.4375 2.29335L8.90625 2.5756L9.15865 2.15222L9.91587 2.5756C9.80769 2.7873 9.77164 3.03427 9.77164 3.31653C9.77164 3.56351 9.80769 3.81048 9.91587 4.05746L9.15865 4.48085L8.90625 4.02218ZM11.7188 1.86996C12.512 1.86996 13.1611 2.50504 13.1611 3.28125C13.1611 4.05746 12.512 4.69254 11.7188 4.69254C10.9255 4.69254 10.2764 4.05746 10.2764 3.28125C10.2764 2.50504 10.9255 1.86996 11.7188 1.86996Z" fill="#261C2C"/>
</svg>
