<svg width="15" height="15" viewBox="0 0 15 15" fill="none" xmlns="http://www.w3.org/2000/svg">
<path fill-rule="evenodd" clip-rule="evenodd" d="M6.44643 2.03571C4.01046 2.03571 2.03571 4.01046 2.03571 6.44643C2.03571 8.8824 4.01046 10.8571 6.44643 10.8571C8.8824 10.8571 10.8571 8.8824 10.8571 6.44643C10.8571 4.01046 8.8824 2.03571 6.44643 2.03571ZM0 6.44643C0 2.88617 2.88617 0 6.44643 0C10.0067 0 12.8929 2.88617 12.8929 6.44643C12.8929 10.0067 10.0067 12.8929 6.44643 12.8929C2.88617 12.8929 0 10.0067 0 6.44643Z" fill="#BFBFBF"/>
<path fill-rule="evenodd" clip-rule="evenodd" d="M9.56064 9.56064C9.95813 9.16314 10.6026 9.16314 11.0001 9.56064L13.9519 12.5124C14.3494 12.9099 14.3494 13.5544 13.9519 13.9519C13.5544 14.3494 12.9099 14.3494 12.5124 13.9519L9.56064 11.0001C9.16314 10.6026 9.16314 9.95813 9.56064 9.56064Z" fill="#BFBFBF"/>
</svg>
