<svg width="24" height="23" viewBox="0 0 24 23" fill="none" xmlns="http://www.w3.org/2000/svg">
<path d="M13.8528 23C19.2812 23 23.6818 18.5994 23.6818 13.1709C23.6818 7.74248 19.2812 3.34186 13.8528 3.34186C8.42433 3.34186 4.02371 7.74248 4.02371 13.1709C4.02371 18.5994 8.42433 23 13.8528 23Z" fill="#FFD66B"/>
<path d="M2.59849 14.3504C2.69678 16.1197 3.43396 17.7415 4.76088 18.9209V20.297L4.90832 20.3953C6.0878 21.3782 7.7096 21.8697 9.28225 21.8697C10.8549 21.8697 12.4275 21.3782 13.6562 20.3953L13.8036 20.297V18.9209C15.0814 17.7415 15.8677 16.0705 15.966 14.3504C17.0472 14.203 17.8827 13.2692 17.8827 12.1389V10.9103V10.1731V8.55128C17.8827 6.2906 16.9981 4.12821 15.3763 2.50641C13.6562 0.884615 11.5429 0 9.2331 0C4.51515 0 0.68182 3.83333 0.68182 8.55128V10.5662V11.3526V12.1389C0.68182 13.2692 1.51729 14.203 2.59849 14.3504ZM2.59849 13.6132C1.9596 13.4658 1.46814 12.8269 1.46814 12.1389V11.1068C1.56644 11.0577 1.66473 11.0577 1.71387 11.0085C1.9596 10.9103 2.20532 10.812 2.40191 10.7137C2.45105 10.6645 2.54934 10.6645 2.59849 10.6645V13.6132ZM7.07071 7.71581C7.36558 7.91239 7.66045 8.10897 7.95532 8.30556C8.00447 8.3547 8.05361 8.3547 8.10276 8.40385C8.34849 8.55128 8.59421 8.69872 8.83994 8.84615C8.93823 8.8953 9.08567 8.94444 9.18396 8.99359C9.38054 9.09188 9.57712 9.19017 9.7737 9.28846C9.92114 9.33761 10.1177 9.4359 10.2652 9.48504C10.4126 9.53419 10.6092 9.63248 10.7566 9.68162C10.9532 9.77991 11.1498 9.82906 11.3955 9.87821C11.5429 9.92735 11.6904 9.9765 11.8378 10.0256C12.0835 10.0748 12.3293 10.1731 12.575 10.2222C12.6733 10.2714 12.8207 10.2714 12.919 10.3205C13.1647 10.3697 13.4596 10.4188 13.7053 10.4679C13.8036 10.4679 13.9511 10.5171 14.0493 10.5171C14.2951 10.5662 14.5899 10.6154 14.8357 10.6154C14.8848 10.6154 14.934 10.6154 14.9831 10.6154L13.1647 15.0385C10.904 13.4658 7.51302 13.4658 5.25233 15.0385L3.38481 10.1731C3.43396 10.1731 3.4831 10.1239 3.53225 10.1239C3.67968 10.0748 3.82712 9.9765 3.92541 9.92735C4.0237 9.87821 4.12199 9.82906 4.17114 9.77991C4.31857 9.68162 4.41686 9.63248 4.5643 9.53419C4.66259 9.53419 4.76088 9.48504 4.81003 9.48504C4.95746 9.38675 5.05575 9.33761 5.20319 9.23932C5.25233 9.19017 5.30148 9.19017 5.35062 9.14103C5.49806 9.04274 5.59635 8.94444 5.74379 8.84615C5.74379 8.84615 5.79293 8.84615 5.79293 8.79701C6.38267 8.3547 6.82498 7.96154 7.07071 7.71581ZM3.33567 14.0064V12.0406L4.76088 15.7265V17.8889C3.82712 16.8077 3.33567 15.4316 3.33567 14.0064ZM13.0173 19.953C10.904 21.5748 7.61131 21.5748 5.49806 19.953V15.8739C7.61131 14.2521 10.904 14.2521 13.0173 15.8739V19.953ZM13.7545 17.8889V15.7756L15.1797 12.2863V14.0556C15.1797 15.4316 14.6391 16.8077 13.7545 17.8889ZM17.0472 12.1389C17.0472 12.8269 16.5558 13.4658 15.9169 13.6132V10.812C15.966 10.812 16.0643 10.812 16.1134 10.812C16.3592 10.812 16.5558 10.8611 16.8015 10.8611C16.8998 10.8611 16.9489 10.8611 17.0472 10.8611V12.1389ZM9.2331 0.737179C11.2972 0.737179 13.263 1.57265 14.7374 3.04701C16.2117 4.52137 17.0472 6.48718 17.0472 8.55128V10.1239C16.8998 10.1239 16.8015 10.1239 16.654 10.1239C16.5558 10.1239 16.4575 10.1239 16.4083 10.1239C16.2609 10.1239 16.1134 10.0748 15.9169 10.0748V10.0256H15.5728C12.2801 9.68162 9.47883 8.64957 7.21814 6.92949L6.97242 6.73291L6.72669 6.97863C6.72669 6.97863 5.30148 8.55128 2.79507 9.73077H2.74592C2.5002 9.82906 2.25447 9.9765 1.9596 10.0748C1.86131 10.1239 1.81216 10.1239 1.71387 10.1731C1.61558 10.2222 1.51729 10.2222 1.419 10.2714V8.55128C1.419 4.27564 4.95746 0.737179 9.2331 0.737179Z" fill="#384A66"/>
<path d="M11.1006 12.6795C11.1498 12.6795 11.1498 12.6795 11.1989 12.6795L12.8698 12.188C13.0664 12.1389 13.1647 11.9423 13.1156 11.7457C13.0664 11.5492 12.8698 11.4509 12.6733 11.5L11.0023 11.9915C10.8057 12.0406 10.7075 12.2372 10.7566 12.4338C10.7566 12.5812 10.904 12.6795 11.1006 12.6795Z" fill="#384A66"/>
<path d="M5.39976 11.7457C5.35061 11.9423 5.4489 12.1389 5.64548 12.188L7.31642 12.6795C7.36557 12.6795 7.36557 12.6795 7.41472 12.6795C7.56215 12.6795 7.70959 12.5812 7.75873 12.4338C7.80788 12.2372 7.70959 12.0406 7.51301 11.9915L5.84207 11.5C5.64548 11.4509 5.4489 11.5492 5.39976 11.7457Z" fill="#384A66"/>
</svg>
