<svg width="31" height="31" viewBox="0 0 31 31" fill="none" xmlns="http://www.w3.org/2000/svg">
<path d="M20.0997 26.4998C26.0998 24.0144 28.9491 17.1355 26.4637 11.1354C23.9783 5.1353 17.0995 2.28604 11.0993 4.77143C5.09922 7.25681 2.24997 14.1357 4.73535 20.1358C7.22073 26.1359 14.0996 28.9851 20.0997 26.4998Z" fill="#F14A4A"/>
<path d="M18.8732 17.2886C19.814 15.3484 19.6964 13.1142 18.6969 10.5272L18.5205 10.1744L17.521 10.4684L16.639 9.29249L17.3446 8.29297L15.3455 3.94213C17.1094 2.88382 17.2858 1.17876 17.2858 0.590808C17.2858 0.414423 17.227 0.296833 17.1094 0.179242C16.9918 0.061652 16.8154 0.00285688 16.6978 0.00285688H7.87855C3.52771 -0.114733 0 3.41298 0 7.76382V11.3503C0 15.4072 2.64578 17.171 3.6453 17.7002L3.11614 19.8756C2.76337 20.1696 1.94024 20.9927 1.76385 22.2862C1.29349 22.639 0 23.7561 0 25.0496V25.52H16.1099V23.8737L16.0511 23.7561C15.5807 22.9918 14.8752 22.2862 13.9932 21.6395L14.2284 21.2279C14.934 20.9927 17.6385 19.9344 18.8732 17.2886ZM18.0501 16.8771C17.0506 18.9349 14.934 19.9932 14.1696 20.2872L12.2882 17.171C14.7576 15.2308 14.64 13.173 14.4048 12.291L17.9913 11.2327C18.8144 13.4082 18.8144 15.2896 18.0501 16.8771ZM11.6414 16.5831C10.8771 16.2303 8.34891 15.1132 6.70265 14.2901C5.23277 13.5257 5.11518 12.4086 5.11518 12.1147C5.40915 11.1151 5.87952 10.8212 6.23229 10.7624C7.17301 10.6448 7.99614 11.5855 7.99614 11.5855L8.11373 11.7619H9.81879L13.5229 12.4674C13.6993 12.9966 13.9932 14.7604 11.6414 16.5831ZM16.3451 8.11659L15.5219 9.2337L16.5802 10.7036L13.8169 11.5267L10.2892 10.88C10.3479 5.88237 11.2887 5.17683 14.1108 4.41249C14.2872 4.3537 14.4048 4.2949 14.5812 4.23611L16.3451 8.11659ZM0.881927 11.3503V7.76382C0.881927 3.94213 4.05687 0.767194 7.87855 0.767194H16.4038C16.3451 1.53153 15.8747 2.94262 13.8757 3.53057C10.5831 4.47129 9.52482 5.64719 9.46602 10.8212H8.5253C8.17253 10.4684 7.2318 9.70406 6.1147 9.88044C4.46843 10.1156 3.76289 12.0559 3.70409 16.7595C2.76337 16.1715 0.881927 14.6429 0.881927 11.3503ZM2.4694 22.8742L2.64578 22.7566V22.5214C2.70458 21.5807 3.29253 20.8751 3.5865 20.64C4.52723 20.9927 8.17253 22.5214 10.9947 24.5792H0.999518C1.2347 23.8149 2.11663 23.1094 2.4694 22.8742ZM15.2279 24.1089V24.5792H12.4058C9.46602 22.1098 5.29156 20.346 3.99807 19.8168L4.40964 17.9942L4.52723 18.053V17.9942C6.52626 18.6997 13.1113 20.9927 15.2279 24.1089ZM4.58602 17.1122C4.58602 15.7012 4.64482 14.5841 4.76241 13.7021C5.05638 14.1725 5.52674 14.6429 6.29108 14.9956C7.99614 15.8775 10.7595 17.1122 11.4063 17.4062L13.4641 20.8163L13.2877 21.1103C10.1716 18.9349 5.82072 17.5238 4.58602 17.1122Z" fill="#384A66"/>
</svg>
