<svg width="18" height="12" viewBox="0 0 18 12" fill="none" xmlns="http://www.w3.org/2000/svg">
<path fill-rule="evenodd" clip-rule="evenodd" d="M11.6308 6.91203C11.788 6.5558 11.8758 6.15932 11.8758 5.98091C11.8758 4.43452 10.6744 3.18071 9.19258 3.18071C7.71082 3.18071 6.5094 4.43452 6.5094 5.98091C6.5094 7.52724 7.85102 8.54176 9.19258 8.54176C10.0508 8.54176 10.8146 8.12202 11.3046 7.46847C11.433 7.29757 11.5431 7.11093 11.6308 6.91203ZM9.19258 7.14169C9.52799 7.14169 9.8346 7.01316 10.0704 6.80055C10.3547 6.5442 10.4799 6.16479 10.4799 5.98091C10.4799 5.20771 9.93415 4.58078 9.19258 4.58078C8.45107 4.58078 7.84463 5.20666 7.84463 5.97986C7.84463 6.51377 8.45107 7.14169 9.19258 7.14169Z" fill="#8A858D"/>
<path fill-rule="evenodd" clip-rule="evenodd" d="M0.658225 6.15934C0.647743 6.14636 0.668707 6.17297 0.658225 6.15934C0.576215 6.04714 0.578279 5.91373 0.658594 5.80021C0.664477 5.79191 0.670473 5.78328 0.676547 5.77445C3.08855 2.25303 6.07964 0.379868 9.1716 0.379868C12.2604 0.379868 15.2488 2.24799 17.6582 5.76233C17.7039 5.829 17.727 5.89752 17.727 5.97954C17.727 6.06559 17.7001 6.13792 17.6521 6.20789C15.2433 9.71554 12.2575 11.5799 9.1716 11.5799C6.07178 11.5799 3.07285 9.69781 0.658225 6.15934ZM2.53388 5.55328C2.33558 5.79982 2.33558 6.1592 2.53387 6.4058C4.59934 8.97377 6.92501 10.1798 9.1716 10.1798C11.4183 10.1798 13.7439 8.97377 15.8094 6.4058C16.0077 6.1592 16.0077 5.79982 15.8094 5.55328C13.7439 2.98535 11.4183 1.77995 9.1716 1.77995C6.92501 1.77995 4.59934 2.98535 2.53388 5.55328Z" fill="#8A858D"/>
</svg>
