<svg width="15" height="17" viewBox="0 0 15 17" fill="none" xmlns="http://www.w3.org/2000/svg">
<path d="M9.5 17C12.5376 17 15 14.5376 15 11.5C15 8.46243 12.5376 6 9.5 6C6.46243 6 4 8.46243 4 11.5C4 14.5376 6.46243 17 9.5 17Z" fill="#F14A4A"/>
<path d="M14.0796 4.64809H10.759V0.995361H3.32067V4.64809H0V13.4147H1.89278V15.1082H12.2533V13.4147H14.146V4.64809H14.0796ZM3.81877 1.46025H10.2609V4.61489V12.8833H8.89938V10.4593H5.18024V12.8833H3.81877V4.64809V1.46025ZM8.40128 12.9166H5.67834V10.9906H8.40128V12.9166ZM0.464893 12.9166V5.14619H3.28746V12.9166H1.85957H0.464893ZM11.722 14.5769H2.35767V13.3814H3.32067H3.81877H5.18024H8.89938H10.2609H10.759H11.722V14.5769ZM13.5815 12.9166H12.1868H10.7258V5.14619H13.5483V12.9166H13.5815Z" fill="#261C2C"/>
<path d="M6.77415 5.17933H7.27225V4.24954H8.20203V3.75144H7.27225V2.82166H6.77415V3.75144H5.84436V4.24954H6.77415V5.17933Z" fill="#261C2C"/>
<path d="M2.12518 6.37488H1.62708V7.30466H2.12518V6.37488Z" fill="#261C2C"/>
<path d="M2.12518 8.5332H1.62708V9.46299H2.12518V8.5332Z" fill="#261C2C"/>
<path d="M2.12518 10.725H1.62708V11.6548H2.12518V10.725Z" fill="#261C2C"/>
<path d="M12.4194 6.37488H11.9213V7.30466H12.4194V6.37488Z" fill="#261C2C"/>
<path d="M12.4194 8.5332H11.9213V9.46299H12.4194V8.5332Z" fill="#261C2C"/>
<path d="M12.4194 10.725H11.9213V11.6548H12.4194V10.725Z" fill="#261C2C"/>
<path d="M5.67828 6.37488H5.18018V7.30466H5.67828V6.37488Z" fill="#261C2C"/>
<path d="M5.67828 8.5332H5.18018V9.46299H5.67828V8.5332Z" fill="#261C2C"/>
<path d="M7.27227 6.37488H6.77417V7.30466H7.27227V6.37488Z" fill="#261C2C"/>
<path d="M7.27227 8.5332H6.77417V9.46299H7.27227V8.5332Z" fill="#261C2C"/>
<path d="M8.89947 6.37488H8.40137V7.30466H8.89947V6.37488Z" fill="#261C2C"/>
<path d="M8.89947 8.5332H8.40137V9.46299H8.89947V8.5332Z" fill="#261C2C"/>
</svg>
