<svg width="11" height="12" viewBox="0 0 11 12" fill="none" xmlns="http://www.w3.org/2000/svg">
<path fill-rule="evenodd" clip-rule="evenodd" d="M0.834746 7.85974C1.36922 7.32526 2.09413 7.02499 2.85 7.02499H7.35C8.10587 7.02499 8.83078 7.32526 9.36525 7.85974C9.89973 8.39422 10.2 9.11913 10.2 9.87499V11C10.2 11.3314 9.93137 11.6 9.6 11.6C9.26863 11.6 9 11.3314 9 11V9.87499C9 9.43739 8.82616 9.0177 8.51673 8.70827C8.20729 8.39883 7.78761 8.22499 7.35 8.22499H2.85C2.41239 8.22499 1.99271 8.39883 1.68327 8.70827C1.37384 9.0177 1.2 9.43739 1.2 9.87499V11C1.2 11.3314 0.931371 11.6 0.6 11.6C0.268629 11.6 0 11.3314 0 11V9.87499C0 9.11913 0.300267 8.39422 0.834746 7.85974Z" fill="#2F2E41"/>
<path fill-rule="evenodd" clip-rule="evenodd" d="M5.1 1.47499C4.18873 1.47499 3.45 2.21372 3.45 3.12499C3.45 4.03626 4.18873 4.77499 5.1 4.77499C6.01127 4.77499 6.75 4.03626 6.75 3.12499C6.75 2.21372 6.01127 1.47499 5.1 1.47499ZM2.25 3.12499C2.25 1.55098 3.52599 0.274994 5.1 0.274994C6.67401 0.274994 7.95 1.55098 7.95 3.12499C7.95 4.69901 6.67401 5.97499 5.1 5.97499C3.52599 5.97499 2.25 4.69901 2.25 3.12499Z" fill="#2F2E41"/>
</svg>
